<?xml version="1.0" encoding="UTF-8" standalone="no"?>
<svg
   xmlns:dc="http://purl.org/dc/elements/1.1/"
   xmlns:cc="http://creativecommons.org/ns#"
   xmlns:rdf="http://www.w3.org/1999/02/22-rdf-syntax-ns#"
   xmlns:svg="http://www.w3.org/2000/svg"
   xmlns="http://www.w3.org/2000/svg"
   viewBox="0 0 1000 666.66669"
   height="666.66669"
   width="1000"
   xml:space="preserve"
   id="svg2"
   version="1.1"><metadata
     id="metadata8"><rdf:RDF><cc:Work
         rdf:about=""><dc:format>image/svg+xml</dc:format><dc:type
           rdf:resource="http://purl.org/dc/dcmitype/StillImage" /></cc:Work></rdf:RDF></metadata><defs
     id="defs6" /><g
     transform="matrix(1.3333333,0,0,-1.3333333,0,666.66667)"
     id="g10"><g
       transform="scale(0.1)"
       id="g12"><path
         id="path14"
         style="fill:#ffffff;fill-opacity:1;fill-rule:nonzero;stroke:none"
         d="M 0,0 H 7500 V 5000 H 0 Z" /><path
         id="path16"
         style="fill:#efded7;fill-opacity:1;fill-rule:nonzero;stroke:none"
         d="m 6368.85,2531.18 c 0,-1330.3 -1172.5,-1092.95 -2618.85,-1092.95 -1446.36,0 -2618.86,-93.73 -2618.86,1092.95 0,1061.47 422.16,2132.86 2618.86,2132.86 2274.27,0 2618.85,-1071.39 2618.85,-2132.86" /><path
         id="path18"
         style="fill:#c93c31;fill-opacity:1;fill-rule:nonzero;stroke:none"
         d="m 5803.13,2553.02 c -18.56,-20.29 -47.99,-17.48 -359.38,61.17 -236.96,59.85 -264.63,69.52 -271.46,95.59 -22.62,86.39 197.46,301.17 401.83,247.62 200.06,-52.42 290.48,-337.17 229.01,-404.38" /><path
         id="path20"
         style="fill:#fe6b5b;fill-opacity:1;fill-rule:nonzero;stroke:none"
         d="m 5768.48,2582.27 c -18.56,-20.3 -47.99,-17.49 -359.38,61.17 -236.96,59.85 -264.63,69.51 -271.46,95.58 -22.61,86.4 197.46,301.18 401.83,247.63 200.06,-52.42 290.48,-337.18 229.01,-404.38" /><path
         id="path22"
         style="fill:#efded7;fill-opacity:1;fill-rule:nonzero;stroke:none"
         d="M 6065.42,931.012 C 6077.33,679 4913.36,340.809 3827.98,336.012 c -1111.78,-4.91 -2304.94,339.25 -2293.11,595 12.4,268.338 1351.6,442.918 2344.9,433.418 890.8,-8.52 2173.25,-171.48 2185.65,-433.418" /><path
         id="path24"
         style="fill:#e3c7bc;fill-opacity:1;fill-rule:nonzero;stroke:none"
         d="m 3789.6,660.82 c -367.62,0 -695.3,34.032 -908.2,87.149 -107.55,-12.809 -233.27,-20.168 -367.63,-20.168 -396.61,0 -718.12,64.078 -718.12,143.121 0,79.047 321.51,143.118 718.12,143.118 91.28,0 178.56,-3.4 258.88,-9.59 198.11,71.26 579.23,119.51 1016.95,119.51 450.92,0 841.85,-51.2 1034.44,-126.011 99.08,10.281 211.69,16.091 331.12,16.091 396.6,0 718.11,-64.071 718.11,-143.118 0,-79.043 -321.51,-143.121 -718.11,-143.121 -159.98,0 -307.71,10.429 -427.09,28.058 C 4516.71,698.25 4175.11,660.82 3789.6,660.82" /><path
         id="path26"
         style="fill:#ff8b6a;fill-opacity:1;fill-rule:nonzero;stroke:none"
         d="m 2145.24,3294.51 c 127.75,128.68 318.64,-333.38 377.05,-425.03 27.61,-43.33 12.63,-101.53 -33.87,-125.71 -40.29,-20.96 -90.17,-5.54 -115.64,32.07 -63.99,94.51 -329.56,415.93 -227.54,518.67" /><path
         id="path28"
         style="fill:#105f9a;fill-opacity:1;fill-rule:nonzero;stroke:none"
         d="m 2288.38,3309.25 151.94,-243.45 c 6.69,-10.72 6.41,-24.48 -0.96,-34.74 -14.24,-19.79 -36.21,-44.85 -68.38,-66.95 -32.41,-22.25 -63.99,-33.82 -87.93,-40.02 -13.22,-3.42 -27.11,1.95 -34.48,13.44 -39.65,61.85 -79.31,123.7 -118.96,185.55 l 158.77,186.17" /><path
         id="path30"
         style="fill:#ff8b6a;fill-opacity:1;fill-rule:nonzero;stroke:none"
         d="m 2958.55,2588.05 c -16.54,12.39 -331.84,209.57 -470.6,313.34 -37.96,28.39 -93.89,6.4 -117.24,-34.86 -24.15,-42.66 -8.87,-96.83 34.02,-120.58 l 492.71,-241.93 61.11,84.03" /><path
         id="path32"
         style="fill:#ff8b6a;fill-opacity:1;fill-rule:nonzero;stroke:none"
         d="m 2985.67,2464.89 c -24.23,5.56 -48.6,11.47 -70.74,22.71 -7.23,3.67 -14.34,8.04 -19.32,14.43 -33.54,43.01 -6.58,117.55 45.24,129.14 13.11,2.93 27.3,0.78 38.96,-5.89 9.77,-5.59 17.15,-13.6 28.19,-15.9 8.94,-1.86 21.05,-0.73 30.17,0.07 12.38,1.07 29.51,1.55 32.78,-14.4 2.88,-14.04 -17.85,-25.11 -14.38,-39 2.06,-8.26 11.46,-13.67 11.77,-22.42 0.38,-10.56 -9.77,-14.92 -15.58,-21.84 -7.25,-8.64 -9.01,-17.55 -13.67,-27.45 -10,-21.22 -27.23,-25.44 -49.45,-20.36 -1.32,0.3 -2.65,0.61 -3.97,0.91" /><path
         id="path34"
         style="fill:#ff8b6a;fill-opacity:1;fill-rule:nonzero;stroke:none"
         d="m 2916.7,2618.6 c 18,10.71 65.71,7.28 80.14,-4.35 14.43,-11.62 -35.15,-64.1 -71.58,-37.5" /><path
         id="path36"
         style="fill:#c93c31;fill-opacity:1;fill-rule:nonzero;stroke:none"
         d="m 1707.53,2468.04 c 18.57,-20.29 47.99,-17.49 359.39,61.17 236.94,59.85 264.62,69.52 271.45,95.58 22.61,86.4 -197.46,301.18 -401.83,247.63 -200.05,-52.42 -290.47,-337.18 -229.01,-404.38" /><path
         id="path38"
         style="fill:#fe6b5b;fill-opacity:1;fill-rule:nonzero;stroke:none"
         d="m 1742.18,2497.28 c 18.56,-20.29 47.99,-17.48 359.38,61.17 236.95,59.85 264.63,69.52 271.45,95.59 22.62,86.4 -197.45,301.18 -401.82,247.62 -200.05,-52.42 -290.48,-337.18 -229.01,-404.38" /><path
         id="path40"
         style="fill:#ff8b6a;fill-opacity:1;fill-rule:nonzero;stroke:none"
         d="m 2191.33,2374.1 c 0,0 811.96,-204.89 929.53,-301.77 117.56,-96.88 -24.62,-249.1 -100.86,-228.44 -46.9,12.72 -369.27,38.91 -610.51,57.19 -147.52,11.18 -256.09,142.74 -239.21,289.72 l 21.05,183.3" /><path
         id="path42"
         style="fill:#381905;fill-opacity:1;fill-rule:nonzero;stroke:none"
         d="m 2764.2,2085.09 c 4.94,43.11 9.32,86.72 6.35,130.12 l -1.08,1.38 c -256.76,80.31 -556.84,156.33 -577.15,161.44 l -4.5,1.15 -20.89,-181.96 c -8.8,-76.63 13.34,-154.55 64.56,-212.23 45.78,-51.59 108.52,-82.71 177.69,-87.96 104.46,-7.91 218.81,-16.91 320.34,-25.61 l 1.6,1.25 c 11.73,70.71 24.91,141.22 33.08,212.42" /><path
         id="path44"
         style="fill:#ff8b6a;fill-opacity:1;fill-rule:nonzero;stroke:none"
         d="m 3126.59,1925.48 c 4.52,-44.63 -521.35,-529.6 -613.11,-638.64 -75.05,-89.19 -50.3,-99.53 -50.3,-99.53 0,0 -121.55,86.2 -116.93,101.1 4.62,14.91 54.16,85.05 89.12,128.36 34.95,43.32 288.96,412.18 391.73,505.87 102.76,93.7 177.48,135.17 241.78,148.68 56.53,11.89 100.02,-84.87 57.71,-145.84" /><path
         id="path46"
         style="fill:#ea3e3c;fill-opacity:1;fill-rule:nonzero;stroke:none"
         d="m 2353.9,1327.62 c 16.36,6.54 33.61,11.27 34.38,2.92 1.32,-13.97 -2.73,-28.47 -1.91,-42.62 1.84,-31.88 34.78,-56.51 63.01,-65.74 18.21,-5.96 17.97,-24.47 20.28,-40.15 2.48,-16.74 5.39,-33.42 8.39,-50.07 3.81,-21.06 7.8,-42.1 12.05,-63.09 0,0 10.41,-29.93 8.4,-37.27 -1.5,-5.49 -18.02,-22.94 -20.78,-23.37 -2.76,-0.44 -39.05,13.08 -66.71,39.32 -28.16,26.68 -65.63,86.76 -75.36,114.4 -6.27,17.81 -13.77,35.21 -20.94,52.68 -8.68,21.14 -31.54,53.65 -17.72,76.29 11.72,19.2 37.03,28.75 56.91,36.7" /><path
         id="path48"
         style="fill:#ffffff;fill-opacity:1;fill-rule:nonzero;stroke:none"
         d="m 2498.5,1031.6 c 0.6,-19.31 -17.82,-38.721 -39.32,-29.74 -21.49,9 -98.33,80.24 -121.83,133.56 -23.5,53.32 -71.59,152.42 -39.4,173.32 l 20.86,2.55 c 0,0 -23.53,-68.31 40,-166.55 63.53,-98.23 114.61,-127.95 118.32,-120.39 3.7,7.57 -60.97,42.07 -55.75,87.91 5.23,45.85 74.28,11.13 77.12,-80.66" /><path
         id="path50"
         style="fill:none;stroke:#381905;stroke-width:29.64349937;stroke-linecap:round;stroke-linejoin:miter;stroke-miterlimit:10;stroke-dasharray:none;stroke-opacity:1"
         d="m 2602.83,960.969 -68.79,889.371 -463.55,-25.57 -68.79,-872.54" /><path
         id="path52"
         style="fill:none;stroke:#381905;stroke-width:29.64349937;stroke-linecap:round;stroke-linejoin:miter;stroke-miterlimit:10;stroke-dasharray:none;stroke-opacity:1"
         d="m 1788.01,816.871 206.27,1045.189 381.93,-87.39 42.97,-966.701" /><path
         id="path54"
         style="fill:#c93c31;fill-opacity:1;fill-rule:nonzero;stroke:none"
         d="m 1870.58,1854.21 h 201.11 c 55.98,6.95 120.12,10.89 188.29,10.89 68.18,0 132.32,-3.94 188.3,-10.89 h 212.86 l -5.88,-79.54 c 0,-49.94 -176.97,-90.43 -395.28,-90.43 -218.3,0 -395.28,40.49 -395.28,90.43 l 5.88,79.54" /><path
         id="path56"
         style="fill:#fe6b5b;fill-opacity:1;fill-rule:nonzero;stroke:none"
         d="m 1870.58,1854.21 c 0,-49.95 176.98,-90.43 395.28,-90.43 218.31,0 395.28,40.48 395.28,90.43 0,49.95 -176.97,90.44 -395.28,90.44 -218.3,0 -395.28,-40.49 -395.28,-90.44" /><path
         id="path58"
         style="fill:#ff8b6a;fill-opacity:1;fill-rule:nonzero;stroke:none"
         d="m 2005.46,2296.64 c 0,0 893.01,-121.42 1019.17,-206.8 126.15,-85.38 -66.44,-256.47 -144.29,-243.08 -47.89,8.26 -371.29,3.99 -613.18,-0.5 -147.92,-2.76 -268.38,117.99 -265.41,265.9 l 3.71,184.48" /><path
         id="path60"
         style="fill:none;stroke:#381905;stroke-width:29.64349937;stroke-linecap:round;stroke-linejoin:miter;stroke-miterlimit:10;stroke-dasharray:none;stroke-opacity:1"
         d="m 3162.94,946.77 c -5.13,120.21 243.54,253.89 384.17,438.86" /><path
         id="path62"
         style="fill:#ff8b6a;fill-opacity:1;fill-rule:nonzero;stroke:none"
         d="m 3055.81,2059.07 c 43.92,-9.08 349.21,-777.15 425.68,-897.4 62.55,-98.35 79.85,-77.85 79.85,-77.85 0,0 -118.71,-90.082 -131.54,-81.21 -12.83,8.88 -64.87,77.2 -95.7,123.54 -30.83,46.35 -306.46,399.34 -364.99,525.49 -58.54,126.14 -103.51,266.39 -97.11,331.78 5.63,57.49 138.34,134.31 183.81,75.65" /><path
         id="path64"
         style="fill:#ea3e3c;fill-opacity:1;fill-rule:nonzero;stroke:none"
         d="m 3395.71,1011.86 c -4.12,17.12 -6.33,34.87 2.04,34.45 14.01,-0.71 27.78,-6.79 41.91,-8.01 31.81,-2.76 60.91,26.32 74.09,52.92 8.51,17.18 26.79,14.27 42.65,14.32 16.92,0.05 33.85,0.53 50.75,1.12 21.4,0.75 42.79,1.68 64.16,2.87 0,0 31.12,6.01 38.1,2.97 5.22,-2.27 20.12,-21.12 20.15,-23.92 0.04,-2.79 -18.54,-36.77 -48.47,-60.38 -30.46,-24.03 -95.3,-52.509 -124.04,-58.169 -18.53,-3.66 -36.83,-8.582 -55.14,-13.172 -22.16,-5.55 -57.62,-23.507 -78.05,-6.589 -17.31,14.359 -23.14,40.769 -28.15,61.59" /><path
         id="path66"
         style="fill:#ffffff;fill-opacity:1;fill-rule:nonzero;stroke:none"
         d="m 3709.41,1112.5 c 19.2,-2.18 35.77,-23.2 23.79,-43.18 -11.98,-19.98 -93.51,-85.8 -149.65,-101.41 -56.14,-15.609 -161.12,-48.988 -177.18,-14.14 l 0.47,21.019 c 0,0 64.23,-33.078 170.56,15.691 106.33,48.78 143.07,95.07 136.11,99.82 -6.95,4.76 -50.37,-54.3 -94.99,-42.55 -44.62,11.75 -0.36,75.11 90.89,64.75" /><path
         id="path68"
         style="fill:#381905;fill-opacity:1;fill-rule:nonzero;stroke:none"
         d="m 2774.84,2160.73 c 0.45,5.7 -3.36,10.87 -8.95,12.08 -298.13,64.68 -734.1,124.34 -759.88,127.84 l -4.51,0.62 -3.81,-189.02 c -1.46,-72.69 26.02,-141.05 77.37,-192.47 51.31,-51.39 119.81,-79.08 192.18,-77.6 146.2,2.74 311.82,5.2 434.87,5.24 5.03,0 9.44,3.29 10.89,8.11 30.01,99.5 53.53,202.15 61.84,305.2" /><path
         id="path70"
         style="fill:#105f9a;fill-opacity:1;fill-rule:nonzero;stroke:none"
         d="m 2643.36,2183.34 c -92.52,-42.23 -209.49,-86.57 -348.3,-119.39 -130.18,-30.78 -247.41,-43.84 -344.53,-48.4 -36.35,411.16 -191.02,860.7 -227.37,1271.86 -11.35,63.53 202.73,95.4 332.22,118.53 129.48,23.12 246.24,-24.18 280.39,-215.36 102.53,-335.74 205.06,-671.49 307.59,-1007.24" /><path
         id="path72"
         style="fill:#ff8b6a;fill-opacity:1;fill-rule:nonzero;stroke:none"
         d="m 1828.64,3328.21 c 173.68,-52.08 -226.13,-533.54 -279.46,-628.23 -25.21,-44.77 -83.62,-58.97 -126.84,-29.35 -37.48,25.67 -47.37,76.93 -26.19,117.11 53.23,100.97 293.81,582.06 432.49,540.47" /><path
         id="path74"
         style="fill:#105f9a;fill-opacity:1;fill-rule:nonzero;stroke:none"
         d="m 1961.8,3332.15 c -106.61,57.95 -262.91,33.11 -404.46,-232.38 -4.36,-8.19 -3.98,-18.13 1.04,-25.94 15.14,-23.58 41.12,-56.79 82.43,-85.33 41.07,-28.36 81.22,-41.01 109.22,-46.93 11.08,-2.33 22.37,2.71 27.95,12.57 64.6,114.2 129.2,228.4 193.8,342.59 7.09,12.52 2.65,28.55 -9.98,35.42" /><path
         id="path76"
         style="fill:#ff8b6a;fill-opacity:1;fill-rule:nonzero;stroke:none"
         d="m 1858.86,3303.13 c 5.29,-19.68 104.56,-134.69 156.66,-120.69 52.11,13.99 37.31,151.7 32.03,171.37 -5.29,19.67 -51.81,24.27 -103.91,10.27 -52.11,-13.99 -90.06,-41.29 -84.78,-60.95" /><path
         id="path78"
         style="fill:#381905;fill-opacity:1;fill-rule:nonzero;stroke:none"
         d="m 2011.75,3818.61 c 48.24,18.53 103.8,-9.72 112.92,-60.59 2.32,-12.95 1.01,-25.41 -6.54,-35.74 -30.22,-41.34 -189.97,59.43 -173.69,68.68 7.74,4.4 37.85,16.34 67.31,27.65" /><path
         id="path80"
         style="fill:#ff8b6a;fill-opacity:1;fill-rule:nonzero;stroke:none"
         d="m 2002.8,3309.53 -88.52,-24.8 -59.05,210.89 98.18,-9.73 49.39,-176.36" /><path
         id="path82"
         style="fill:#381905;fill-opacity:1;fill-rule:nonzero;stroke:none"
         d="m 1997.02,3330.17 -43.61,155.72 -88.26,5.58 c 26.45,-56.06 77.44,-132.92 131.87,-161.3" /><path
         id="path84"
         style="fill:#ff8b6a;fill-opacity:1;fill-rule:nonzero;stroke:none"
         d="m 1856.67,3485.13 c 0,0 11.33,-12.5 29.86,-29.59 51.17,-47.19 141.27,-83.06 219.08,-40.7 126.75,69.01 38.81,340.65 -17.88,380.66 -131.29,92.67 -343.95,-48.77 -231.06,-310.37" /><path
         id="path86"
         style="fill:#381905;fill-opacity:1;fill-rule:nonzero;stroke:none"
         d="m 1944.24,3621.96 c -7.21,-6.23 -12.07,-15.1 -13.45,-24.53 -0.38,-2.6 -0.29,-5.73 1.86,-7.25 2.04,-1.44 5.01,-0.6 6.84,1.1 1.83,1.71 2.87,4.06 4.16,6.21 3.3,5.53 8.49,9.92 14.5,12.26 5.87,2.29 26.89,8.62 15.94,18.35 -8.4,7.47 -23.07,-0.28 -29.85,-6.14" /><path
         id="path88"
         style="fill:#381905;fill-opacity:1;fill-rule:nonzero;stroke:none"
         d="m 2125.16,3684.7 c 9.51,-0.54 18.78,-4.61 25.62,-11.23 1.89,-1.84 3.72,-4.37 2.95,-6.89 -0.74,-2.39 -3.61,-3.53 -6.1,-3.3 -2.49,0.23 -4.75,1.47 -7.08,2.39 -5.99,2.37 -12.78,2.68 -18.97,0.87 -6.04,-1.77 -26.56,-9.57 -23.82,4.82 2.1,11.04 18.45,13.84 27.4,13.34" /><path
         id="path90"
         style="fill:#381905;fill-opacity:1;fill-rule:nonzero;stroke:none"
         d="m 2035.72,3496.83 c 2.09,-7.76 24.63,-18.61 47.2,-12.55 22.58,6.07 36.64,26.75 34.56,34.52 -2.09,7.76 -19.23,-1.47 -41.8,-7.53 -22.58,-6.07 -42.04,-6.67 -39.96,-14.44" /><path
         id="path92"
         style="fill:#ffffff;fill-opacity:1;fill-rule:nonzero;stroke:none"
         d="m 2057.33,3504.1 c 0.69,-2.59 13.31,-4.6 27.2,-0.86 13.89,3.73 23.81,11.78 23.11,14.38 -0.7,2.6 -10.67,-2.87 -24.57,-6.6 -13.89,-3.73 -26.44,-4.31 -25.74,-6.92" /><path
         id="path94"
         style="fill:#381905;fill-opacity:1;fill-rule:nonzero;stroke:none"
         d="m 1793.82,3527.87 c 53.33,-9.46 68.47,-2.1 72.77,5.96 10.04,18.79 -33.45,51.57 -22.03,74.93 8.6,17.6 37.11,6.79 57.13,25.9 26.89,25.68 -0.75,64.65 15.62,103.45 30.92,73.35 141.43,47.09 144.28,83.3 1.35,17.11 -15.61,36.89 -27.39,42.33 -87.51,40.35 -203.51,40.96 -285.48,-53.04 -18.43,-21.12 -67.9,-77.86 -55.1,-154.61 13.99,-83.83 90.96,-123.63 100.2,-128.22" /><path
         id="path96"
         style="fill:none;stroke:#381905;stroke-width:7.41090012;stroke-linecap:round;stroke-linejoin:round;stroke-miterlimit:10;stroke-dasharray:none;stroke-opacity:1"
         d="m 2073.55,3599.29 c 4.77,-11.4 9.54,-22.8 14.32,-34.2 7.23,2.76 14.47,5.51 21.7,8.27 1.56,-9.74 -2.14,-20.16 -9.49,-26.74 -7.34,-6.58 -18.12,-9.1 -27.62,-6.46" /><path
         id="path98"
         style="fill:#381905;fill-opacity:1;fill-rule:nonzero;stroke:none"
         d="m 2008.33,3561.03 c 2.7,-9.66 0.37,-18.75 -5.21,-20.31 -5.58,-1.56 -12.3,4.99 -15,14.65 -2.7,9.65 -0.37,18.75 5.21,20.31 5.58,1.56 12.29,-5 15,-14.65" /><path
         id="path100"
         style="fill:#381905;fill-opacity:1;fill-rule:nonzero;stroke:none"
         d="m 2140.96,3614.24 c 2.7,-9.65 0.37,-18.75 -5.21,-20.31 -5.58,-1.56 -12.3,5 -15,14.65 -2.7,9.65 -0.37,18.75 5.21,20.31 5.58,1.56 12.3,-5 15,-14.65" /><path
         id="path102"
         style="fill:#ff8b6a;fill-opacity:1;fill-rule:nonzero;stroke:none"
         d="m 1866.59,3533.83 c 15.98,-22.39 15.15,-50.39 -1.86,-62.54 -17.01,-12.15 -43.77,-3.85 -59.76,18.54 -15.98,22.38 -15.15,50.38 1.87,62.54 17.01,12.14 43.76,3.85 59.75,-18.54" /><path
         id="path104"
         style="fill:none;stroke:#381905;stroke-width:7.41090012;stroke-linecap:round;stroke-linejoin:round;stroke-miterlimit:10;stroke-dasharray:none;stroke-opacity:1"
         d="m 1819.87,3535.17 c 19.93,6.65 38.46,-26.79 30.87,-40.81 0,0 -4.35,16.61 -12.94,10.25 -8.58,-6.37 3.6,-12.86 3.6,-12.86" /><path
         id="path106"
         style="fill:none;stroke:#381905;stroke-width:29.64349937;stroke-linecap:round;stroke-linejoin:miter;stroke-miterlimit:10;stroke-dasharray:none;stroke-opacity:1"
         d="m 1864.08,2679.65 c 0,0 210.86,-281.14 103.5,-841.59" /><path
         id="path108"
         style="fill:#ff8b6a;fill-opacity:1;fill-rule:nonzero;stroke:none"
         d="m 2026.32,2637.75 c -19.05,7.99 -364.61,149.67 -532.71,189.36 -46.14,10.89 -92.62,-16.66 -105.23,-62.36 -13.04,-47.25 14.97,-96.07 62.34,-108.66 l 536.79,-114.73 38.81,96.39" /><path
         id="path110"
         style="fill:#ff8b6a;fill-opacity:1;fill-rule:nonzero;stroke:none"
         d="m 2042.24,2503.05 c -15.64,8.85 -30.69,20.19 -42.73,27.34 -27.57,16.38 -51.64,40.27 -40.38,74.82 9.48,29.08 36.17,46.8 63.32,57.62 25.67,10.23 56.92,22.4 85.02,16.95 11.93,-2.31 22.87,-8.06 33.62,-13.74 5.66,-2.99 11.44,-6.08 15.73,-10.82 4.92,-5.44 7.02,-14.94 1.36,-19.59 -5.4,-4.42 -13.34,-1.42 -19.79,1.24 -6.44,2.65 -15.36,4.06 -19.07,-1.83 11.33,-10.24 24.45,-18.45 38.58,-24.21 11.52,-4.69 26.98,-12.07 22.61,-27.76 -3.83,-13.8 -27.33,-14.21 -30.58,-28.16 -1.93,-8.28 3.97,-17.38 0.26,-25.3 -5.17,-11.04 -21.25,-9.74 -30.57,-15.03 -12.43,-7.05 -18.74,-22.88 -34.51,-24.42 -13.51,-1.32 -28.44,4.72 -42.87,12.89" /><path
         id="path112"
         style="fill:none;stroke:#381905;stroke-width:7.41090012;stroke-linecap:round;stroke-linejoin:round;stroke-miterlimit:10;stroke-dasharray:none;stroke-opacity:1"
         d="m 3140.06,1898.81 c -16.02,33.54 -32.38,66.9 -49.33,99.96 -16.89,32.93 -34.52,69.69 -66.1,91.07 -39.76,26.91 -155.64,57.38 -295.75,86.51" /><path
         id="path114"
         style="fill:none;stroke:#381905;stroke-width:7.41090012;stroke-linecap:round;stroke-linejoin:round;stroke-miterlimit:10;stroke-dasharray:none;stroke-opacity:1"
         d="m 2643.35,1851.28 c 118.56,0.62 212.83,-0.36 236.99,-4.52 4.37,-0.75 9.13,-0.88 14.15,-0.52 12.24,-41.59 28.63,-87.18 47.51,-132.82" /><path
         id="path116"
         style="fill:none;stroke:#381905;stroke-width:7.41090012;stroke-linecap:round;stroke-linejoin:round;stroke-miterlimit:10;stroke-dasharray:none;stroke-opacity:1"
         d="m 1774.59,2954.88 c 38.98,51.35 79.35,106.02 87.05,170.03 8.64,71.83 -30,147.08 -93.41,181.91" /><path
         id="path118"
         style="fill:none;stroke:#381905;stroke-width:7.41090012;stroke-linecap:round;stroke-linejoin:round;stroke-miterlimit:10;stroke-dasharray:none;stroke-opacity:1"
         d="m 2277.28,3289.29 206.05,-581.93" /><path
         id="path120"
         style="fill:none;stroke:#381905;stroke-width:29.64349937;stroke-linecap:round;stroke-linejoin:miter;stroke-miterlimit:10;stroke-dasharray:none;stroke-opacity:1"
         d="m 3547.11,1385.63 c 55.23,72.64 93.79,153.18 93.79,243.91 0,321.8 -239.45,549.22 -239.45,549.22" /><path
         id="path122"
         style="fill:none;stroke:#381905;stroke-width:29.64349937;stroke-linecap:round;stroke-linejoin:miter;stroke-miterlimit:10;stroke-dasharray:none;stroke-opacity:1"
         d="m 4008.65,2178.76 c 0,0 -239.44,-227.42 -239.44,-549.22 0,-321.81 485.09,-515.36 477.94,-682.77" /><path
         id="path124"
         style="fill:none;stroke:#381905;stroke-width:26.09869957;stroke-linecap:butt;stroke-linejoin:miter;stroke-miterlimit:10;stroke-dasharray:none;stroke-opacity:1"
         d="m 3812.39,1901.47 c 0,-18.85 -53.67,-34.12 -119.88,-34.12 -66.22,0 -107.96,15.27 -107.96,34.12 0,18.85 41.74,34.13 107.96,34.13 66.21,0 119.88,-15.28 119.88,-34.13 z" /><path
         id="path126"
         style="fill:none;stroke:#381905;stroke-width:29.64349937;stroke-linecap:round;stroke-linejoin:miter;stroke-miterlimit:10;stroke-dasharray:none;stroke-opacity:1"
         d="m 3855.38,2178.76 c 0,0 -85.37,-200.62 -134.75,-240.91 0,0 6.65,-551.76 70.7,-949.28" /><path
         id="path128"
         style="fill:#ff8b6a;fill-opacity:1;fill-rule:nonzero;stroke:none"
         d="m 5314.37,2437.05 c 0,0 -811.96,-204.89 -929.52,-301.76 -117.57,-96.89 24.62,-249.11 100.86,-228.44 46.89,12.72 369.26,38.91 610.51,57.19 147.52,11.18 256.08,142.73 239.2,289.72 l -21.05,183.29" /><path
         id="path130"
         style="fill:#ff8b6a;fill-opacity:1;fill-rule:nonzero;stroke:none"
         d="m 4379.12,1988.43 c -4.52,-44.62 521.35,-529.6 613.1,-638.63 75.05,-89.19 50.31,-99.53 50.31,-99.53 0,0 121.54,86.2 116.93,101.1 -4.62,14.91 -54.17,85.05 -89.12,128.36 -34.96,43.32 -288.97,412.18 -391.73,505.87 -102.76,93.69 -177.49,135.17 -241.79,148.68 -56.52,11.89 -100.02,-84.87 -57.7,-145.85" /><path
         id="path132"
         style="fill:#ea3e3c;fill-opacity:1;fill-rule:nonzero;stroke:none"
         d="m 5151.8,1390.58 c -16.35,6.54 -33.6,11.26 -34.38,2.92 -1.31,-13.97 2.73,-28.47 1.91,-42.62 -1.83,-31.88 -34.78,-56.51 -63,-65.74 -18.22,-5.96 -17.96,-24.47 -20.29,-40.15 -2.48,-16.74 -5.38,-33.42 -8.39,-50.07 -3.81,-21.07 -7.79,-42.1 -12.04,-63.09 0,0 -10.41,-29.93 -8.41,-37.27 1.51,-5.49 18.02,-22.95 20.78,-23.37 2.77,-0.44 39.06,13.07 66.72,39.3 28.15,26.7 65.63,86.78 75.35,114.41 6.28,17.81 13.77,35.22 20.95,52.68 8.67,21.14 31.54,53.66 17.71,76.29 -11.72,19.2 -37.02,28.76 -56.91,36.71" /><path
         id="path134"
         style="fill:#ffffff;fill-opacity:1;fill-rule:nonzero;stroke:none"
         d="m 5007.2,1094.56 c -0.59,-19.32 17.84,-38.73 39.32,-29.74 21.49,9 98.33,80.24 121.84,133.56 23.49,53.32 71.59,152.42 39.4,173.31 l -20.87,2.55 c 0,0 23.54,-68.31 -39.99,-166.54 -63.53,-98.24 -114.62,-127.95 -118.32,-120.39 -3.7,7.57 60.97,42.06 55.74,87.91 -5.22,45.84 -74.27,11.12 -77.12,-80.66" /><path
         id="path136"
         style="fill:#105f9a;fill-opacity:1;fill-rule:nonzero;stroke:none"
         d="m 4979.84,1305.03 c 18.94,4.87 55.62,17.07 90.32,48.75 28.45,25.94 43.47,53.95 51.01,71.01 -15.46,21.5 -32.01,43.42 -45.08,59.6 -8.47,10.51 -30.03,40.46 -59.88,81.91 -71.43,99.22 -189.24,262.85 -273.69,361.78 95.03,8.35 214.12,17.96 354.25,28.57 73.33,5.56 139.53,39.85 186.35,96.55 46.87,56.72 68.06,128.25 59.66,201.4 l -21.97,191.37 -7.94,-1.66 c -143.57,-25.34 -299.38,-59.61 -464.49,-106.1 -130.81,-36.83 -252.32,-77.07 -364.13,-118.48 -27.3,-9.01 -133,-62.32 -144.23,-154.83 0,-80.29 -17,-76.75 93.17,-194.22 71.35,-76.08 141.66,-153.66 220.11,-222.41 80.89,-70.89 193.42,-179.78 326.54,-343.24" /><path
         id="path138"
         style="fill:none;stroke:#381905;stroke-width:29.64349937;stroke-linecap:round;stroke-linejoin:miter;stroke-miterlimit:10;stroke-dasharray:none;stroke-opacity:1"
         d="m 4902.88,1023.93 68.79,889.37 463.54,-25.58 68.8,-872.53" /><path
         id="path140"
         style="fill:none;stroke:#381905;stroke-width:29.64349937;stroke-linecap:round;stroke-linejoin:miter;stroke-miterlimit:10;stroke-dasharray:none;stroke-opacity:1"
         d="M 5717.69,879.832 5511.42,1925.02 5129.5,1837.63 5086.53,870.922" /><path
         id="path142"
         style="fill:#c93c31;fill-opacity:1;fill-rule:nonzero;stroke:none"
         d="m 5635.12,1917.16 h -201.1 c -55.99,6.96 -120.13,10.9 -188.3,10.9 -68.17,0 -132.32,-3.94 -188.29,-10.9 h -212.86 l 5.88,-79.53 c 0,-49.95 176.97,-90.44 395.27,-90.44 218.31,0 395.28,40.49 395.28,90.44 l -5.88,79.53" /><path
         id="path144"
         style="fill:#fe6b5b;fill-opacity:1;fill-rule:nonzero;stroke:none"
         d="m 5635.12,1917.16 c 0,-49.94 -176.97,-90.43 -395.28,-90.43 -218.3,0 -395.27,40.49 -395.27,90.43 0,49.95 176.97,90.43 395.27,90.43 218.31,0 395.28,-40.48 395.28,-90.43" /><path
         id="path146"
         style="fill:#ff8b6a;fill-opacity:1;fill-rule:nonzero;stroke:none"
         d="m 5160.21,3422.41 c -69.77,167.35 -532.77,-281.48 -621.43,-344.33 -41.92,-29.71 -50,-89.27 -16.07,-129.2 29.42,-34.61 81.42,-39.14 119.2,-13.92 94.91,63.39 574.02,353.82 518.3,487.45" /><path
         id="path148"
         style="fill:#ff8b6a;fill-opacity:1;fill-rule:nonzero;stroke:none"
         d="m 5500.25,2359.59 c 0,0 -893.02,-121.41 -1019.17,-206.79 -126.16,-85.39 66.44,-256.48 144.29,-243.08 47.88,8.25 371.29,3.99 613.17,-0.51 147.92,-2.76 268.39,118 265.41,265.91 l -3.7,184.47" /><path
         id="path150"
         style="fill:#ff8b6a;fill-opacity:1;fill-rule:nonzero;stroke:none"
         d="m 4413.42,2073.43 c -25.95,-36.58 274.06,-806.72 300.04,-946.84 21.25,-114.6 -5.38,-111.39 -5.38,-111.39 0,0 148.26,14.98 151.6,30.22 3.34,15.24 -5.12,100.7 -14.15,155.62 -9.02,54.93 -47.87,501.11 -90.99,633.31 -43.14,132.21 -105.8,265.5 -155.05,309 -43.29,38.23 -192.77,4 -186.07,-69.92" /><path
         id="path152"
         style="fill:#ea3e3c;fill-opacity:1;fill-rule:nonzero;stroke:none"
         d="m 4878.34,1075.42 c -8.66,15.34 -19.13,29.83 -24.97,23.81 -9.78,-10.06 -15.72,-23.9 -25.22,-34.42 -21.4,-23.69 -62.51,-22.24 -90.28,-11.76 -17.94,6.77 -29.34,-7.81 -40.98,-18.59 -12.42,-11.49 -25.13,-22.67 -37.9,-33.76 -16.16,-14.028 -32.45,-27.93 -48.92,-41.622 0,0 -26.86,-16.816 -29.9,-23.789 -2.26,-5.219 -0.33,-29.168 1.55,-31.238 1.89,-2.071 38.64,-14.27 76.64,-11.153 38.66,3.161 105.51,26.512 130.41,41.954 16.04,9.949 32.8,18.828 49.32,27.937 20.01,11.031 58.2,22.063 61.6,48.371 2.9,22.3 -10.84,45.6 -21.35,64.26" /><path
         id="path154"
         style="fill:#ffffff;fill-opacity:1;fill-rule:nonzero;stroke:none"
         d="m 4580.17,935.289 c -12.57,-14.68 -10.37,-41.359 12.02,-47.809 22.39,-6.46 126.91,0.918 178.63,27.758 51.72,26.844 151.3,73.961 139.29,110.402 l -14.65,15.06 c 0,0 -24.46,-67.981 -135.52,-104.751 -111.07,-36.758 -169.49,-27.918 -167.65,-19.699 1.86,8.211 73.88,-5.41 98.53,33.59 24.65,39 -50.92,55.21 -110.65,-14.551" /><path
         id="path156"
         style="fill:#105f9a;fill-opacity:1;fill-rule:nonzero;stroke:none"
         d="m 5507.49,2368.05 -8.24,-1.12 c -36.53,-4.96 -896.18,-122.63 -1022.31,-207.99 -4.04,-2.73 -7.96,-5.73 -11.94,-9.17 -39.52,-17.64 -60.94,-44.94 -59.09,-75.24 33.47,-168.65 70.3,-341.14 110.83,-517.17 31.51,-136.77 64.08,-270.6 97.5,-401.44 44.1,2.51 99.56,10.4 160.49,31.09 28.36,9.63 53.67,20.59 75.86,31.71 -2.27,18.47 -5.44,47.7 -9.4,84.31 -16.37,151.4 -46.86,433.22 -79.61,533.62 -7.53,23.05 -15.81,46.59 -24.7,70.08 129.84,1.17 343.22,-1.99 501.51,-4.94 73.9,-0.95 142.65,26.55 194.62,78.59 52.02,52.08 79.84,121.29 78.35,194.89 l -3.87,192.78" /><path
         id="path158"
         style="fill:none;stroke:#381905;stroke-width:7.41090012;stroke-linecap:round;stroke-linejoin:round;stroke-miterlimit:10;stroke-dasharray:none;stroke-opacity:1"
         d="m 4679.31,2209.64 c -133.71,-25.38 -325.22,-16.78 -185.5,-433.4" /><path
         id="path160"
         style="fill:#fdad34;fill-opacity:1;fill-rule:nonzero;stroke:none"
         d="m 4858.93,2175.77 c 99.85,-19.32 223.96,-34.95 366.59,-34.25 133.77,0.65 250.78,15.5 346.25,33.88 -61.22,408.19 -122.45,816.38 -183.68,1224.57 -3.88,64.43 -113.47,110.22 -244.77,102.29 -131.29,-7.93 -233.68,-81.34 -221.98,-275.18 -20.8,-350.44 -41.61,-700.87 -62.41,-1051.31" /><path
         id="path162"
         style="fill:#ff8b6a;fill-opacity:1;fill-rule:nonzero;stroke:none"
         d="m 5216.08,3461.66 c 2.9,-20.16 -42.97,-165 -96.37,-172.68 -53.41,-7.69 -94.11,124.69 -97.01,144.85 -2.9,20.16 38.04,42.73 91.44,50.41 53.4,7.69 99.04,-2.42 101.94,-22.58" /><path
         id="path164"
         style="fill:#ff8b6a;fill-opacity:1;fill-rule:nonzero;stroke:none"
         d="m 5360.16,3424.63 c -178.92,29.42 -30.96,-578.65 -24.6,-687.15 3.01,-51.29 49.26,-89.68 101.1,-82.03 44.94,6.62 76.31,48.34 74.92,93.74 -3.51,114.08 -8.57,651.95 -151.42,675.44" /><path
         id="path166"
         style="fill:#381905;fill-opacity:1;fill-rule:nonzero;stroke:none"
         d="m 4803.71,3872 c -1.01,-4.49 -35.23,-101.32 8.84,-127.39 44.06,-26.07 151.14,129.53 132.52,131.61 -18.61,2.08 -141.36,-4.22 -141.36,-4.22" /><path
         id="path168"
         style="fill:#ff8b6a;fill-opacity:1;fill-rule:nonzero;stroke:none"
         d="m 5081.28,3410.78 91.13,12.12 -28.89,217.09 -86.39,-47.66 24.15,-181.55" /><path
         id="path170"
         style="fill:#381905;fill-opacity:1;fill-rule:nonzero;stroke:none"
         d="m 5078.45,3432.03 -21.32,160.3 78.91,39.93 c -2.21,-61.95 -18.76,-152.69 -57.59,-200.23" /><path
         id="path172"
         style="fill:#ff8b6a;fill-opacity:1;fill-rule:nonzero;stroke:none"
         d="m 5146.33,3629.78 c 0,0 -5.49,-15.96 -15.78,-38.96 -28.41,-63.55 -97.07,-132.04 -185.27,-123.8 -143.7,13.43 -169.99,297.74 -133.67,356.87 84.1,136.93 335.3,90.8 334.72,-194.11" /><path
         id="path174"
         style="fill:#381905;fill-opacity:1;fill-rule:nonzero;stroke:none"
         d="m 4977.16,3569.93 c 1.15,-7.96 -15.28,-26.82 -38.41,-30.15 -23.15,-3.33 -44.22,10.13 -45.37,18.09 -1.15,7.96 18.25,6.24 41.38,9.57 23.14,3.33 41.26,10.45 42.4,2.49" /><path
         id="path176"
         style="fill:#ffffff;fill-opacity:1;fill-rule:nonzero;stroke:none"
         d="m 4954.45,3568.09 c 0.38,-2.66 -10.42,-9.47 -24.66,-11.52 -14.24,-2.05 -26.52,1.43 -26.9,4.1 -0.38,2.67 10.93,1.57 25.17,3.62 14.24,2.05 26.01,6.46 26.39,3.8" /><path
         id="path178"
         style="fill:#381905;fill-opacity:1;fill-rule:nonzero;stroke:none"
         d="m 5187.23,3693.84 c -45.28,-29.73 -62.1,-28.93 -69.23,-23.22 -16.63,13.32 10.41,60.58 -9.29,77.55 -14.85,12.78 -36.78,-8.4 -62.73,1.28 -34.82,12.98 -24.79,59.7 -55.13,88.9 -57.35,55.21 -148.55,-12.5 -165.44,19.65 -7.99,15.2 -0.21,40.06 8.47,49.7 64.51,71.59 170.87,117.9 283.27,63.84 25.27,-12.15 93.1,-44.78 111.6,-120.36 20.2,-82.56 -34.84,-149.47 -41.52,-157.34" /><path
         id="path180"
         style="fill:#ea3e3c;fill-opacity:1;fill-rule:nonzero;stroke:none"
         d="m 5097.56,3806.53 c -44.29,-42.49 -88.6,-84.98 -132.9,-127.46 -9,-8.63 -19.19,-17.79 -31.65,-18.26 -12.57,-0.47 -23.44,8.03 -33.65,15.39 -34.72,25.02 -93.64,55.86 -137.74,49.17 -13.87,-2.11 -27.18,-7.54 -38.66,-15.55 -4.99,-3.49 -17.68,-20.32 -25.12,-14.12 -7.95,6.61 9.87,25.53 15.24,29.46 23.11,16.9 46.21,33.8 69.31,50.7" /><path
         id="path182"
         style="fill:#ea3e3c;fill-opacity:1;fill-rule:nonzero;stroke:none"
         d="m 4779.23,3775.8 c 78.63,-40.86 301.56,-4.77 451.57,65.48 0,0 -17.99,222.38 -302.13,165.83 -192.08,-38.24 -149.44,-231.31 -149.44,-231.31" /><path
         id="path184"
         style="fill:none;stroke:#381905;stroke-width:7.41090012;stroke-linecap:round;stroke-linejoin:round;stroke-miterlimit:10;stroke-dasharray:none;stroke-opacity:1"
         d="m 4902.01,3649.16 c 0.11,-12.35 0.21,-24.71 0.32,-37.06 -7.73,-0.33 -15.47,-0.65 -23.2,-0.97 2.4,-9.56 9.91,-17.69 19.26,-20.83 9.35,-3.14 20.24,-1.22 27.93,4.96" /><path
         id="path186"
         style="fill:none;stroke:#381905;stroke-width:7.41090012;stroke-linecap:round;stroke-linejoin:round;stroke-miterlimit:10;stroke-dasharray:none;stroke-opacity:1"
         d="m 4796.94,3781.53 c 0,0 286.6,-17.2 427.11,70.73" /><path
         id="path188"
         style="fill:none;stroke:#381905;stroke-width:7.41090012;stroke-linecap:round;stroke-linejoin:round;stroke-miterlimit:10;stroke-dasharray:none;stroke-opacity:1"
         d="m 5002.99,4004.24 c 4.09,-0.96 122.61,-1.78 173.27,-172.93" /><path
         id="path190"
         style="fill:none;stroke:#381905;stroke-width:7.41090012;stroke-linecap:round;stroke-linejoin:round;stroke-miterlimit:10;stroke-dasharray:none;stroke-opacity:1"
         d="m 4987.43,3998.5 c 0,0 55.92,-81.44 51.16,-205.59" /><path
         id="path192"
         style="fill:#381905;fill-opacity:1;fill-rule:nonzero;stroke:none"
         d="m 4970.67,3865.85 c 3.97,-23.71 -23.15,-48.02 -60.6,-54.3 -37.44,-6.27 -71.01,7.86 -74.99,31.57 -3.97,23.71 23.16,48.02 60.6,54.3 37.44,6.27 71.02,-7.86 74.99,-31.57" /><path
         id="path194"
         style="fill:#ffffff;fill-opacity:1;fill-rule:nonzero;stroke:none"
         d="m 4820.72,3855.02 c 9.07,6.13 22.68,4.14 29.61,-4.33 1.7,-2.07 3.14,-4.55 5.58,-5.64 4.49,-2.01 9.56,1.87 11.77,6.25 2.22,4.39 2.94,9.52 5.85,13.48 2.02,2.76 7.16,5.62 10.56,3.59 4.08,-2.43 1.51,-8.62 6.07,-11.89 2.95,-2.12 7.15,-2.34 10.31,-0.54 4.02,2.28 5.81,7.02 7.58,11.29 1.78,4.27 4.37,8.87 8.85,10.01 3.74,0.96 7.61,-0.83 10.88,-2.88 3.28,-2.05 6.53,-4.48 10.36,-4.96 6.12,-0.78 8.27,4.48 10.7,8.91 2.95,5.37 5.83,11.18 11.02,14.46 8.93,5.64 33.03,-0.79 30.25,-14.39 -1.47,-7.27 -11.35,-11.23 -17.45,-7 -1.37,0.95 -2.59,2.24 -4.19,2.71 -3,0.89 -6.09,-1.47 -7.49,-4.26 -1.39,-2.79 -1.68,-6 -2.67,-8.96 -2.65,-7.8 -10.82,-13.36 -19.06,-12.95 -5.57,0.28 -11.26,2.98 -16.53,1.13 -7.62,-2.67 -10.76,-13.67 -18.79,-14.42 -5.22,-0.48 -9.61,3.8 -14.67,5.2 -12.11,3.32 -14.1,-11.55 -24.4,-11.16 -8.61,0.33 -12.08,14.06 -20.7,14.03 -11.69,-0.04 -12.41,-22.19 -25.96,-18.14 -13.61,4.06 -5.46,25.06 2.52,30.46" /><path
         id="path196"
         style="fill:#381905;fill-opacity:1;fill-rule:nonzero;stroke:none"
         d="m 4984.55,4030.52 c -19.85,-1.93 -34.87,-30.73 -25.83,-35.75 9.04,-5.02 52.02,-3.25 55.11,8.27 3.11,11.52 -11.12,29.26 -29.28,27.48" /><path
         id="path198"
         style="fill:#381905;fill-opacity:1;fill-rule:nonzero;stroke:none"
         d="m 4977.04,3639.73 c 1.32,-9.94 7.04,-17.38 12.79,-16.61 5.74,0.76 9.33,9.44 8.01,19.37 -1.33,9.94 -7.05,17.38 -12.8,16.61 -5.75,-0.76 -9.33,-9.44 -8,-19.37" /><path
         id="path200"
         style="fill:#381905;fill-opacity:1;fill-rule:nonzero;stroke:none"
         d="m 4834.17,3636.33 c 1.31,-9.94 7.05,-17.38 12.79,-16.62 5.74,0.77 9.33,9.44 8.01,19.38 -1.33,9.94 -7.05,17.38 -12.81,16.61 -5.74,-0.76 -9.32,-9.44 -7.99,-19.37" /><path
         id="path202"
         style="fill:#ff8b6a;fill-opacity:1;fill-rule:nonzero;stroke:none"
         d="m 5118,3670.62 c -5.86,-26.88 5.95,-52.28 26.38,-56.74 20.43,-4.45 41.74,13.72 47.6,40.6 5.87,26.88 -5.94,52.28 -26.37,56.74 -20.43,4.45 -41.74,-13.72 -47.61,-40.6" /><path
         id="path204"
         style="fill:none;stroke:#381905;stroke-width:7.41090012;stroke-linecap:round;stroke-linejoin:round;stroke-miterlimit:10;stroke-dasharray:none;stroke-opacity:1"
         d="m 5160.42,3690.28 c -20.94,-1.75 -24.79,-39.79 -12.28,-49.68 0,0 -2.55,16.98 7.84,14.52 10.4,-2.47 1.77,-13.24 1.77,-13.24" /><path
         id="path206"
         style="fill:#381905;fill-opacity:1;fill-rule:nonzero;stroke:none"
         d="m 4857.86,3709.14 c 1.66,-3.31 -10.78,-14.75 -28.7,-23.74 -17.91,-8.99 -34.52,-12.13 -36.19,-8.82 -1.67,3.32 9.23,17.85 27.14,26.84 17.92,8.99 36.09,9.04 37.75,5.72" /><path
         id="path208"
         style="fill:#381905;fill-opacity:1;fill-rule:nonzero;stroke:none"
         d="m 4967.43,3705.29 c -0.74,-3.64 14.26,-11.42 33.9,-15.42 19.65,-3.98 36.5,-2.68 37.24,0.96 0.73,3.63 -13.57,14.82 -33.22,18.81 -19.65,3.99 -37.18,-0.71 -37.92,-4.35" /><path
         id="path210"
         style="fill:none;stroke:#381905;stroke-width:7.41090012;stroke-linecap:round;stroke-linejoin:round;stroke-miterlimit:10;stroke-dasharray:none;stroke-opacity:1"
         d="m 4847.97,1234.57 c -43.03,540.05 -111.09,672.16 -111.09,672.16 l 449.15,-5.26" /><path
         id="path212"
         style="fill:#fdad34;fill-opacity:1;fill-rule:nonzero;stroke:none"
         d="m 5242.23,3486.6 c 121.22,5.29 250.77,-85.62 261.45,-386.3 0.33,-9.27 -4.38,-18.03 -12.32,-22.85 -23.95,-14.55 -61.87,-32.99 -111.51,-40.5 -49.35,-7.46 -90.99,-1.21 -118.74,5.77 -10.99,2.76 -18.91,12.25 -19.6,23.55 -7.93,130.97 -15.86,261.93 -23.79,392.9 -0.88,14.36 10.14,26.81 24.51,27.43" /><path
         id="path214"
         style="fill:#fdad34;fill-opacity:1;fill-rule:nonzero;stroke:none"
         d="m 5006.21,3458.52 -317.46,-229.55 c -10.25,-7.41 -15.19,-20.25 -12.22,-32.53 5.72,-23.7 16.61,-55.2 38.08,-87.8 21.61,-32.83 46.49,-55.46 66.32,-70.23 10.96,-8.16 25.85,-8.42 37.01,-0.56 60.05,42.32 120.11,84.64 180.17,126.97 l 8.1,293.7" /><path
         id="path216"
         style="fill:none;stroke:#381905;stroke-width:7.41090012;stroke-linecap:round;stroke-linejoin:round;stroke-miterlimit:10;stroke-dasharray:none;stroke-opacity:1"
         d="m 5245.72,3352.96 c 0.43,-7.05 34.65,-287.9 34.65,-287.9" /><path
         id="path218"
         style="fill:none;stroke:#381905;stroke-width:29.64349937;stroke-linecap:round;stroke-linejoin:miter;stroke-miterlimit:10;stroke-dasharray:none;stroke-opacity:1"
         d="m 3584.55,2140.64 c 0,0 74,-190.9 107.96,-273.29" /><path
         id="path220"
         style="fill:#c93c31;fill-opacity:1;fill-rule:nonzero;stroke:none"
         d="m 2368.04,2481.58 v -58.29 c 0,-165.33 608.56,-299.36 1359.25,-299.36 750.68,0 1359.24,134.03 1359.24,299.36 v 58.29 H 2368.04" /><path
         id="path222"
         style="fill:#fe6b5b;fill-opacity:1;fill-rule:nonzero;stroke:none"
         d="m 5086.53,2481.58 c 0,-165.32 -608.56,-299.36 -1359.25,-299.36 -750.68,0 -1359.24,134.04 -1359.24,299.36 0,165.33 608.56,299.35 1359.24,299.35 750.69,0 1359.25,-134.02 1359.25,-299.35" /><path
         id="path224"
         style="fill:#9cd2ff;fill-opacity:1;fill-rule:nonzero;stroke:none"
         d="m 3119.36,2334.79 175.6,478.27 h 865.17 l 136.95,-478.27 H 3119.36" /><path
         id="path226"
         style="fill:#fffffa;fill-opacity:1;fill-rule:nonzero;stroke:none"
         d="M 4278.12,2343.83 H 3139.05 l 166.23,464.31 h 844.14 l 128.7,-464.31" /><path
         id="path228"
         style="fill:#9cd2ff;fill-opacity:1;fill-rule:nonzero;stroke:none"
         d="m 3196.93,2370.44 139.77,422.7 h 780.08 l 105.61,-422.7 H 3196.93" /><path
         id="path230"
         style="fill:#fffffa;fill-opacity:1;fill-rule:nonzero;stroke:none"
         d="m 3677.36,2755.86 c -0.54,-7.21 -14.85,-13.12 -31.95,-13.12 -17.1,0 -30.26,5.91 -29.4,13.12 0.85,7.14 15.14,12.88 31.93,12.88 16.78,0 29.96,-5.74 29.42,-12.88" /><path
         id="path232"
         style="fill:#fffffa;fill-opacity:1;fill-rule:nonzero;stroke:none"
         d="m 3755.91,2755.86 c -0.13,-7.21 -14.1,-13.12 -31.21,-13.12 -17.1,0 -30.59,5.91 -30.14,13.12 0.45,7.14 14.41,12.88 31.2,12.88 16.78,0 30.28,-5.74 30.15,-12.88" /><path
         id="path234"
         style="fill:#fffffa;fill-opacity:1;fill-rule:nonzero;stroke:none"
         d="m 3834.46,2755.86 c 0.28,-7.21 -13.36,-13.12 -30.46,-13.12 -17.11,0 -30.94,5.91 -30.9,13.12 0.05,7.14 13.68,12.88 30.47,12.88 16.79,0 30.62,-5.74 30.89,-12.88" /><path
         id="path236"
         style="fill:#fffffa;fill-opacity:1;fill-rule:nonzero;stroke:none"
         d="m 3674.84,2722.32 c -0.56,-7.57 -15.23,-13.77 -32.75,-13.77 -17.53,0 -30.99,6.2 -30.09,13.77 0.9,7.49 15.55,13.51 32.74,13.51 17.19,0 30.67,-6.02 30.1,-13.51" /><path
         id="path238"
         style="fill:#fffffa;fill-opacity:1;fill-rule:nonzero;stroke:none"
         d="m 3755.3,2722.32 c -0.14,-7.57 -14.45,-13.77 -31.98,-13.77 -17.52,0 -31.34,6.2 -30.86,13.77 0.47,7.49 14.78,13.51 31.97,13.51 17.18,0 31.01,-6.02 30.87,-13.51" /><path
         id="path240"
         style="fill:#48c6d5;fill-opacity:1;fill-rule:nonzero;stroke:none"
         d="m 3723.52,2713.5 c -11.21,0 -20.12,3.97 -19.85,8.82 0.27,4.82 9.49,8.72 20.56,8.72 11.07,0 19.98,-3.9 19.85,-8.72 -0.12,-4.85 -9.35,-8.82 -20.56,-8.82" /><path
         id="path242"
         style="fill:#fffffa;fill-opacity:1;fill-rule:nonzero;stroke:none"
         d="m 3835.76,2722.32 c 0.29,-7.57 -13.67,-13.77 -31.2,-13.77 -17.52,0 -31.69,6.2 -31.64,13.77 0.04,7.49 14,13.51 31.19,13.51 17.19,0 31.36,-6.02 31.65,-13.51" /><path
         id="path244"
         style="fill:#fffffa;fill-opacity:1;fill-rule:nonzero;stroke:none"
         d="m 3672.2,2687.11 c -0.59,-7.95 -15.65,-14.46 -33.61,-14.46 -17.96,0 -31.75,6.51 -30.8,14.46 0.95,7.87 15.98,14.19 33.59,14.19 17.61,0 31.41,-6.32 30.82,-14.19" /><path
         id="path246"
         style="fill:#fffffa;fill-opacity:1;fill-rule:nonzero;stroke:none"
         d="m 3754.66,2687.11 c -0.14,-7.95 -14.82,-14.46 -32.79,-14.46 -17.96,0 -32.12,6.51 -31.61,14.46 0.48,7.87 15.16,14.19 32.77,14.19 17.61,0 31.77,-6.32 31.63,-14.19" /><path
         id="path248"
         style="fill:#48c6d5;fill-opacity:1;fill-rule:nonzero;stroke:none"
         d="m 3722.08,2677.84 c -11.49,0 -20.61,4.18 -20.34,9.27 0.28,5.06 9.74,9.16 21.09,9.16 11.34,0 20.47,-4.1 20.34,-9.16 -0.14,-5.09 -9.6,-9.27 -21.09,-9.27" /><path
         id="path250"
         style="fill:#fffffa;fill-opacity:1;fill-rule:nonzero;stroke:none"
         d="m 3837.12,2687.11 c 0.31,-7.95 -14.01,-14.46 -31.97,-14.46 -17.96,0 -32.49,6.51 -32.44,14.46 0.05,7.87 14.36,14.19 31.97,14.19 17.61,0 32.13,-6.32 32.44,-14.19" /><path
         id="path252"
         style="fill:#fffffa;fill-opacity:1;fill-rule:nonzero;stroke:none"
         d="m 3669.43,2650.11 c -0.63,-8.37 -16.08,-15.22 -34.51,-15.22 -18.43,0 -32.55,6.85 -31.55,15.22 0.99,8.27 16.42,14.91 34.48,14.91 18.05,0 32.2,-6.64 31.58,-14.91" /><path
         id="path254"
         style="fill:#fffffa;fill-opacity:1;fill-rule:nonzero;stroke:none"
         d="m 3753.99,2650.11 c -0.16,-8.37 -15.22,-15.22 -33.64,-15.22 -18.43,0 -32.94,6.85 -32.41,15.22 0.51,8.27 15.57,14.91 33.62,14.91 18.06,0 32.58,-6.64 32.43,-14.91" /><path
         id="path256"
         style="fill:#48c6d5;fill-opacity:1;fill-rule:nonzero;stroke:none"
         d="m 3720.57,2640.36 c -11.79,0 -21.14,4.39 -20.85,9.75 0.3,5.32 9.99,9.62 21.63,9.62 11.63,0 20.99,-4.3 20.85,-9.62 -0.14,-5.36 -9.85,-9.75 -21.63,-9.75" /><path
         id="path258"
         style="fill:#fffffa;fill-opacity:1;fill-rule:nonzero;stroke:none"
         d="m 3753.27,2610.51 c -0.16,-8.82 -15.64,-16.04 -34.56,-16.04 -18.92,0 -33.81,7.22 -33.25,16.04 0.54,8.72 16,15.71 34.54,15.71 18.53,0 33.42,-6.99 33.27,-15.71" /><path
         id="path260"
         style="fill:#fffffa;fill-opacity:1;fill-rule:nonzero;stroke:none"
         d="m 3838.55,2650.11 c 0.32,-8.37 -14.35,-15.22 -32.77,-15.22 -18.43,0 -33.33,6.85 -33.28,15.22 0.05,8.27 14.72,14.91 32.78,14.91 18.06,0 32.95,-6.64 33.27,-14.91" /><path
         id="path262"
         style="fill:#fffffa;fill-opacity:1;fill-rule:nonzero;stroke:none"
         d="m 4057.96,2634.89 c -18.42,0 -34.48,6.85 -35.83,15.22 -1.34,8.27 12.22,14.91 30.28,14.91 18.06,0 34.06,-6.64 35.77,-14.91 1.73,-8.37 -11.8,-15.22 -30.22,-15.22" /><path
         id="path264"
         style="fill:#fffffa;fill-opacity:1;fill-rule:nonzero;stroke:none"
         d="m 4065.41,2594.47 c -18.92,0 -35.43,7.22 -36.86,16.04 -1.41,8.72 12.47,15.71 31.01,15.71 18.53,0 35,-6.99 36.79,-15.71 1.83,-8.82 -12.02,-16.04 -30.94,-16.04" /><path
         id="path266"
         style="fill:#fffffa;fill-opacity:1;fill-rule:nonzero;stroke:none"
         d="m 4073.28,2551.81 c -19.46,0 -36.46,7.63 -37.96,16.94 -1.5,9.2 12.74,16.58 31.78,16.58 19.03,0 35.98,-7.38 37.89,-16.58 1.92,-9.31 -12.27,-16.94 -31.71,-16.94" /><path
         id="path268"
         style="fill:#fffffa;fill-opacity:1;fill-rule:nonzero;stroke:none"
         d="m 3973.9,2634.89 c -18.43,0 -34.1,6.85 -34.99,15.22 -0.87,8.27 13.06,14.91 31.12,14.91 18.05,0 33.7,-6.64 34.94,-14.91 1.26,-8.37 -12.65,-15.22 -31.07,-15.22" /><path
         id="path270"
         style="fill:#fffffa;fill-opacity:1;fill-rule:nonzero;stroke:none"
         d="m 3979.09,2594.47 c -18.93,0 -35.03,7.22 -35.97,16.04 -0.93,8.72 13.36,15.71 31.89,15.71 18.53,0 34.61,-6.99 35.92,-15.71 1.33,-8.82 -12.93,-16.04 -31.84,-16.04" /><path
         id="path272"
         style="fill:#ea3e3c;fill-opacity:1;fill-rule:nonzero;stroke:none"
         d="m 3955.22,2610.51 c -0.63,5.61 8.57,10.14 20.5,10.14 11.94,0 22.31,-4.53 23.11,-10.14 0.81,-5.64 -8.38,-10.27 -20.48,-10.27 -12.1,0 -22.48,4.63 -23.13,10.27" /><path
         id="path274"
         style="fill:#fffffa;fill-opacity:1;fill-rule:nonzero;stroke:none"
         d="m 3984.57,2551.81 c -19.46,0 -36.03,7.63 -37.02,16.94 -0.97,9.2 13.68,16.58 32.71,16.58 19.03,0 35.58,-7.38 36.96,-16.58 1.4,-9.31 -13.21,-16.94 -32.65,-16.94" /><path
         id="path276"
         style="fill:#fffffa;fill-opacity:1;fill-rule:nonzero;stroke:none"
         d="m 3889.84,2634.89 c -18.43,0 -33.71,6.85 -34.13,15.22 -0.42,8.27 13.89,14.91 31.94,14.91 18.06,0 33.32,-6.64 34.1,-14.91 0.8,-8.37 -13.49,-15.22 -31.91,-15.22" /><path
         id="path278"
         style="fill:#fffffa;fill-opacity:1;fill-rule:nonzero;stroke:none"
         d="m 3892.76,2594.47 c -18.92,0 -34.62,7.22 -35.07,16.04 -0.43,8.72 14.24,15.71 32.78,15.71 18.52,0 34.21,-6.99 35.03,-15.71 0.84,-8.82 -13.81,-16.04 -32.74,-16.04" /><path
         id="path280"
         style="fill:#ea3e3c;fill-opacity:1;fill-rule:nonzero;stroke:none"
         d="m 3869.8,2610.51 c -0.33,5.61 9.12,10.14 21.07,10.14 11.94,0 22.05,-4.53 22.53,-10.14 0.49,-5.64 -8.95,-10.27 -21.05,-10.27 -12.11,0 -22.23,4.63 -22.55,10.27" /><path
         id="path282"
         style="fill:#fffffa;fill-opacity:1;fill-rule:nonzero;stroke:none"
         d="m 3895.86,2551.81 c -19.46,0 -35.6,7.63 -36.07,16.94 -0.46,9.2 14.6,16.58 33.63,16.58 19.04,0 35.17,-7.38 36.04,-16.58 0.88,-9.31 -14.16,-16.94 -33.6,-16.94" /><path
         id="path284"
         style="fill:#fffffa;fill-opacity:1;fill-rule:nonzero;stroke:none"
         d="m 3806.44,2594.47 c -18.92,0 -34.22,7.22 -34.17,16.04 0.05,8.72 15.11,15.71 33.64,15.71 18.54,0 33.83,-6.99 34.17,-15.71 0.35,-8.82 -14.72,-16.04 -33.64,-16.04" /><path
         id="path286"
         style="fill:#ea3e3c;fill-opacity:1;fill-rule:nonzero;stroke:none"
         d="m 3784.37,2610.51 c -0.01,5.61 9.7,10.14 21.64,10.14 11.94,0 21.8,-4.53 21.96,-10.14 0.18,-5.64 -9.53,-10.27 -21.63,-10.27 -12.1,0 -21.96,4.63 -21.97,10.27" /><path
         id="path288"
         style="fill:#fffffa;fill-opacity:1;fill-rule:nonzero;stroke:none"
         d="m 3807.14,2551.81 c -19.45,0 -35.16,7.63 -35.11,16.94 0.06,9.2 15.52,16.58 34.56,16.58 19.03,0 34.74,-7.38 35.11,-16.58 0.36,-9.31 -15.11,-16.94 -34.56,-16.94" /><path
         id="path290"
         style="fill:#fffffa;fill-opacity:1;fill-rule:nonzero;stroke:none"
         d="m 3771.24,2430.97 c 0.06,10.88 16.88,19.6 37.56,19.6 20.7,0 37.8,-8.72 38.22,-19.6 0.43,-11.02 -16.39,-20.06 -37.56,-20.06 -21.17,0 -38.29,9.04 -38.22,20.06" /><path
         id="path292"
         style="fill:#fffffa;fill-opacity:1;fill-rule:nonzero;stroke:none"
         d="m 3674.21,2430.97 c 0.68,10.88 18,19.6 38.69,19.6 20.69,0 37.3,-8.72 37.1,-19.6 -0.2,-11.02 -17.53,-20.06 -38.7,-20.06 -21.18,0 -37.78,9.04 -37.09,20.06" /><path
         id="path294"
         style="fill:#fffffa;fill-opacity:1;fill-rule:nonzero;stroke:none"
         d="m 3577.19,2430.97 c 1.3,10.88 19.11,19.6 39.8,19.6 20.68,0 36.8,-8.72 35.98,-19.6 -0.83,-11.02 -18.67,-20.06 -39.84,-20.06 -21.18,0 -37.26,9.04 -35.94,20.06" /><path
         id="path296"
         style="fill:#fffffa;fill-opacity:1;fill-rule:nonzero;stroke:none"
         d="m 3771.51,2479.51 c 0.07,10.27 16.41,18.51 36.51,18.51 20.11,0 36.73,-8.24 37.12,-18.51 0.4,-10.4 -15.93,-18.93 -36.5,-18.93 -20.57,0 -37.19,8.53 -37.13,18.93" /><path
         id="path298"
         style="fill:#fffffa;fill-opacity:1;fill-rule:nonzero;stroke:none"
         d="m 3677.25,2479.51 c 0.65,10.27 17.46,18.51 37.57,18.51 20.1,0 36.25,-8.24 36.06,-18.51 -0.19,-10.4 -17.02,-18.93 -37.58,-18.93 -20.56,0 -36.7,8.53 -36.05,18.93" /><path
         id="path300"
         style="fill:#bba0fd;fill-opacity:1;fill-rule:nonzero;stroke:none"
         d="m 3714.55,2491.46 c 12.96,0 23.36,-5.34 23.19,-11.95 -0.18,-6.66 -11.02,-12.12 -24.16,-12.12 -13.15,0 -23.55,5.46 -23.19,12.12 0.36,6.61 11.2,11.95 24.16,11.95" /><path
         id="path302"
         style="fill:#fffffa;fill-opacity:1;fill-rule:nonzero;stroke:none"
         d="m 3582.99,2479.51 c 1.23,10.27 18.51,18.51 38.61,18.51 20.11,0 35.79,-8.24 35.02,-18.51 -0.78,-10.4 -18.09,-18.93 -38.66,-18.93 -20.57,0 -36.22,8.53 -34.97,18.93" /><path
         id="path304"
         style="fill:#fffffa;fill-opacity:1;fill-rule:nonzero;stroke:none"
         d="m 3771.78,2525.36 c 0.05,9.72 15.95,17.51 35.51,17.51 19.55,0 35.7,-7.79 36.09,-17.51 0.37,-9.83 -15.52,-17.89 -35.51,-17.89 -19.99,0 -36.15,8.06 -36.09,17.89" /><path
         id="path306"
         style="fill:#fffffa;fill-opacity:1;fill-rule:nonzero;stroke:none"
         d="m 3680.12,2525.36 c 0.61,9.72 16.95,17.51 36.51,17.51 19.55,0 35.26,-7.79 35.09,-17.51 -0.19,-9.83 -16.53,-17.89 -36.52,-17.89 -19.99,0 -35.69,8.06 -35.08,17.89" /><path
         id="path308"
         style="fill:#bba0fd;fill-opacity:1;fill-rule:nonzero;stroke:none"
         d="m 3716.38,2536.67 c 12.6,0 22.72,-5.06 22.56,-11.31 -0.16,-6.29 -10.7,-11.46 -23.48,-11.46 -12.79,0 -22.91,5.17 -22.56,11.46 0.34,6.25 10.87,11.31 23.48,11.31" /><path
         id="path310"
         style="fill:#fffffa;fill-opacity:1;fill-rule:nonzero;stroke:none"
         d="m 3588.47,2525.36 c 1.16,9.72 17.94,17.51 37.5,17.51 19.55,0 34.82,-7.79 34.09,-17.51 -0.74,-9.83 -17.55,-17.89 -37.54,-17.89 -19.99,0 -35.23,8.06 -34.05,17.89" /><path
         id="path312"
         style="fill:#fffffa;fill-opacity:1;fill-rule:nonzero;stroke:none"
         d="m 3682.84,2568.75 c 0.58,9.2 16.47,16.58 35.5,16.58 19.04,0 34.33,-7.38 34.17,-16.58 -0.17,-9.31 -16.07,-16.94 -35.52,-16.94 -19.45,0 -34.73,7.63 -34.15,16.94" /><path
         id="path314"
         style="fill:#bba0fd;fill-opacity:1;fill-rule:nonzero;stroke:none"
         d="m 3718.11,2579.45 c 12.26,0 22.12,-4.78 21.96,-10.7 -0.15,-5.96 -10.4,-10.85 -22.84,-10.85 -12.43,0 -22.28,4.89 -21.96,10.85 0.33,5.92 10.57,10.7 22.84,10.7" /><path
         id="path316"
         style="fill:#fffffa;fill-opacity:1;fill-rule:nonzero;stroke:none"
         d="m 3593.65,2568.75 c 1.1,9.2 17.41,16.58 36.45,16.58 19.03,0 33.91,-7.38 33.22,-16.58 -0.7,-9.31 -17.04,-16.94 -36.48,-16.94 -19.45,0 -34.3,7.63 -33.19,16.94" /><path
         id="path318"
         style="fill:#fffffa;fill-opacity:1;fill-rule:nonzero;stroke:none"
         d="m 3369.59,2585.33 c 19.03,0 32.67,-7.38 30.44,-16.58 -2.27,-9.31 -19.88,-16.94 -39.33,-16.94 -19.44,0 -33.01,7.63 -30.34,16.94 2.64,9.2 20.2,16.58 39.23,16.58" /><path
         id="path320"
         style="fill:#fffffa;fill-opacity:1;fill-rule:nonzero;stroke:none"
         d="m 3380.44,2626.22 c 18.53,0 31.85,-6.99 29.73,-15.71 -2.14,-8.82 -19.24,-16.04 -38.16,-16.04 -18.92,0 -32.18,7.22 -29.65,16.04 2.51,8.72 19.54,15.71 38.08,15.71" /><path
         id="path322"
         style="fill:#fffffa;fill-opacity:1;fill-rule:nonzero;stroke:none"
         d="m 3390.72,2665.02 c 18.06,0 31.08,-6.64 29.08,-14.91 -2.04,-8.37 -18.64,-15.22 -37.07,-15.22 -18.42,0 -31.39,6.85 -28.99,15.22 2.38,8.27 18.92,14.91 36.98,14.91" /><path
         id="path324"
         style="fill:#fffffa;fill-opacity:1;fill-rule:nonzero;stroke:none"
         d="m 3456.43,2585.33 c 19.03,0 33.08,-7.38 31.36,-16.58 -1.74,-9.31 -18.93,-16.94 -38.37,-16.94 -19.45,0 -33.45,7.63 -31.29,16.94 2.13,9.2 19.26,16.58 38.3,16.58" /><path
         id="path326"
         style="fill:#fffffa;fill-opacity:1;fill-rule:nonzero;stroke:none"
         d="m 3464.98,2626.22 c 18.53,0 32.25,-6.99 30.62,-15.71 -1.65,-8.82 -18.34,-16.04 -37.26,-16.04 -18.92,0 -32.59,7.22 -30.55,16.04 2.02,8.72 18.66,15.71 37.19,15.71" /><path
         id="path328"
         style="fill:#f3a749;fill-opacity:1;fill-rule:nonzero;stroke:none"
         d="m 3483.5,2610.51 c -1.1,-5.64 -11.85,-10.27 -23.95,-10.27 -12.11,0 -20.92,4.63 -19.66,10.27 1.25,5.61 11.99,10.14 23.92,10.14 11.95,0 20.78,-4.53 19.69,-10.14" /><path
         id="path330"
         style="fill:#fffffa;fill-opacity:1;fill-rule:nonzero;stroke:none"
         d="m 3473.1,2665.02 c 18.05,0 31.45,-6.64 29.9,-14.91 -1.56,-8.37 -17.78,-15.22 -36.21,-15.22 -18.42,0 -31.77,6.85 -29.84,15.22 1.92,8.27 18.09,14.91 36.15,14.91" /><path
         id="path332"
         style="fill:#fffffa;fill-opacity:1;fill-rule:nonzero;stroke:none"
         d="m 3543.26,2585.33 c 19.04,0 33.5,-7.38 32.29,-16.58 -1.21,-9.31 -17.98,-16.94 -37.42,-16.94 -19.45,0 -33.88,7.63 -32.24,16.94 1.61,9.2 18.33,16.58 37.37,16.58" /><path
         id="path334"
         style="fill:#fffffa;fill-opacity:1;fill-rule:nonzero;stroke:none"
         d="m 3549.53,2626.22 c 18.53,0 32.64,-6.99 31.5,-15.71 -1.16,-8.82 -17.44,-16.04 -36.37,-16.04 -18.92,0 -32.99,7.22 -31.45,16.04 1.53,8.72 17.79,15.71 36.32,15.71" /><path
         id="path336"
         style="fill:#f3a749;fill-opacity:1;fill-rule:nonzero;stroke:none"
         d="m 3568.92,2610.51 c -0.78,-5.64 -11.27,-10.27 -23.38,-10.27 -12.1,0 -21.17,4.63 -20.22,10.27 0.94,5.61 11.41,10.14 23.35,10.14 11.95,0 21.03,-4.53 20.25,-10.14" /><path
         id="path338"
         style="fill:#fffffa;fill-opacity:1;fill-rule:nonzero;stroke:none"
         d="m 3555.47,2665.02 c 18.06,0 31.83,-6.64 30.75,-14.91 -1.1,-8.37 -16.94,-15.22 -35.36,-15.22 -18.43,0 -32.17,6.85 -30.7,15.22 1.45,8.27 17.26,14.91 35.31,14.91" /><path
         id="path340"
         style="fill:#fffffa;fill-opacity:1;fill-rule:nonzero;stroke:none"
         d="m 3634.07,2626.22 c 18.54,0 33.04,-6.99 32.38,-15.71 -0.66,-8.82 -16.54,-16.04 -35.46,-16.04 -18.93,0 -33.4,7.22 -32.35,16.04 1.04,8.72 16.9,15.71 35.43,15.71" /><path
         id="path342"
         style="fill:#f3a749;fill-opacity:1;fill-rule:nonzero;stroke:none"
         d="m 3654.35,2610.51 c -0.47,-5.64 -10.7,-10.27 -22.8,-10.27 -12.11,0 -21.44,4.63 -20.81,10.27 0.63,5.61 10.85,10.14 22.79,10.14 11.94,0 21.29,-4.53 20.82,-10.14" /><path
         id="path344"
         style="fill:#fffffa;fill-opacity:1;fill-rule:nonzero;stroke:none"
         d="m 3374.49,2722.32 c 7.48,26.02 61.23,46.42 120.31,46.42 59.07,0 104.29,-20.4 100.88,-46.42 -3.54,-27.01 -57.76,-49.67 -120.99,-49.67 -63.22,0 -107.96,22.66 -100.2,49.67" /><path
         id="path346"
         style="fill:#f3a749;fill-opacity:1;fill-rule:nonzero;stroke:none"
         d="m 3477.8,2687.5 c -44.25,0 -76.06,15.83 -71.03,34.82 4.89,18.5 43.08,33.19 85.26,33.19 42.18,0 74.22,-14.69 71.37,-33.19 -2.92,-18.99 -41.35,-34.82 -85.6,-34.82" /><path
         id="path348"
         style="fill:#fffffa;fill-opacity:1;fill-rule:nonzero;stroke:none"
         d="m 3852.08,2722.32 c -1.3,26.02 45.56,46.42 104.64,46.42 59.07,0 111.17,-20.4 116.54,-46.42 5.58,-27.01 -40.99,-49.67 -104.21,-49.67 -63.22,0 -115.62,22.66 -116.97,49.67" /><path
         id="path350"
         style="fill:#48c6d5;fill-opacity:1;fill-rule:nonzero;stroke:none"
         d="m 3967.14,2687.5 c -44.24,0 -81.4,15.83 -82.79,34.82 -1.35,18.5 31.89,33.19 74.06,33.19 42.17,0 79.18,-14.69 82.58,-33.19 3.49,-18.99 -29.6,-34.82 -73.85,-34.82" /><path
         id="path352"
         style="fill:#fffffa;fill-opacity:1;fill-rule:nonzero;stroke:none"
         d="m 3304.72,2479.51 c 10.23,35.6 74,63.36 142.83,63.36 68.82,0 120.98,-27.76 116.31,-63.36 -4.87,-37.2 -69.4,-68.6 -143.92,-68.6 -74.53,0 -125.92,31.4 -115.22,68.6" /><path
         id="path354"
         style="fill:#bba0fd;fill-opacity:1;fill-rule:nonzero;stroke:none"
         d="m 3424.24,2431.51 c -52.06,0 -88.63,21.87 -81.71,48 6.7,25.33 52.04,45.38 101.25,45.38 49.21,0 86.17,-20.05 82.27,-45.38 -4.02,-26.13 -49.74,-48 -101.81,-48" /><path
         id="path356"
         style="fill:#fffffa;fill-opacity:1;fill-rule:nonzero;stroke:none"
         d="m 3864.27,2479.51 c -1.78,35.6 52.61,63.36 121.44,63.36 68.83,0 130.35,-27.76 137.7,-63.36 7.69,-37.2 -46.24,-68.6 -120.76,-68.6 -74.52,0 -136.51,31.4 -138.38,68.6" /><path
         id="path358"
         style="fill:#ea3e3c;fill-opacity:1;fill-rule:nonzero;stroke:none"
         d="m 4000.01,2431.51 c -52.06,0 -96.02,21.87 -97.93,48 -1.85,25.33 36.72,45.38 85.93,45.38 49.22,0 92.94,-20.05 97.6,-45.38 4.8,-26.13 -33.53,-48 -85.6,-48" /><path
         id="path360"
         style="fill:#6cadd8;fill-opacity:1;fill-rule:nonzero;stroke:none"
         d="m 4297.08,2305.52 v 29.27 H 3119.36 v -29.27 h 1177.72" /><path
         id="path362"
         style="fill:#ff8b6a;fill-opacity:1;fill-rule:nonzero;stroke:none"
         d="m 4852.99,2651.54 c 19.21,7.63 367.46,142.6 536.28,179.03 46.35,10 92.29,-18.44 104.01,-64.38 12.13,-47.5 -16.83,-95.77 -64.44,-107.44 l -538.9,-104.32 -36.95,97.11" /><path
         id="path364"
         style="fill:#ff8b6a;fill-opacity:1;fill-rule:nonzero;stroke:none"
         d="m 4834.49,2517.18 c 15.8,8.55 31.07,19.59 43.24,26.51 27.88,15.85 52.41,39.26 41.83,74.02 -8.92,29.26 -35.27,47.5 -62.2,58.84 -25.47,10.72 -56.47,23.49 -84.68,18.59 -11.97,-2.08 -23.03,-7.62 -33.88,-13.09 -5.71,-2.88 -11.56,-5.85 -15.94,-10.51 -5.02,-5.35 -7.3,-14.8 -1.72,-19.57 5.29,-4.52 13.31,-1.67 19.8,0.86 6.49,2.53 15.43,3.77 19.03,-2.2 -11.53,-10.01 -24.8,-17.97 -39.05,-23.45 -11.6,-4.46 -27.2,-11.55 -23.14,-27.32 3.57,-13.87 27.06,-14.74 30.04,-28.74 1.77,-8.32 -4.31,-17.31 -0.75,-25.3 4.95,-11.14 21.05,-10.14 30.27,-15.61 12.29,-7.3 18.29,-23.25 34.03,-25.09 13.49,-1.58 28.53,4.18 43.12,12.06" /><path
         id="path366"
         style="fill:#ff8b6a;fill-opacity:1;fill-rule:nonzero;stroke:none"
         d="m 4028.58,2982.01 c 19.99,5.24 386.38,68.91 554.02,112.67 45.88,11.97 89.37,-29.49 95.43,-76.51 6.28,-48.62 -28.31,-93.02 -76.98,-98.84 l -547.58,-38.2 -24.89,100.88" /><path
         id="path368"
         style="fill:none;stroke:#381905;stroke-width:29.64349937;stroke-linecap:round;stroke-linejoin:miter;stroke-miterlimit:10;stroke-dasharray:none;stroke-opacity:1"
         d="M 3692.51,1867.35 C 3719.49,1801.86 3640.9,795.07 3640.9,795.07" /><path
         id="path370"
         style="fill:#ff8b6a;fill-opacity:1;fill-rule:nonzero;stroke:none"
         d="m 3957,2878.18 c 24.54,-3.99 49.33,-7.7 74.08,-5.65 8.08,0.67 16.32,2.03 23.34,6.07 47.29,27.18 50.44,106.39 6.82,136.67 -11.04,7.66 -24.98,11.03 -38.3,9.24 -11.16,-1.49 -21.02,-6.12 -32.12,-4.09 -8.98,1.65 -19.76,7.27 -27.9,11.44 -11.07,5.68 -26.75,12.58 -35.8,-0.96 -7.96,-11.91 7.07,-29.99 -1.39,-41.55 -5.02,-6.86 -15.77,-8.33 -19.36,-16.31 -4.33,-9.64 3.42,-17.52 6.18,-26.11 3.46,-10.74 1.73,-19.65 2.32,-30.58 1.25,-23.42 15.62,-33.83 38.1,-37.51 1.34,-0.22 2.69,-0.44 4.03,-0.66" /><path
         id="path372"
         style="fill:#ea3e3c;fill-opacity:1;fill-rule:nonzero;stroke:none"
         d="m 4031.33,2934.64 0.12,0.01 -29.41,109.12 c 8.42,2.24 15.01,9.43 15.95,18.61 1.23,11.88 -7.4,22.51 -19.27,23.74 -11.89,1.23 -22.51,-7.41 -23.74,-19.29 -0.99,-9.51 4.41,-18.14 12.68,-21.86 l -30.25,-107.47 c -3.86,-9.57 9.69,-19.13 30.28,-21.27 20.6,-2.13 40.09,4.02 43.51,13.63 0.57,1.61 0.49,3.21 0.13,4.78" /><path
         id="path374"
         style="fill:#ff7676;fill-opacity:1;fill-rule:nonzero;stroke:none"
         d="m 4012.14,3070.49 c -1.37,-4.41 -11.25,-5.08 -17.09,-4.36 -4.96,0.62 -14.17,3.14 -14.61,7.65 -0.46,4.67 8.58,11.09 17.08,10.21 8.47,-0.88 16.02,-8.99 14.62,-13.5" /><path
         id="path376"
         style="fill:#ce2c2c;fill-opacity:1;fill-rule:nonzero;stroke:none"
         d="m 4006.22,3049.49 c 0.15,-1.03 -5.67,-3.79 -11.85,-3.16 -6.17,0.64 -11.3,4.54 -10.94,5.52 0.26,0.69 3.15,-0.32 11.39,-1.18 8.25,-0.85 11.29,-0.45 11.4,-1.18" /><path
         id="path378"
         style="fill:#ff7676;fill-opacity:1;fill-rule:nonzero;stroke:none"
         d="m 3990.77,3042.9 c -2.23,-1.8 -24,-87.54 -28.75,-107.09 -2.51,-11.68 32.62,-15.9 33.35,-9.23 1.39,12.77 -2.38,118.13 -4.6,116.32" /><path
         id="path380"
         style="fill:#ff8b6a;fill-opacity:1;fill-rule:nonzero;stroke:none"
         d="m 3949.95,3037.37 c 18.21,-7.99 55.5,-33.47 55.92,-46.93 0.43,-13.46 -19.33,-23.74 -43.75,-10.92" /><path
         id="path382"
         style="fill:#ff8b6a;fill-opacity:1;fill-rule:nonzero;stroke:none"
         d="m 4078.86,2994.52 c -12.63,16.71 -58.11,31.53 -75.86,26.21 -17.74,-5.32 8.37,-72.63 52.14,-61.74" /><path
         id="path384"
         style="fill:none;stroke:#381905;stroke-width:29.64349937;stroke-linecap:round;stroke-linejoin:miter;stroke-miterlimit:10;stroke-dasharray:none;stroke-opacity:1"
         d="m 5646.58,2764.63 c 0,0 -210.86,-281.14 -103.5,-841.59" /><path
         id="path386"
         style="fill:none;stroke:#381905;stroke-width:7.41090012;stroke-linecap:round;stroke-linejoin:round;stroke-miterlimit:10;stroke-dasharray:none;stroke-opacity:1"
         d="m 4902.88,2938.03 c 0.97,4.3 19.2,319.72 19.2,319.72" /></g></g></svg>