<?xml version="1.0" encoding="UTF-8" standalone="no"?>
<svg
   xmlns:dc="http://purl.org/dc/elements/1.1/"
   xmlns:cc="http://creativecommons.org/ns#"
   xmlns:rdf="http://www.w3.org/1999/02/22-rdf-syntax-ns#"
   xmlns:svg="http://www.w3.org/2000/svg"
   xmlns="http://www.w3.org/2000/svg"
   viewBox="0 0 2666.6667 2666.6667"
   height="2666.6667"
   width="2666.6667"
   xml:space="preserve"
   id="svg2"
   version="1.1"><metadata
     id="metadata8"><rdf:RDF><cc:Work
         rdf:about=""><dc:format>image/svg+xml</dc:format><dc:type
           rdf:resource="http://purl.org/dc/dcmitype/StillImage" /></cc:Work></rdf:RDF></metadata><defs
     id="defs6" /><g
     transform="matrix(1.3333333,0,0,-1.3333333,0,2666.6667)"
     id="g10"><g
       transform="scale(0.1)"
       id="g12"><g
         transform="scale(1.22699)"
         id="g14"><path
           id="path16"
           style="fill:#ffffff;fill-opacity:1;fill-rule:nonzero;stroke:none"
           d="M 16300,0 H 0 V 16300 H 16300 V 0" /></g><g
         transform="scale(1.19654)"
         id="g18"><path
           id="path20"
           style="fill:#e8f9f9;fill-opacity:1;fill-rule:nonzero;stroke:none"
           d="m 3243.29,6338.94 c 102.17,413.36 256,817.94 337.24,1234.48 247.69,1269.91 -186.3,2604.68 251.21,3839.48 123.86,349.6 315,680.9 532.96,997.9 651.34,947.3 1602.78,3157.3 2849.95,3523.3 1247.16,365.9 2810.95,-1226.4 3586.15,-2108.4 514.3,-585.1 758.8,-953 1025.6,-1640.5 295.3,-760.5 679,-1602.7 1384,-2138.5 1006.9,-765.12 2362.4,-2947.07 1799.7,-5009.18 -907.7,-3326 -2635,-4214.646 -3183.7,-4466.29 C 11661.4,495.514 10130.5,519.747 9943,500.11 9070.99,408.678 8769.61,469.188 8468.25,529.779 8166.83,590.286 7865.43,650.877 6993.47,559.445 6459.44,503.453 5785.58,409.096 5339.53,710.633 4901.57,1006.65 4536.34,1463.47 4242.57,1856.85 3602.29,2714.24 3214.62,3699 3122.6,4702.06 c -50.15,546.74 -12.16,1099.33 120.69,1636.88" /></g><path
         id="path22"
         style="fill:#ffffff;fill-opacity:1;fill-rule:nonzero;stroke:none"
         d="m 9414.95,15420 c 37.29,162.3 182.54,283.4 356.17,283.4 31.87,0 62.79,-4.1 92.26,-11.8 85.7,183.3 271.72,310.3 487.32,310.3 55.8,0 109.5,-8.5 160.1,-24.3 116.1,192.3 327,320.8 568,320.8 286.7,0 530.9,-181.9 623.4,-436.6 65.5,36.5 140.9,57.4 221.2,57.4 251.3,0 455,-203.8 455,-455 0,-14.9 -0.8,-29.7 -2.2,-44.2 H 9414.95" /><path
         id="path24"
         style="fill:#ffffff;fill-opacity:1;fill-rule:nonzero;stroke:none"
         d="m 16258.4,10650 c -37.3,162.3 -182.6,283.4 -356.2,283.4 -31.9,0 -62.8,-4.1 -92.2,-11.8 -85.7,183.3 -271.7,310.3 -487.4,310.3 -55.7,0 -109.5,-8.5 -160.1,-24.3 -116.1,192.3 -327,320.8 -568,320.8 -286.7,0 -530.8,-181.9 -623.4,-436.6 -65.4,36.5 -140.8,57.3 -221.2,57.3 -251.2,0 -454.9,-203.7 -454.9,-455 0,-14.8 0.7,-29.6 2.1,-44.1 h 2961.3" /><path
         id="path26"
         style="fill:#ffffff;fill-opacity:1;fill-rule:nonzero;stroke:none"
         d="m 4864.95,9730 c 41.72,181.6 204.2,317 398.43,317 35.66,0 70.24,-4.6 103.21,-13.1 95.86,205 303.91,347 545.16,347 62.37,0 122.52,-9.5 179.09,-27.1 129.87,215.1 365.83,358.9 635.38,358.9 320.7,0 593.85,-203.6 697.35,-488.5 73.27,40.8 157.61,64.2 247.44,64.2 281.11,0 508.99,-227.9 508.99,-509 0,-16.7 -0.86,-33.1 -2.43,-49.4 H 4864.95" /><g
         transform="scale(1.02983)"
         id="g28"><path
           id="path30"
           style="fill:#ffffff;fill-opacity:1;fill-rule:nonzero;stroke:none"
           d="m 14408.7,7508.68 c 23.8,103.52 116.5,180.81 227.3,180.81 20.4,0 40.1,-2.62 59,-7.48 54.7,116.92 173.3,198 310.9,198 35.6,0 69.9,-5.44 102.3,-15.45 74,122.65 208.6,204.7 362.4,204.7 183,0 338.8,-116.13 397.9,-278.69 41.7,23.31 89.9,36.61 141.2,36.61 160.3,0 290.3,-130.02 290.3,-290.34 0,-9.51 -0.5,-18.93 -1.4,-28.16 h -1889.9" /></g><path
         id="path32"
         style="fill:#ffffff;fill-opacity:1;fill-rule:nonzero;stroke:none"
         d="m 5505.69,14750 c 24.69,107.5 120.85,187.6 235.8,187.6 21.1,0 41.57,-2.7 61.09,-7.8 56.73,121.4 179.85,205.4 322.63,205.4 36.92,0 72.52,-5.6 106,-16 76.87,127.3 216.51,212.4 376.04,212.4 189.8,0 351.46,-120.5 412.72,-289.1 43.35,24.1 93.27,38 146.43,38 166.38,0 301.25,-134.9 301.25,-301.3 0,-9.8 -0.52,-19.6 -1.44,-29.2 H 5505.69" /><g
         transform="scale(1.05507)"
         id="g34"><path
           id="path36"
           style="fill:#ffffff;fill-opacity:1;fill-rule:nonzero;stroke:none"
           d="m 5670.9,15272.1 c 195.21,336 403.35,688.3 628.47,1027.9 -224.21,-339.6 -433.71,-692.8 -628.47,-1027.9" /></g><g
         transform="scale(1.05522)"
         id="g38"><path
           id="path40"
           style="fill:#f4fcfc;fill-opacity:1;fill-rule:nonzero;stroke:none"
           d="m 4120.62,11370.6 c 2.93,351.1 26.41,699.5 94.84,1042.7 215.51,76.4 426.54,165.6 631.62,266.5 214.86,105.8 439.31,242.4 522.08,467.1 57.2,155.3 37.23,331.6 98.98,485.1 57.87,143.9 177.89,248.8 307.45,346.1 h 682.22 c 44.71,-109 108.61,-203.2 190.18,-280.4 94.13,-89.1 212.4,-156 351.98,-199 47.05,-50.3 104.3,-94.8 173.52,-131.4 -2.1,-4.9 -3.91,-10 -5.41,-15.3 -11.33,-39.9 -2.22,-80.8 21.09,-111.5 l -129.5,-325.1 -25.23,7.1 c -4.23,1.2 -8.48,1.8 -12.67,1.8 -20.2,0 -38.76,-13.3 -44.54,-33.7 l -2.88,-10.1 c -6.99,-24.6 7.3,-50.3 31.92,-57.2 l 15,-4.3 -25.5,-64 -187.56,-470.9 -32.51,9.2 c -4.92,1.4 -9.87,2.1 -14.74,2.1 -15.97,0 -31.05,-7.2 -41.2,-19.2 l -2.26,0.7 c -2.77,-4.1 -4.95,-8.6 -6.36,-13.5 l -7.46,-26.3 c -6.99,-24.7 7.34,-50.3 32.02,-57.3 l 214.48,-60.9 122.25,-34.7 c -130.18,-214.6 -426.8,-288 -684.55,-331.4 -753.22,-127 -1506.43,-253.9 -2259.65,-380.9 -2.54,-0.4 -5.08,-0.8 -7.61,-1.3 m 3181.73,1639.2 33.19,189 c 36.1,13.8 65.46,43.9 76.82,83.9 1.5,5.3 2.64,10.6 3.44,15.9 16.06,-1.1 31.81,-1.6 47.37,-1.6 60.09,0 116.48,7.8 169.28,22.2 44.77,-11.6 88.99,-20.1 132.53,-25.4 -54.9,-27.1 -110.42,-53.3 -164.57,-80.7 -106.63,-53.9 -214.16,-119.5 -298.06,-203.3 m 568.86,412 c -8.49,0 -17.08,0.2 -25.73,0.5 185.4,133.6 309.45,352.1 388.64,544.9 42,-141.1 -10.79,-315.9 -113.93,-430.5 -34.04,-37.9 -71.86,-71.1 -112.29,-101.2 -42.96,-8.8 -88.48,-13.7 -136.69,-13.7 m -998.42,276.6 c -128.92,73.5 -213.04,173.1 -267.06,279.7 h 202.7 c 4.72,-56.3 13.44,-112.4 27.22,-166.9 h -0.01 c 9.72,-38.5 21.98,-76.2 37.14,-112.8 m -220.19,556.9 c -27.04,74.4 -74.75,139 -136.18,186.7 1.22,31.4 3.54,60 6.23,84.7 0.09,0.7 0.34,3.1 2.9,4.9 1.44,1 2.81,1.2 3.85,1.2 0.82,0 1.43,-0.1 1.76,-0.2 l 313.6,-78.1 c -10.65,-51.1 -20.28,-106.5 -27.51,-164.4 -8.52,0.8 -17.15,1.2 -25.87,1.2 -50.39,0 -97.69,-13.1 -138.78,-36 m -266.49,254.9 c -39.34,12.4 -81.21,19 -124.63,19 -1.3,0 -2.58,0 -3.88,0 19.93,154.1 -50.05,312.4 -161.31,421.7 -115.06,113.1 -269.17,179.2 -426.05,216.8 -11.49,2.7 -42.32,7.2 -53.84,9.7 17.8,30.7 35.68,61.5 53.68,92.5 194.74,335 404.21,688.2 628.38,1027.7 0.54,0.8 1.05,1.6 1.58,2.4 228.41,-17 459.6,-22.6 692.26,-22.6 228.56,0 458.56,5.4 688.52,10.9 229.99,5.4 459.99,10.8 688.7,10.8 174.18,0 347.64,-3.1 519.69,-11.8 108.42,-5.5 224.89,-16.4 307.56,-86.7 133.31,-113.4 115.81,-330.5 30.04,-483 -203.81,-362.5 -660.05,-484.7 -1070.76,-550 -250.55,-39.7 -549.13,-106.9 -634.77,-345.7 -26.44,-73.7 -25.25,-149.6 -4,-221.9 l -583.89,165.7 c 0,0 -27.67,-70.3 -57.41,-180.5 l -312.36,77.8 c -11.27,2.8 -22.74,4.2 -34.15,4.2 -28.63,0 -56.86,-8.8 -80.79,-25.5 -33.45,-23.3 -55.18,-59.9 -59.58,-100.5 -1.05,-9.6 -2.06,-19.9 -2.99,-31" /></g><path
         id="path42"
         style="fill:#ffffff;fill-opacity:1;fill-rule:nonzero;stroke:none"
         d="m 7184.41,14750 h -213.89 c -85.52,168.8 -99.51,354.5 -94.26,489.5 64.83,-50.3 115.17,-118.5 143.71,-197 43.35,24.1 93.27,38 146.43,38 9.21,0 18.31,-0.4 27.31,-1.3 -13.07,-104.8 -18.65,-217.4 -9.3,-329.2 m -369.98,0 h -719.9 c 218.32,163.9 462.33,307.2 506.12,564.9 0.95,5.5 1.78,11.1 2.5,16.7 1.37,0 2.72,0 4.1,0 45.81,0 89.99,-7 131.51,-20.1 -10.43,-124.1 -11.08,-333.8 66.38,-538 3.01,-7.9 6.1,-15.7 9.29,-23.5" /><g
         transform="scale(1.11506)"
         id="g44"><path
           id="path46"
           style="fill:#ffffff;fill-opacity:1;fill-rule:nonzero;stroke:none"
           d="m 16243.4,6117.78 c -3.4,0.36 -6.9,0.72 -10.3,1.08 59.3,690.09 -54.9,1375.52 -269.8,2006.97 1,0 1.9,-0.09 2.9,-0.09 216.9,-631.18 333.8,-1317.06 277.2,-2007.96 m -3153.1,6044.12 c -53.9,105.8 -104.7,212.6 -153,319.6 0.3,0.1 0.6,0.1 0.9,0.1 48,-107 98.6,-213.8 152.1,-319.7" /></g><g
         transform="scale(1.11454)"
         id="g48"><path
           id="path50"
           style="fill:#f4fcfc;fill-opacity:1;fill-rule:nonzero;stroke:none"
           d="m 16240.7,6121.72 c -17.4,1.7 -34.6,3.59 -51.8,5.56 -501.7,57.96 -998.3,159.26 -1482.8,301.74 -29.5,239.38 -226.8,446.82 -495.3,460.19 -2.9,0.18 -5.7,0.18 -8.7,0.18 -97.2,0 -230.5,-77.34 -347.9,-161.95 -65.5,26.83 -130.7,54.37 -195.6,82.72 -54.7,23.96 -111.9,50.7 -145.5,100.14 -5.9,8.79 -10.9,18.03 -15.2,27.72 h 1562 c 0.8,8.52 1.3,17.23 1.3,26.02 0,148.13 -120.1,268.27 -268.3,268.27 -47.4,0 -91.9,-12.29 -130.4,-33.82 -54.6,150.19 -198.6,257.5 -367.6,257.5 -142.2,0 -266.5,-75.81 -335,-189.14 -29.8,9.25 -61.5,14.27 -94.4,14.27 -127.2,0 -236.8,-74.92 -287.3,-182.94 -17.4,4.48 -35.7,6.91 -54.5,6.91 -14.9,0 -29.4,-1.53 -43.4,-4.4 17.6,212.46 139,406.17 186.1,615.95 70.7,313.22 -27.4,637.03 -124.5,943.08 -13,41.18 -26.9,83.8 -55.8,115.92 -48.8,54.01 -127.7,65.95 -199.9,74.74 -257.5,31.22 -514.8,63.97 -772,98.43 0.1,1.52 0.3,3.04 0.4,4.57 l 16.7,188.11 -186,16.5 -16.4,-184.15 c -502.9,68.79 -1005,143.66 -1506.1,224.56 -209.2,33.76 -448.7,90.23 -541.9,280.43 -107.3,219.03 58.5,487.98 275.2,599.77 106.1,54.7 231.2,91.5 297.2,190.9 84.2,127 35,299.7 79.6,445.5 48.8,158.9 201.7,262.7 355.3,326.1 153.6,63.5 319.7,100.9 459.3,191.1 139.6,90.1 250.5,255.7 209.8,416.9 -14.4,57.1 -46.4,108.3 -64.5,164.4 -69.4,214 84.2,448.4 284.5,550.7 200.5,102.3 434.6,106.5 659.5,114.1 36.4,1.3 71.8,4.5 106.6,9.1 48.2,-107.1 99.1,-214 153,-319.8 143.2,-282.9 308.2,-558.6 505,-810.2 -72.9,-45 -129.6,-107.9 -152.5,-191.7 -22.1,-80.4 -8.8,-169.1 -42.3,-245.5 -55.6,-127.4 -212.4,-169.1 -348.8,-195.4 -303.3,-58.4 -606.7,-116.8 -909.9,-175.2 -165.7,-32 -368.3,-101.7 -385.6,-269.6 -14,-136 110.5,-245.5 233.1,-305.79 34.8,-17.05 70,-32.23 105.7,-45.74 -104.3,-73.94 -172.4,-195.69 -172.4,-333.35 0,-13.36 0.6,-26.57 1.9,-39.61 h 2192.6 c 5.3,-6.47 10.3,-13.28 14.8,-20.47 33.4,-53.29 36.6,-119.3 41.6,-181.97 17,-213.33 69.8,-431 200.4,-600.49 142.3,-184.56 360.4,-292.41 573.8,-386.17 188.3,-82.63 380.8,-159.79 582.7,-198.82 143,-27.64 288.5,-35.8 434.3,-37.96 215,-631.74 329.2,-1317.49 269.9,-2007.91" /></g><path
         id="path52"
         style="fill:#ffffff;fill-opacity:1;fill-rule:nonzero;stroke:none"
         d="m 15740.9,10650 h -2443.8 c -1.4,14.5 -2.1,29.3 -2.1,44.1 0,153.5 75.9,289.2 192.2,371.6 671.9,-253.8 1500,21.8 2137.2,-327.5 42.9,-23.5 85.5,-50.8 116.5,-88.2" /><g
         transform="scale(1.02983)"
         id="g54"><path
           id="path56"
           style="fill:#ffffff;fill-opacity:1;fill-rule:nonzero;stroke:none"
           d="m 16298.6,7508.68 h -1690.4 c -17.7,40.4 -22.2,86.62 -21.5,131.19 0.3,15.05 1.1,30 2.3,44.86 15.2,3.11 30.9,4.76 47,4.76 20.4,0 40.1,-2.62 59,-7.48 54.7,116.92 173.3,198 310.9,198 35.6,0 69.9,-5.44 102.3,-15.45 74,122.65 208.6,204.7 362.4,204.7 183,0 338.8,-116.13 397.9,-278.69 41.7,23.31 89.9,36.61 141.2,36.61 160.3,0 290.3,-130.02 290.3,-290.34 0,-9.51 -0.5,-18.93 -1.4,-28.16" /></g><path
         id="path58"
         style="fill:#feb546;fill-opacity:1;fill-rule:nonzero;stroke:none"
         d="m 12661.2,15504.4 -426,199.2 64.4,137.8 426.1,-199.2 -64.5,-137.8" /><g
         transform="scale(1.03182)"
         id="g60"><path
           id="path62"
           style="fill:#ff5b7e;fill-opacity:1;fill-rule:nonzero;stroke:none"
           d="m 10548.8,16033.7 -438.6,124.5 40.3,141.8 438.5,-124.4 -40.2,-141.9" /></g><g
         transform="scale(1.11893)"
         id="g64"><path
           id="path66"
           style="fill:#feb546;fill-opacity:1;fill-rule:nonzero;stroke:none"
           d="m 9569.64,16203.9 -297.25,-297.3 -96.16,96.2 297.25,297.2 96.16,-96.1" /></g><path
         id="path68"
         style="fill:#02ccc0;fill-opacity:1;fill-rule:nonzero;stroke:none"
         d="m 6490.56,14323.6 -332.57,-332.6 -107.57,107.6 332.57,332.6 107.57,-107.6" /><path
         id="path70"
         style="fill:#ff5b7e;fill-opacity:1;fill-rule:nonzero;stroke:none"
         d="m 6690.41,12326.3 -447.01,146.2 47.32,144.6 447,-146.3 -47.31,-144.5" /><g
         transform="scale(1.05637)"
         id="g72"><path
           id="path74"
           style="fill:#02ccc0;fill-opacity:1;fill-rule:nonzero;stroke:none"
           d="m 6286.07,15927.9 -365.82,253.8 82.09,118.3 365.82,-253.8 -82.09,-118.3" /></g><path
         id="path76"
         style="fill:#ff5b7e;fill-opacity:1;fill-rule:nonzero;stroke:none"
         d="m 6841.15,15596.9 h -470.32 v 152.1 h 470.32 v -152.1" /><path
         id="path78"
         style="fill:#07085b;fill-opacity:1;fill-rule:nonzero;stroke:none"
         d="m 5330.05,14531 -445.98,-149.3 -48.31,144.2 445.97,149.4 48.32,-144.3" /><path
         id="path80"
         style="fill:#feb546;fill-opacity:1;fill-rule:nonzero;stroke:none"
         d="m 5465.91,12268.2 -451.4,-132.1 -42.72,146 451.4,132.1 42.72,-146" /><g
         transform="scale(1.12287)"
         id="g82"><path
           id="path84"
           style="fill:#ff5b7e;fill-opacity:1;fill-rule:nonzero;stroke:none"
           d="m 7390.41,15899 -281.92,309.8 100.21,91.2 281.92,-309.8 -100.21,-91.2" /></g><g
         transform="scale(1.04082)"
         id="g86"><path
           id="path88"
           style="fill:#02ccc0;fill-opacity:1;fill-rule:nonzero;stroke:none"
           d="m 8642.78,16181.7 -365.79,-265.3 -85.83,118.3 365.79,265.3 85.83,-118.3" /></g><g
         transform="scale(1.06627)"
         id="g90"><path
           id="path92"
           style="fill:#02ccc0;fill-opacity:1;fill-rule:nonzero;stroke:none"
           d="m 11729.1,16160.2 -432.2,-88.2 -28.6,139.8 432.3,88.2 28.5,-139.8" /></g><path
         id="path94"
         style="fill:#02ccc0;fill-opacity:1;fill-rule:nonzero;stroke:none"
         d="m 16226.4,11811.2 -460.9,-94 -30.4,149 460.9,94 30.4,-149" /><path
         id="path96"
         style="fill:#ff5b7e;fill-opacity:1;fill-rule:nonzero;stroke:none"
         d="m 14906.4,13451.2 -460.9,-94 -30.4,149 460.9,94 30.4,-149" /><path
         id="path98"
         style="fill:#ff5b7e;fill-opacity:1;fill-rule:nonzero;stroke:none"
         d="m 12269.1,13736.5 -426.1,199.2 64.5,137.8 426,-199.2 -64.4,-137.8" /><path
         id="path100"
         style="fill:#feb546;fill-opacity:1;fill-rule:nonzero;stroke:none"
         d="m 13866.1,13868.9 -360.2,-302.4 -97.8,116.5 360.2,302.4 97.8,-116.5" /><path
         id="path102"
         style="fill:#feb546;fill-opacity:1;fill-rule:nonzero;stroke:none"
         d="m 14806.1,9018.9 -360.2,-302.4 -97.8,116.5 360.2,302.4 97.8,-116.5" /><path
         id="path104"
         style="fill:#07085b;fill-opacity:1;fill-rule:nonzero;stroke:none"
         d="m 14060.5,15134.2 -360.2,-302.4 -97.8,116.5 360.1,302.4 97.9,-116.5" /><path
         id="path106"
         style="fill:#07085b;fill-opacity:1;fill-rule:nonzero;stroke:none"
         d="m 12077.8,13131.9 167.8,-439.3 -142.1,-54.3 -167.8,439.4 142.1,54.2" /><path
         id="path108"
         style="fill:#ff5b7e;fill-opacity:1;fill-rule:nonzero;stroke:none"
         d="m 14677,12276.8 -51.7,-467.5 -151.2,16.7 51.7,467.5 151.2,-16.7" /><path
         id="path110"
         style="fill:#07085b;fill-opacity:1;fill-rule:nonzero;stroke:none"
         d="m 15450.8,10168.9 -360.2,-302.5 -97.8,116.5 360.1,302.5 97.9,-116.5" /><path
         id="path112"
         style="fill:#ff5b7e;fill-opacity:1;fill-rule:nonzero;stroke:none"
         d="m 4622.29,10384.2 -360.19,-302.4 -97.83,116.5 360.2,302.5 97.82,-116.6" /><path
         id="path114"
         style="fill:#ff5b7e;fill-opacity:1;fill-rule:nonzero;stroke:none"
         d="m 7500.14,9102.2 31.97,-469.2 -151.77,-10.4 -31.98,469.3 151.78,10.3" /><g
         transform="scale(1.01731)"
         id="g116"><path
           id="path118"
           style="fill:#ff5b7e;fill-opacity:1;fill-rule:nonzero;stroke:none"
           d="m 16268.5,9802.55 31.5,-461.22 -149.2,-10.22 -31.4,461.32 149.1,10.12" /></g><path
         id="path120"
         style="fill:#07085b;fill-opacity:1;fill-rule:nonzero;stroke:none"
         d="m 6125.09,10405.6 429.41,191.8 62.06,-138.9 -429.41,-191.8 -62.06,138.9" /><path
         id="path122"
         style="fill:#feb546;fill-opacity:1;fill-rule:nonzero;stroke:none"
         d="m 5393.52,9102.2 249.34,-398.8 -128.99,-80.7 -249.34,398.8 128.99,80.7" /><path
         id="path124"
         style="fill:#ffc0bb;fill-opacity:1;fill-rule:nonzero;stroke:none"
         d="m 10338,13214.4 -7.1,-515.6 -544.93,-98.7 18.13,727.7 533.9,-113.4" /><path
         id="path126"
         style="fill:#f4b8b3;fill-opacity:1;fill-rule:nonzero;stroke:none"
         d="m 9795.75,12992.8 v 0 l 8.35,335 -8.35,-335 m 539.25,8.6 2.2,155.5 0.8,-0.2 -3,-155.3 v 0" /><path
         id="path128"
         style="fill:#fda19a;fill-opacity:1;fill-rule:nonzero;stroke:none"
         d="m 10057,12955.3 c -81.19,0 -169.96,10.6 -261.25,37.5 l 8.35,335 533.1,-170.9 -2.2,-155.5 c -69.5,-26 -166.6,-46.1 -278,-46.1" /><path
         id="path130"
         style="fill:#07085b;fill-opacity:1;fill-rule:nonzero;stroke:none"
         d="m 10780.6,15012.7 c 0,0 -419,238.8 -878.96,192.4 -708.03,-71.6 -795.26,-768.9 -1052.68,-780.2 0,0 58.82,-65.3 256.17,-39.2 0,0 -116.94,-190.3 -96.52,-311.1 0,0 144.58,178.5 208.78,207.7 0,0 -149.79,-634.8 304.34,-844 269.79,-124.3 831.67,833.1 831.67,833.1 l 427.2,741.3" /><path
         id="path132"
         style="fill:#07085b;fill-opacity:1;fill-rule:nonzero;stroke:none"
         d="m 10494.1,13579.8 c 0,0 31.3,-391.2 271.9,-447.5 0,0 -73.6,107 -55.7,260.5 0,0 181,-252.4 381.2,-94.7 0,0 -340.6,181 -238.6,434.8 102.1,253.7 -383.3,-57.2 -383.3,-57.2 l 24.5,-95.9" /><path
         id="path134"
         style="fill:#f99893;fill-opacity:1;fill-rule:nonzero;stroke:none"
         d="m 9435.05,14026.4 c 30.77,-96.6 -7.06,-194.9 -84.49,-219.5 -77.43,-24.6 -165.15,33.8 -195.92,130.4 -30.77,96.6 7.05,194.9 84.49,219.5 77.43,24.6 165.15,-33.7 195.92,-130.4" /><path
         id="path136"
         style="fill:#ffc0bb;fill-opacity:1;fill-rule:nonzero;stroke:none"
         d="m 9418.4,13476.7 c -20.13,42.2 -36.46,86.6 -48.69,132.6 -35.32,124 -47.81,253.6 -49.79,366 -0.43,24.1 -2.25,48.2 -4.52,72.2 -9.18,96.9 -0.76,198.3 30.02,300.8 99.04,329.7 409.17,559.6 753.88,557.9 464.5,-2.2 817.3,-396.2 781.5,-846.2 51.2,23.3 106.7,25.2 153.4,-0.2 89.7,-48.8 112.8,-179 51.7,-291 -61.2,-111.9 -183.4,-163 -273,-114.2 -12.5,6.7 -23.5,15.2 -33.3,24.9 -69.6,-379.8 -407.2,-650.6 -783.58,-614.6 -184.05,17.5 -344.98,105.5 -461,235.8 -7.84,7.7 -16,16.6 -24.51,26.9 -37.32,45.2 -67.49,95.7 -92.11,149.1" /><path
         id="path138"
         style="fill:#333333;fill-opacity:1;fill-rule:nonzero;stroke:none"
         d="m 10172.2,14047.6 c -3.6,-37.6 24,-71.1 61.7,-74.7 37.7,-3.6 71.2,24 74.8,61.7 3.6,37.6 -24,71.1 -61.7,74.7 -37.7,3.6 -71.2,-24 -74.8,-61.7" /><path
         id="path140"
         style="fill:#333333;fill-opacity:1;fill-rule:nonzero;stroke:none"
         d="m 9582.23,14065.2 c -3.62,-37.6 24.01,-71 61.72,-74.6 37.7,-3.6 71.2,24 74.81,61.6 3.63,37.6 -24,71.1 -61.7,74.7 -37.7,3.6 -71.21,-24 -74.83,-61.7" /><path
         id="path142"
         style="fill:#07085b;fill-opacity:1;fill-rule:nonzero;stroke:none"
         d="m 10102.8,14190.7 c 34.7,10.5 67.7,18.5 100.5,23 32.7,4.4 64.8,4.6 96,0 31,-5 62,-12.7 91.5,-27.4 l 11.4,-4.8 c 3.8,-1.6 7.2,-4.1 11,-5.9 l 22.4,-12.1 c 15.1,-8.3 29,-18.7 45.7,-27 -8.6,15.8 -18.4,31.4 -29.9,45.7 -12.9,12.7 -24.7,27.8 -40.6,37.7 -29.6,23.3 -66.8,37.2 -104.6,43 -38.1,5.5 -77.2,1.2 -112.4,-11.5 -34.9,-13.1 -67.4,-32.7 -91,-60.7" /><path
         id="path144"
         style="fill:#07085b;fill-opacity:1;fill-rule:nonzero;stroke:none"
         d="m 9826.74,14202.9 c -21.05,30.1 -51.59,52.5 -85.23,68.6 -33.89,15.7 -72.5,23.6 -110.88,21.4 -38.14,-2.4 -76.51,-12.9 -108,-33.5 -16.8,-8.5 -29.86,-22.5 -43.86,-34 -12.74,-13.2 -23.93,-27.9 -33.86,-42.9 17.4,6.9 32.15,16 47.89,22.9 l 23.44,10 c 3.93,1.5 7.51,3.7 11.45,5 l 11.84,3.8 c 30.63,12 62.28,16.9 93.58,19.1 31.47,1.9 63.44,-1.2 95.6,-8.6 32.24,-7.3 64.37,-18.2 98.03,-31.8" /><path
         id="path146"
         style="fill:#ffffff;fill-opacity:1;fill-rule:nonzero;stroke:none"
         d="m 9795.3,13587.8 c 30.68,-101.1 133.57,-169.7 248.1,-158.5 114.5,11.2 202.1,98.4 212.7,203.5 l -460.8,-45" /><path
         id="path148"
         style="fill:#f99893;fill-opacity:1;fill-rule:nonzero;stroke:none"
         d="m 9963.18,14127.2 c -24.01,-40.6 -44.23,-82.9 -62.37,-126.1 -18.19,-43.1 -33.83,-87.3 -45.65,-133.1 -5.4,-23 -10.18,-46.4 -10.96,-71.3 0.04,-6.3 0.34,-12.8 1.39,-19.5 0.5,-3.4 1.63,-7 2.51,-10.4 1.69,-3.8 2.79,-7.4 5.74,-11.2 1.5,-1.8 3.08,-3.6 4.71,-5.4 l 3.89,-3 c 2.6,-1.9 5.1,-4 7.78,-5.8 5.42,-3.3 10.74,-6.8 16.31,-9.5 21.94,-11.9 44.99,-20.1 68.23,-27 23.35,-6.6 46.94,-12.2 70.94,-15.2 -44.18,18.3 -88.73,36.5 -126.97,61.1 -4.85,3 -9.09,6.5 -13.52,9.8 l -6.12,5.2 -2.97,2.5 -0.83,1.5 c -3.05,4.4 -3.83,16 -3.07,26.1 1.43,21.3 6.03,43.6 11.71,65.6 10.81,44.2 25.01,88.1 38.58,132.3 13.89,44.2 28,88.4 40.67,133.4" /><path
         id="path150"
         style="fill:#07085b;fill-opacity:1;fill-rule:nonzero;stroke:none"
         d="m 10880.8,14060 c 111.6,61.4 204.2,-45.3 204.2,-45.3 40.1,95.8 186.4,510.2 -143.9,796.3 l 222.2,95.3 c 0,0 -124.3,63.5 -253.9,34.4 0,0 41,107.1 31.7,216.9 0,0 -95.2,-129.6 -150.7,-152.1 l -1036.81,-11.9 c 0,0 71.41,-444.3 357.01,-608.3 0,0 -116.33,269.6 -84.6,425.7 0,0 55.6,-412.5 470.8,-518.3 l 230.1,-460.2 54.1,25.1 c 13.2,78.9 41,170 99.8,202.4" /><path
         id="path152"
         style="fill:#ffc0bb;fill-opacity:1;fill-rule:nonzero;stroke:none"
         d="m 7583.85,13239.9 c 0,0 80.21,-1072.2 586.78,-1321.3 506.57,-249 1443.72,373.9 1443.72,373.9 l -920.27,179.1 c 0,0 -439.03,-97 -489.68,-88.6 -50.66,8.4 -341.93,645.9 -341.93,645.9 l -278.62,211" /><path
         id="path154"
         style="fill:#e03268;fill-opacity:1;fill-rule:nonzero;stroke:none"
         d="m 9659.37,12781.7 -965.29,-111.6 143.53,-835.9 472.8,156.2 348.96,791.3" /><path
         id="path156"
         style="fill:#feb546;fill-opacity:1;fill-rule:nonzero;stroke:none"
         d="m 9014.91,10394.7 c 0,0 -312.39,-2786.1 -261.73,-3757 l 551.78,-65.8 574.63,3223.4 72.7,-2.8 370.21,-3242.1 h 500.9 c 0,0 82.7,3236.4 -187.5,4148.3 -270.1,911.8 -1620.99,-304 -1620.99,-304" /><path
         id="path158"
         style="fill:#ff5b7e;fill-opacity:1;fill-rule:nonzero;stroke:none"
         d="m 10837.1,12429.9 c -35.1,145.4 -146.8,261 -291.7,298.5 -52,13.4 -112.4,23.7 -179.6,26.1 -10.1,0.3 -20.3,0.7 -30.5,1.1 -359.74,-115 -533.24,32.1 -533.28,32.1 -133.73,22.5 -516.8,-0.5 -668.91,-940.8 -185.75,-1148.2 -194.19,-1528.2 -194.19,-1528.2 0,0 1072.28,-515 1815.18,-109.7 0,0 246.2,1543.5 83,2220.9" /><path
         id="path160"
         style="fill:#f4b8b3;fill-opacity:1;fill-rule:nonzero;stroke:none"
         d="m 8248.8,11538.1 -315.76,181.9 c -19.83,120.9 -25.95,202.4 -25.95,202.4 l 250.12,-189.4 c 0,0 40.08,-87.7 91.59,-194.9" /><path
         id="path162"
         style="fill:#ffc0bb;fill-opacity:1;fill-rule:nonzero;stroke:none"
         d="m 9209.12,6430 -11.42,-403.5 -267.88,-194.3 c 0,0 -126.61,170.6 -124.09,194.3 2.52,23.6 24.85,509.6 24.85,509.6 L 9209.12,6430" /><path
         id="path164"
         style="fill:#ffc0bb;fill-opacity:1;fill-rule:nonzero;stroke:none"
         d="m 10415.6,6430 11.5,-403.5 267.8,-194.3 c 0,0 126.6,170.6 124.1,194.3 -2.5,23.6 -24.8,509.6 -24.8,509.6 L 10415.6,6430" /><path
         id="path166"
         style="fill:#f4a640;fill-opacity:1;fill-rule:nonzero;stroke:none"
         d="m 8737.34,6673.9 580.53,-69.2 c 16.01,-1.9 27.05,-17 24.01,-32.9 l -39.29,-204.6 c -2.79,-14.6 -16.46,-24.4 -31.11,-22.3 l -543.7,75.1 c -13.88,1.9 -24.17,13.9 -23.99,27.9 l 2.46,198.7 c 0.21,16.5 14.68,29.2 31.09,27.3" /><path
         id="path168"
         style="fill:#f4a640;fill-opacity:1;fill-rule:nonzero;stroke:none"
         d="m 10872.2,6658.4 -580.6,-69.2 c -16,-1.9 -27,-17 -24,-32.9 l 39.3,-204.6 c 2.8,-14.5 16.5,-24.3 31.1,-22.3 l 543.7,75.1 c 13.9,1.9 24.2,13.9 24,27.9 l -2.5,198.7 c -0.2,16.5 -14.6,29.2 -31,27.3" /><g
         transform="scale(1.09944)"
         id="g170"><path
           id="path172"
           style="fill:#9cdedc;fill-opacity:1;fill-rule:nonzero;stroke:none"
           d="m 13782.3,810.689 c -48,-46.568 -88.3,-138.888 -130.9,-236.577 -34.6,-79.22 -71.8,-164.264 -121.4,-248.217 h -1259.5 c 34.2,21.286 69.1,41.477 105.1,59.85 81.3,41.473 164,73.674 237,102.144 107.7,41.928 209.3,81.586 261.4,133.705 47.4,47.386 87.2,138.707 129.4,235.302 61.8,141.525 138.6,317.614 286.5,461.234 199.8,193.83 453.9,258.59 658.1,310.61 142.9,36.39 277.8,70.77 340.8,134.26 34,34.1 68.3,97.95 104.5,165.63 22.9,42.65 46.6,86.68 74.6,132.61 231.6,379.65 632.5,645.97 1072.2,712.36 24.9,3.83 48.2,6.74 70.6,9.56 36.2,4.45 369.4,72.4 480.5,-3.91 208.8,-143.44 201.3,-456.88 -16.7,-585.85 -25.1,-14.83 -51.6,-28.56 -79.6,-40.75 -109.4,-47.75 -213.2,-60.76 -296.7,-71.13 -18.8,-2.36 -36.6,-4.55 -52.4,-7 -232.1,-35.02 -452.2,-181.28 -574.4,-381.56 -17.8,-29.11 -35.9,-62.85 -55.1,-98.51 -6,-11.27 -12.1,-22.82 -18.6,-34.65 l -311.2,-10.46 224.7,-135.34 c -33.9,-50.66 -73.5,-101.78 -121.2,-149.72 -200.6,-201.64 -459.4,-267.679 -667.4,-320.614 -141.8,-36.201 -275.8,-70.31 -340.3,-132.977" /></g><g
         transform="scale(1.10285)"
         id="g174"><path
           id="path176"
           style="fill:#8fd0d6;fill-opacity:1;fill-rule:nonzero;stroke:none"
           d="m 13563.7,1895.28 c -48.7,-71.73 -75.6,-199.58 -104.1,-334.86 -42.4,-201.57 -90.6,-429.98 -233.6,-647.69 -158.2,-240.74 -383.2,-386.818 -564.1,-504.15 -44.2,-28.654 -86.7,-56.398 -126.1,-83.693 h -1166 c 120,255.341 297.4,483.66 518.5,661.017 92.5,74.076 189.1,136.736 274.3,192.046 125.7,81.52 244.4,158.59 296.9,238.48 47.8,72.72 74.4,199.12 102.6,332.95 41.3,196.04 92.6,439.95 242.9,661.2 202.9,298.77 508.6,447.75 754.4,567.53 171.8,83.78 334.2,162.85 397.7,260.05 34.1,52.33 60.9,142.46 89.2,237.84 17.8,60.21 36.3,122.41 59.9,188.15 108.3,302.4 292.4,573.79 527.8,789.6 l 210,-331.69 -92.4,431.43 c 159.5,125.31 338.1,226.59 529.6,297.32 30.6,11.33 59.5,21.13 87.3,30.65 44.7,15.23 450.1,189.05 611.3,121.32 222,-93.31 320.2,-333.14 261.4,-541.69 l -417.3,-35.18 316.6,-143.81 c -8.9,-9.61 -18,-19.04 -28,-28.02 -27.9,-25.39 -58,-49.78 -90.3,-72.63 -126.5,-89.49 -255,-133.2 -358.3,-168.29 -23.3,-7.98 -45.3,-15.51 -64.9,-22.67 -285.5,-105.54 -526.7,-349.1 -629.4,-635.62 -14.9,-41.71 -29,-89.32 -44,-139.74 -23.3,-78.34 -49.6,-167.47 -87.4,-259.69 l -472.4,-90.94 394.7,-69.73 c -11.2,-19.5 -23,-39.08 -35.7,-58.4 -201.8,-309.02 -513.3,-460.8 -763.7,-582.76 -170.6,-83.15 -331.7,-161.76 -397.4,-258.33" /></g><g
         transform="scale(1.09916)"
         id="g178"><path
           id="path180"
           style="fill:#e3f2f3;fill-opacity:1;fill-rule:nonzero;stroke:none"
           d="m 16010.3,4452.04 v 0 l 285.3,24.02 c 0.1,0.36 0.2,0.72 0.3,1.09 -0.1,-0.37 -0.2,-0.73 -0.3,-1.09 l -285.3,-24.02 m 285.7,25.47 c 0.1,0.28 0.2,0.64 0.3,0.91 -0.1,-0.27 -0.2,-0.63 -0.3,-0.91 m 0.4,1.09 c 0.1,0.37 0.1,0.73 0.2,1 -0.1,-0.27 -0.1,-0.63 -0.2,-1 m 0.3,1.37 c 0.1,0.27 0.1,0.54 0.2,0.82 -0.1,-0.28 -0.1,-0.55 -0.2,-0.82 m 0.3,1.09 c 0.1,0.36 0.2,0.73 0.3,1 -0.1,-0.27 -0.2,-0.64 -0.3,-1 m 0.4,1.36 c 0.1,0.28 0.1,0.55 0.1,0.82 0,-0.27 0,-0.54 -0.1,-0.82 m 0.2,1.1 c 0.1,0.36 0.2,0.73 0.3,1 -0.1,-0.27 -0.2,-0.64 -0.3,-1 m 0.4,1.45 c 0.1,0.19 0.2,0.46 0.2,0.64 0,-0.18 -0.1,-0.45 -0.2,-0.64 m 0.3,1.09 c 0.1,0.28 0.2,0.64 0.2,0.91 0,-0.27 -0.1,-0.63 -0.2,-0.91 m 0.3,1.46 c 0.1,0.18 0.2,0.37 0.2,0.55 0,-0.18 -0.1,-0.37 -0.2,-0.55 m 0.4,1.09 c 0,0.27 0.1,0.55 0.2,0.91 -0.1,-0.36 -0.2,-0.64 -0.2,-0.91 m 0.3,1.37 c 0.1,0.18 0.1,0.36 0.2,0.54 -0.1,-0.18 -0.1,-0.36 -0.2,-0.54 m 0.2,1.09 c 0.1,0.09 0.1,0.27 0.1,0.36 0,-0.09 0,-0.18 -0.1,-0.36 m 0.5,1.55 c 0,0.08 0,0.18 0,0.27 0,-0.09 0,-0.19 0,-0.27" /></g><g
         transform="scale(1.10139)"
         id="g182"><path
           id="path184"
           style="fill:#7fc5cc;fill-opacity:1;fill-rule:nonzero;stroke:none"
           d="m 12442.9,427.098 c 37.1,54.476 80.1,111.403 124.9,170.693 52,69 108.4,143.635 163.3,225.258 h 46.8 v 72.454 c 87.1,139.647 165.2,298.617 208.7,481.667 28.9,122.11 39.5,239.79 39.5,352.64 0,34.59 -1,68.73 -2.9,102.33 83.8,141.91 193.6,273.29 347.1,384.69 934.7,678.41 615.4,513.53 1515.1,1770.76 449.1,627.39 916.2,842.84 1289.8,892.69 91,-110.5 124.8,-259.13 91.8,-396.5 0,-0.09 0,-0.18 0,-0.27 -0.2,-0.37 -0.3,-0.82 -0.4,-1.18 0,-0.1 0,-0.28 -0.1,-0.37 0,-0.18 -0.1,-0.36 -0.1,-0.54 -0.1,-0.18 -0.1,-0.36 -0.2,-0.55 0,-0.09 0,-0.27 -0.1,-0.45 -0.1,-0.36 -0.1,-0.64 -0.1,-0.91 -0.1,-0.18 -0.1,-0.36 -0.2,-0.54 0,-0.18 -0.1,-0.37 -0.2,-0.55 0,-0.18 0,-0.36 -0.1,-0.55 -0.1,-0.26 -0.2,-0.63 -0.3,-0.9 0,-0.18 0,-0.27 -0.1,-0.45 0,-0.19 -0.1,-0.46 -0.1,-0.64 0,-0.18 0,-0.27 -0.1,-0.46 -0.1,-0.27 -0.2,-0.63 -0.3,-0.99 0,-0.09 0,-0.18 -0.1,-0.28 0,-0.27 -0.1,-0.54 -0.2,-0.81 0,-0.09 -0.1,-0.19 -0.1,-0.37 -0.1,-0.27 -0.2,-0.63 -0.2,-0.99 0,-0.1 0,-0.19 -0.1,-0.28 -0.1,-0.27 -0.1,-0.54 -0.2,-0.82 -0.1,-0.08 -0.1,-0.18 -0.1,-0.36 -0.1,-0.27 -0.2,-0.63 -0.3,-1 -0.1,-0.09 -0.1,-0.09 -0.1,-0.18 -0.1,-0.27 -0.2,-0.63 -0.2,-0.91 0,-0.08 0,-0.27 -0.1,-0.36 -0.1,-0.36 -0.2,-0.73 -0.3,-1.09 l -284.7,-23.97 -133.1,-11.26 317,-144 c -8.9,-9.62 -18.1,-19.06 -28,-28.05 -28,-25.42 -58.1,-49.85 -90.5,-72.73 -126.6,-89.61 -255.3,-133.37 -358.7,-168.51 -23.3,-7.99 -45.4,-15.53 -65,-22.7 -285.9,-105.68 -527.4,-349.56 -630.2,-636.47 -1.6,-4.27 -3,-8.53 -4.6,-12.89 -13.2,-38.59 -26,-81.72 -39.4,-126.93 -22.3,-74.9 -47.4,-159.53 -82.3,-247.23 -1.7,-4.27 -3.5,-8.63 -5.3,-12.9 l -473,-91.06 395.2,-69.82 c -11.2,-19.52 -23,-39.13 -35.8,-58.47 -202.1,-309.43 -513.9,-461.42 -764.6,-583.54 -170.9,-83.25 -332.2,-161.97 -398,-258.67 -48.7,-71.82 -75.7,-199.84 -104.2,-335.3 -7.3,-34.6 -14.8,-70.01 -22.8,-105.96 -65.7,-37.68 -129.4,-83.62 -188.3,-140.73 -147.6,-143.36 -224.4,-319.143 -286,-460.417 -42.1,-96.423 -81.9,-187.582 -129.2,-234.884 -52,-52.025 -153.4,-91.613 -260.9,-133.467 -46.2,-17.978 -96.2,-37.499 -147.3,-59.924" /></g><g
         transform="scale(1.01382)"
         id="g186"><path
           id="path188"
           style="fill:#74bdc1;fill-opacity:1;fill-rule:nonzero;stroke:none"
           d="m 15139,4982.14 c 9.9,-163.44 21.7,-362.3 -14.8,-573.97 -264.1,-148.65 -779.8,-439.23 -721,-407.96 55.1,29.39 435.3,117.57 658,167.78 -132.6,-374.62 -396.3,-647.26 -613.3,-871.55 -167.7,-173.31 -326.1,-336.94 -362.5,-480.76 -27.1,-106.82 -3.7,-271.15 20.9,-445.04 36.7,-259.03 78.3,-552.57 2,-874.52 -84.5,-356.08 -289.9,-628.118 -454.9,-846.694 -67.3,-88.973 -130.8,-173.107 -178.7,-251.92 -8.8,-14.499 -17.2,-29.194 -25.4,-44.09 h -1240.5 c 57.2,228.147 147.8,448.107 270.6,649.914 78.3,128.53 166.4,245.21 244.1,348.19 114.7,151.9 223.1,295.42 251.2,413.48 25.4,107.62 2.4,270.07 -22,442.09 -35.7,251.92 -80.1,565.49 3.3,894.74 112.7,444.75 413.1,755.26 654.6,1004.81 168.8,174.49 328.4,339.41 362.1,482.92 18.1,77.34 10.9,196.49 3.4,322.74 -4.8,79.6 -9.7,161.87 -10.1,250.54 -3.1,685.03 287,1358.91 781.8,1830.6 l 227.7,-100.42 -112.4,203.59 c 28.5,23.87 55.7,45.87 82.1,67.07 46.9,37.58 455.5,420.98 677.4,409.94 416.9,-20.72 677.4,-466.95 483.1,-836.34 -22.4,-42.51 -47.8,-84.63 -76.5,-125.96 -112.2,-161.67 -246.6,-269.58 -354.7,-356.28 -24.3,-19.62 -47.4,-38.07 -67.6,-55.23 -295.2,-249.75 -477.5,-645.18 -475.8,-1031.84 0.2,-56.32 4,-119.25 7.9,-185.83" /></g><g
         transform="scale(1.00289)"
         id="g190"><path
           id="path192"
           style="fill:#cfeced;fill-opacity:1;fill-rule:nonzero;stroke:none"
           d="m 14559.9,4043.72 c 0.1,0 0.2,0.09 0.3,0.09 -0.1,0 -0.2,-0.09 -0.3,-0.09 m 722.3,408.61 c 0,0.1 0.1,0.1 0.1,0.1 0,0 -0.1,0 -0.1,-0.1 m 2,1.2 c 0.7,0.4 1.4,0.8 2.1,1.2 -0.7,-0.4 -1.4,-0.8 -2.1,-1.2 m 3.1,1.7 c 0.1,0.09 0.2,0.2 0.3,0.2 -0.1,0 -0.2,-0.11 -0.3,-0.2 m 16.8,581.22 c -4,66.8 -7.8,129.92 -8.1,186.56 0.3,-56.64 4.1,-119.76 8.1,-186.56 m -8.1,187.85 c 0,1.6 0,3.09 0,4.59 0,-1.5 0,-2.99 0,-4.59 m 985.9,1587.52 c 0,0.19 0.1,0.3 0.2,0.39 -0.1,-0.09 -0.2,-0.2 -0.2,-0.39 m 0.5,1.19 c 0.2,0.2 0.2,0.3 0.2,0.4 0,-0.1 0,-0.3 -0.2,-0.4 m 0.6,1.2 c 0.1,0.1 0.1,0.3 0.2,0.4 0,-0.1 -0.1,-0.3 -0.2,-0.4 m 0.6,1.1 c 0.1,0.19 0.2,0.4 0.2,0.49 0,-0.09 -0.1,-0.3 -0.2,-0.49 m 0.6,1.19 c 0.1,0.1 0.2,0.3 0.2,0.5 0,-0.2 -0.1,-0.3 -0.2,-0.5 m 0.6,1.2 c 0.1,0.1 0.2,0.3 0.2,0.5 0,-0.2 -0.1,-0.4 -0.2,-0.5 m 0.6,1.2 c 0.1,0.09 0.1,0.3 0.2,0.39 0,-0.09 -0.1,-0.3 -0.2,-0.39 m 0.6,1.09 c 0.1,0.2 0.1,0.4 0.2,0.5 0,-0.1 -0.1,-0.3 -0.2,-0.5 m 0.7,1.5 c 0.1,0.1 0.1,0.2 0.2,0.3 -0.1,-0.1 -0.1,-0.2 -0.2,-0.3 m 0.7,1.29 c 0,0.11 0.1,0.3 0.2,0.5 -0.1,-0.2 -0.1,-0.3 -0.2,-0.5 m 0.6,1.2 c 0,0.2 0.1,0.3 0.2,0.5 -0.1,-0.2 -0.2,-0.3 -0.2,-0.5 m 0.5,1.2 c 0.1,0.1 0.2,0.3 0.3,0.5 -0.1,-0.2 -0.2,-0.4 -0.3,-0.5 m 0.6,1.09 c 0.1,0.2 0.2,0.41 0.3,0.5 -0.1,-0.09 -0.2,-0.3 -0.3,-0.5 m 0.6,1.2 c 0.1,0.2 0.1,0.3 0.2,0.5 -0.1,-0.2 -0.1,-0.3 -0.2,-0.5 m 0.6,1.2 c 0.1,0.2 0.1,0.3 0.2,0.5 -0.1,-0.2 -0.1,-0.3 -0.2,-0.5 m 0.5,1.2 c 0.1,0.09 0.2,0.3 0.3,0.49 -0.1,-0.19 -0.2,-0.4 -0.3,-0.49 m 0.7,1.29 c 0,0.1 0.1,0.2 0.1,0.3 0,-0.1 -0.1,-0.2 -0.1,-0.3 m 1.2,2.69 c 0.1,0.1 0.1,0.1 0.1,0.2 0,-0.1 0,-0.1 -0.1,-0.2 m 0.6,1.2 c 0.1,0.1 0.1,0.2 0.2,0.3 -0.1,-0.1 -0.1,-0.2 -0.2,-0.3 m 0.6,1.2 c 0,0.1 0.1,0.19 0.1,0.3 0,-0.11 -0.1,-0.2 -0.1,-0.3 m 0.5,1.19 c 0.1,0.1 0.1,0.2 0.2,0.3 -0.1,-0.1 -0.1,-0.2 -0.2,-0.3 m 0.6,1.2 c 0,0.1 0.1,0.2 0.1,0.3 0,-0.1 -0.1,-0.2 -0.1,-0.3 m 0.5,1.2 c 0.1,0.09 0.1,0.2 0.2,0.3 -0.1,-0.1 -0.1,-0.21 -0.2,-0.3 m 0.7,1.29 c 0,0.1 0,0.1 0,0.1 0,0 0,0 0,-0.1 m 2.7,6.28 c 0.1,0 0.1,0 0.1,0 0,0 0,0 -0.1,0 m 0.6,1.2 v 0 0 m 0.5,1.2 v 0.1 -0.1" /></g><path
         id="path194"
         style="fill:#71bbc2;fill-opacity:1;fill-rule:nonzero;stroke:none"
         d="m 13704.5,470.402 c 40.9,60 88.2,122.7 137.6,188 57.3,75.996 119.4,158.2 179.8,248.098 v 0 c -60.4,-89.898 -122.5,-172.102 -179.8,-248.098 -49.4,-65.3 -96.7,-128 -137.6,-188 v 0" /><g
         transform="scale(1.00818)"
         id="g196"><path
           id="path198"
           style="fill:#67b3b8;fill-opacity:1;fill-rule:nonzero;stroke:none"
           d="m 13381.2,355.394 h -430.1 c 114.5,176.359 224.8,360.749 319.6,543.753 h 637.5 c -60,-89.169 -121.5,-170.706 -178.4,-246.085 -49,-64.771 -95.9,-126.962 -136.5,-186.475 -32.2,-14.185 -64.9,-29.362 -97.5,-45.926 -39.2,-20.035 -77.3,-42.054 -114.6,-65.267 m 578.1,622.906 v 3.371 c 0,91.159 -20.6,177.549 -57.5,254.719 h -4.9 c -68.8,138.86 -189.2,247.58 -336.2,301.04 l -15,94.42 c 21.6,118.83 26.2,229.82 9.2,329.31 -154.3,904.41 20.5,837.45 572.9,1641.38 552.3,803.92 117.5,720.21 586.5,2210.03 269.3,855.7 925.3,1323.37 1435,1566.58 114.8,-157.01 150.7,-369.18 65.2,-565.18 v -0.09 c -0.2,-0.4 -0.3,-0.8 -0.5,-1.2 v 0 c -0.2,-0.39 -0.4,-0.79 -0.5,-1.19 0,0 0,0 -0.1,0 -0.9,-2.08 -1.8,-4.06 -2.7,-6.14 0,0 0,0 0,-0.1 -0.2,-0.3 -0.4,-0.7 -0.5,-0.99 -0.1,-0.1 -0.1,-0.2 -0.2,-0.3 -0.1,-0.3 -0.2,-0.6 -0.4,-0.9 0,-0.09 -0.1,-0.19 -0.1,-0.29 -0.2,-0.3 -0.3,-0.6 -0.4,-0.9 -0.1,-0.09 -0.1,-0.19 -0.2,-0.29 -0.1,-0.3 -0.3,-0.6 -0.4,-0.9 0,-0.1 -0.1,-0.19 -0.1,-0.29 -0.2,-0.3 -0.3,-0.6 -0.3,-0.89 -0.1,-0.11 -0.1,-0.2 -0.2,-0.3 -0.1,-0.3 -0.3,-0.7 -0.5,-0.99 0,-0.11 0,-0.11 -0.1,-0.2 -0.3,-0.8 -0.7,-1.59 -1.1,-2.39 0,-0.09 -0.1,-0.19 -0.1,-0.29 -0.2,-0.3 -0.3,-0.6 -0.4,-0.79 -0.1,-0.2 -0.2,-0.4 -0.3,-0.5 -0.1,-0.3 -0.2,-0.5 -0.3,-0.69 -0.1,-0.21 -0.1,-0.3 -0.2,-0.5 -0.1,-0.2 -0.3,-0.5 -0.4,-0.7 -0.1,-0.19 -0.1,-0.29 -0.2,-0.49 -0.1,-0.2 -0.2,-0.4 -0.3,-0.7 -0.1,-0.09 -0.2,-0.29 -0.3,-0.49 -0.1,-0.2 -0.2,-0.4 -0.3,-0.6 -0.1,-0.2 -0.2,-0.39 -0.3,-0.49 -0.1,-0.3 -0.2,-0.5 -0.3,-0.7 -0.1,-0.2 -0.2,-0.29 -0.2,-0.49 -0.2,-0.2 -0.3,-0.5 -0.4,-0.7 -0.1,-0.2 -0.2,-0.39 -0.2,-0.49 -0.2,-0.3 -0.3,-0.6 -0.5,-1 -0.1,-0.09 -0.1,-0.19 -0.2,-0.29 -0.1,-0.3 -0.3,-0.7 -0.5,-1 -0.1,-0.09 -0.1,-0.29 -0.2,-0.49 -0.1,-0.2 -0.2,-0.4 -0.4,-0.7 -0.1,-0.09 -0.1,-0.29 -0.2,-0.39 -0.1,-0.3 -0.2,-0.5 -0.4,-0.69 0,-0.21 -0.1,-0.4 -0.2,-0.5 -0.1,-0.3 -0.2,-0.5 -0.4,-0.7 0,-0.2 -0.1,-0.39 -0.2,-0.49 -0.1,-0.2 -0.2,-0.5 -0.4,-0.7 0,-0.09 -0.1,-0.3 -0.2,-0.49 -0.1,-0.2 -0.3,-0.4 -0.4,-0.7 -0.1,-0.1 -0.1,-0.3 -0.2,-0.39 -0.1,-0.3 -0.3,-0.5 -0.4,-0.8 -0.1,-0.1 -0.1,-0.19 -0.2,-0.4 -0.2,-0.29 -0.3,-0.49 -0.4,-0.79 -0.1,-0.1 -0.2,-0.2 -0.2,-0.39 -0.2,-0.4 -0.4,-0.8 -0.5,-1.09 v 0 c -22.6,-42.76 -48.1,-85.11 -76.9,-126.67 -112.9,-162.57 -248.1,-271.08 -356.7,-358.27 -24.5,-19.74 -47.7,-38.28 -68,-55.55 -7.6,-6.34 -15,-12.79 -22.5,-19.34 -282.5,-250.95 -456.3,-636.19 -456,-1013.71 0,-1.49 0,-2.97 0,-4.56 v 0 c 0,-0.4 0,-0.89 0,-1.29 0.3,-56.34 4,-119.13 8,-185.58 v 0 c 4.9,-79.65 10.1,-167.53 10,-261.26 0,-99.79 -6,-206.12 -25,-315.92 v 0 c -0.5,-0.3 -0.9,-0.5 -1.4,-0.79 -0.1,0 -0.2,-0.11 -0.3,-0.2 -0.4,-0.2 -0.7,-0.3 -1,-0.5 -0.6,-0.4 -1.3,-0.79 -2,-1.19 -0.6,-0.3 -1.2,-0.7 -1.9,-1.09 0,0 -0.1,0 -0.1,-0.1 -253.9,-142.83 -725.7,-408.66 -722.9,-408.66 0.1,0 1.6,0.7 4.4,2.19 0.1,0 0.2,0.09 0.3,0.09 v 0 c 55.3,29.56 437.7,118.24 661.6,168.72 -133.4,-376.72 -398.5,-650.88 -616.7,-876.43 -168.6,-174.27 -327.9,-338.83 -364.5,-483.44 -8.7,-34.22 -12.2,-74.3 -12.2,-118.64 0,-94.92 16.2,-209.68 33.2,-328.9 21.7,-153.15 45.1,-318.3 45.1,-494.17 0,-123.28 -11.5,-251.83 -43.1,-385.24 -47.5,-199.97 -132.8,-373.65 -228,-526.2" /></g><g
         transform="scale(1.09944)"
         id="g200"><path
           id="path202"
           style="fill:#9cdedc;fill-opacity:1;fill-rule:nonzero;stroke:none"
           d="m 13782.3,810.689 c -48,-46.568 -88.3,-138.888 -130.9,-236.577 -34.6,-79.22 -71.8,-164.264 -121.4,-248.217 h -1259.5 c 34.2,21.286 69.1,41.477 105.1,59.85 81.3,41.473 164,73.674 237,102.144 107.7,41.928 209.3,81.586 261.4,133.705 47.4,47.386 87.2,138.707 129.4,235.302 61.8,141.525 138.6,317.614 286.5,461.234 199.8,193.83 453.9,258.59 658.1,310.61 142.9,36.39 277.8,70.77 340.8,134.26 34,34.1 68.3,97.95 104.5,165.63 22.9,42.65 46.6,86.68 74.6,132.61 231.6,379.65 632.5,645.97 1072.2,712.36 24.9,3.83 48.2,6.74 70.6,9.56 36.2,4.45 369.4,72.4 480.5,-3.91 208.8,-143.44 201.3,-456.88 -16.7,-585.85 -25.1,-14.83 -51.6,-28.56 -79.6,-40.75 -109.4,-47.75 -213.2,-60.76 -296.7,-71.13 -18.8,-2.36 -36.6,-4.55 -52.4,-7 -232.1,-35.02 -452.2,-181.28 -574.4,-381.56 -17.8,-29.11 -35.9,-62.85 -55.1,-98.51 -6,-11.27 -12.1,-22.82 -18.6,-34.65 l -311.2,-10.46 224.7,-135.34 c -33.9,-50.66 -73.5,-101.78 -121.2,-149.72 -200.6,-201.64 -459.4,-267.679 -667.4,-320.614 -141.8,-36.201 -275.8,-70.31 -340.3,-132.977" /></g><path
         id="path204"
         style="fill:#e3f2f3;fill-opacity:1;fill-rule:nonzero;stroke:none"
         d="m 14875.4,358.301 h -504.5 v 0 h 504.5 c 54.5,92.301 95.4,185.801 133.4,272.898 46.9,107.403 91.2,208.903 143.9,260.102 71,68.898 218.3,106.398 374.2,146.199 228.7,58.2 513.2,130.8 733.8,352.5 v 0 0 c -220.6,-221.7 -505.1,-294.3 -733.8,-352.5 -155.9,-39.801 -303.2,-77.301 -374.2,-146.199 -52.7,-51.199 -97,-152.699 -143.9,-260.102 -38,-87.097 -78.9,-180.597 -133.4,-272.898" /><g
         transform="scale(1.08451)"
         id="g206"><path
           id="path208"
           style="fill:#e3f2f3;fill-opacity:1;fill-rule:nonzero;stroke:none"
           d="m 15898.3,2108.14 c 5.3,0.65 10.6,1.39 16,2.03 84.6,10.51 189.9,23.7 300.8,72.11 28.4,12.35 55.2,26.28 80.7,41.31 v 0 0 c -25.5,-15.03 -52.3,-28.96 -80.7,-41.31 -110.9,-48.41 -216.2,-61.6 -300.8,-72.11 -5.4,-0.64 -10.7,-1.38 -16,-2.03 m 398.1,115.81 c 0.1,0.1 0.1,0.1 0.2,0.1 -0.1,0 -0.1,-0.1 -0.2,-0.1 m 0.7,0.47 c 0,0 0.1,0 0.2,0.09 -0.1,-0.09 -0.2,-0.09 -0.2,-0.09 m 0.7,0.37 c 0.1,0 0.1,0.09 0.2,0.09 -0.1,0 -0.1,-0.09 -0.2,-0.09 m 0.7,0.46 c 0,0 0.1,0 0.1,0.09 0,-0.09 -0.1,-0.09 -0.1,-0.09 m 0.7,0.36 c 0.1,0 0.1,0.1 0.2,0.1 -0.1,0 -0.1,-0.1 -0.2,-0.1 m 0.7,0.47 c 0,0 0,0 0.1,0 -0.1,0 -0.1,0 -0.1,0" /></g><g
         transform="scale(1.09603)"
         id="g210"><path
           id="path212"
           style="fill:#8bd3d1;fill-opacity:1;fill-rule:nonzero;stroke:none"
           d="m 13572.1,326.908 h -460.3 c 125.5,242.145 382.3,675.892 669.6,810.382 405.9,190.05 496.8,304.64 1236.2,951.7 364.2,318.61 862.7,414.95 1275.1,430.65 7.3,-121.62 -47.5,-245.89 -164,-316.96 -0.1,0 -0.1,0 -0.1,0 -0.2,-0.09 -0.4,-0.28 -0.6,-0.37 -0.1,0 -0.1,-0.09 -0.2,-0.09 -0.1,-0.09 -0.3,-0.18 -0.5,-0.27 0,-0.09 -0.1,-0.09 -0.1,-0.09 -0.2,-0.19 -0.4,-0.28 -0.6,-0.37 0,0 0,-0.09 -0.1,-0.09 -0.2,-0.09 -0.4,-0.18 -0.5,-0.28 -0.1,-0.08 -0.2,-0.08 -0.2,-0.08 -0.2,-0.19 -0.3,-0.28 -0.5,-0.37 -0.1,0 -0.1,0 -0.2,-0.09 -0.2,-0.09 -0.5,-0.28 -0.6,-0.37 v 0 c -25.2,-14.87 -51.8,-28.65 -79.9,-40.87 -109.7,-47.9 -213.8,-60.95 -297.6,-71.35 -5.3,-0.64 -10.6,-1.37 -15.8,-2.01 -13,-1.64 -25.4,-3.28 -36.8,-5.02 -206,-31.11 -402.5,-149.44 -530,-315.5 -16.6,-21.62 -32.1,-44.06 -46.2,-67.24 -17.8,-29.2 -36,-63.05 -55.2,-98.81 -6,-11.31 -12.2,-22.9 -18.7,-34.76 l -312.1,-10.49 225.3,-135.77 c -0.8,-1.18 -1.6,-2.37 -2.4,-3.56 -33.5,-49.63 -72.4,-99.63 -119.1,-146.62 v 0 c -201.3,-202.27 -460.9,-268.512 -669.5,-321.612 -142.3,-36.314 -276.7,-70.528 -341.4,-133.39 -48.1,-46.713 -88.5,-139.32 -131.3,-237.312 -34.7,-79.467 -72,-164.775 -121.7,-248.988" /></g><path
         id="path214"
         style="fill:#9cdedc;fill-opacity:1;fill-rule:nonzero;stroke:none"
         d="m 5406.3,891.301 c 52.77,-51.199 97.04,-152.699 143.92,-260.102 38.03,-87.097 78.94,-180.597 133.45,-272.898 H 7068.4 c -37.57,23.402 -76,45.601 -115.56,65.801 -89.45,45.597 -180.34,81 -260.53,112.3 -118.33,46.098 -230.1,89.7 -287.35,147 -52.15,52.098 -95.94,152.5 -142.3,258.7 -67.88,155.598 -152.39,349.198 -315.06,507.098 -219.65,213.1 -499.02,284.3 -723.49,341.5 -157.03,40 -305.34,77.8 -374.7,147.6 -37.37,37.5 -75.03,107.7 -114.91,182.1 -25.14,46.9 -51.13,95.3 -81.96,145.8 -254.7,417.4 -695.38,710.2 -1178.82,783.2 -27.42,4.2 -52.99,7.4 -77.72,10.5 -39.76,4.9 -406.08,79.6 -528.2,-4.3 -229.57,-157.7 -221.35,-502.3 18.36,-644.1 27.57,-16.3 56.68,-31.4 87.46,-44.8 120.33,-52.5 234.47,-66.8 326.17,-78.2 20.72,-2.6 40.31,-5 57.78,-7.7 255.1,-38.5 497.04,-199.3 631.44,-419.5 19.56,-32 39.44,-69.1 60.48,-108.3 6.63,-12.4 13.48,-25.1 20.52,-38.1 l 342.15,-11.5 -247.03,-148.8 c 37.32,-55.7 80.79,-111.9 133.2,-164.6 220.6,-221.7 505.15,-294.3 733.79,-352.5 155.9,-39.801 303.16,-77.301 374.18,-146.199" /><path
         id="path216"
         style="fill:#8fd0d6;fill-opacity:1;fill-rule:nonzero;stroke:none"
         d="m 5600.3,2090.2 c 53.75,-79.1 83.43,-220.1 114.86,-369.3 46.8,-222.3 99.85,-474.2 257.59,-714.3 174.48,-265.498 422.71,-426.6 622.16,-555.998 48.68,-31.602 95.66,-62.2 139.01,-92.301 h 1286 c -132.39,281.601 -327.95,533.402 -571.93,728.999 -101.97,81.7 -208.46,150.8 -302.41,211.8 -138.64,89.9 -269.58,174.9 -327.45,263 -52.7,80.2 -82.05,219.6 -113.15,367.2 -45.51,216.2 -102.16,485.2 -267.87,729.2 -223.75,329.5 -560.98,493.8 -831.96,625.9 -189.56,92.4 -368.6,179.6 -438.61,286.8 -37.72,57.7 -67.21,157.1 -98.44,262.3 -19.69,66.4 -40.04,135 -66.01,207.5 -119.45,333.5 -322.6,632.8 -582.13,870.8 l -231.6,-365.8 102.01,475.8 c -176.02,138.2 -372.97,249.9 -584.1,327.9 -33.84,12.5 -65.59,23.3 -96.3,33.8 -49.36,16.8 -496.48,208.5 -674.22,133.8 -244.82,-102.9 -353.16,-367.4 -288.2,-597.4 l 460.19,-38.8 -349.18,-158.6 c 9.77,-10.6 19.91,-21 30.84,-30.9 30.83,-28 63.97,-54.9 99.66,-80.1 139.49,-98.7 281.19,-146.9 395.03,-185.6 25.74,-8.8 50.05,-17.1 71.62,-25 314.92,-116.4 580.88,-385 694.1,-701 16.49,-46 32.06,-98.5 48.53,-154.1 25.65,-86.4 54.84,-184.7 96.39,-286.4 l 520.98,-100.3 -435.24,-76.9 c 12.33,-21.5 25.37,-43.1 39.33,-64.4 222.69,-340.8 566.18,-508.2 842.18,-642.7 188.21,-91.7 365.97,-178.4 438.32,-284.9" /><path
         id="path218"
         style="fill:#e3f2f3;fill-opacity:1;fill-rule:nonzero;stroke:none"
         d="m 4855.33,2534.5 c -195.07,113.6 -390.82,261.9 -535.53,483.3 v 0 0 c 144.71,-221.4 340.46,-369.7 535.53,-483.3 v 0" /><path
         id="path220"
         style="fill:#cfeced;fill-opacity:1;fill-rule:nonzero;stroke:none"
         d="m 5740.27,1604.2 v 0 c -8.88,39.6 -17.09,78.6 -25.11,116.7 -31.43,149.2 -61.11,290.2 -114.86,369.3 -72.35,106.5 -250.11,193.2 -438.32,284.9 -96.64,47.1 -201.54,98.2 -306.65,159.4 v 0 c 105.11,-61.2 210.01,-112.3 306.65,-159.4 188.21,-91.7 365.97,-178.4 438.32,-284.9 53.75,-79.1 83.43,-220.1 114.86,-369.3 8.02,-38.1 16.23,-77.1 25.11,-116.7" /><path
         id="path222"
         style="fill:#e3f2f3;fill-opacity:1;fill-rule:nonzero;stroke:none"
         d="m 4054.81,3685.7 c -1.66,4.8 -3.32,9.5 -5,14.2 -113.22,316 -379.18,584.6 -694.1,701 -21.57,7.9 -45.89,16.2 -71.62,25 -113.84,38.7 -255.54,86.9 -395.03,185.6 -35.69,25.2 -68.83,52.1 -99.66,80.1 -10.93,9.9 -21.07,20.3 -30.84,30.9 v 0 c 9.77,-10.6 19.91,-21 30.84,-30.9 30.83,-28 63.97,-54.9 99.66,-80.1 139.49,-98.7 281.19,-146.9 395.03,-185.6 25.74,-8.8 50.05,-17.1 71.62,-25 314.92,-116.4 580.88,-385 694.1,-701 1.68,-4.7 3.34,-9.4 5,-14.2 m -947.07,1195.4 -460.19,38.8 c -0.12,0.4 -0.23,0.8 -0.34,1.2 0.11,-0.4 0.22,-0.8 0.34,-1.2 l 460.19,-38.8 m -460.62,40.4 c -0.1,0.3 -0.21,0.7 -0.31,1.1 0.1,-0.4 0.21,-0.8 0.31,-1.1 m -0.33,1.2 c -0.11,0.3 -0.22,0.7 -0.33,1.1 0.11,-0.4 0.22,-0.8 0.33,-1.1 m -0.42,1.5 c -0.09,0.3 -0.18,0.6 -0.27,1 0.1,-0.4 0.18,-0.7 0.27,-1 m -0.33,1.2 c -0.1,0.4 -0.21,0.8 -0.31,1.1 0.1,-0.3 0.21,-0.7 0.31,-1.1 m -0.41,1.5 c -0.08,0.3 -0.15,0.6 -0.23,0.9 0.08,-0.3 0.16,-0.6 0.23,-0.9 m -0.32,1.2 c -0.1,0.4 -0.2,0.8 -0.29,1.1 0.09,-0.3 0.19,-0.7 0.29,-1.1 m -0.4,1.6 c -0.07,0.2 -0.14,0.5 -0.21,0.8 0.07,-0.3 0.14,-0.6 0.21,-0.8 m -0.32,1.2 c -0.09,0.3 -0.18,0.7 -0.27,1 0.09,-0.3 0.18,-0.7 0.27,-1 m -0.4,1.6 c -0.05,0.2 -0.11,0.4 -0.16,0.6 0.05,-0.2 0.1,-0.4 0.16,-0.6 m -0.3,1.2 c -0.07,0.2 -0.14,0.5 -0.21,0.8 0.07,-0.3 0.14,-0.6 0.21,-0.8 m -0.4,1.6 c -0.04,0.1 -0.09,0.3 -0.13,0.5 0.04,-0.2 0.08,-0.4 0.13,-0.5 m -0.29,1.1 c -0.04,0.2 -0.08,0.3 -0.12,0.5 0.04,-0.2 0.08,-0.3 0.12,-0.5 m -0.41,1.7 c -0.03,0.1 -0.05,0.2 -0.08,0.3 0.03,-0.1 0.05,-0.2 0.08,-0.3 m -0.27,1.1 c -0.01,0.1 -0.02,0.1 -0.03,0.2 0.01,-0.1 0.02,-0.1 0.03,-0.2 m -0.42,1.8 c -0.01,0.1 -0.02,0.1 -0.03,0.1 0.01,0 0.02,0 0.03,-0.1" /><path
         id="path224"
         style="fill:#7fc5cc;fill-opacity:1;fill-rule:nonzero;stroke:none"
         d="m 6854.49,470.402 c -56.3,24.7 -111.39,46.2 -162.18,66 -118.33,46.098 -230.1,89.7 -287.35,147 -52.15,52.098 -95.94,152.5 -142.3,258.7 -67.88,155.598 -152.39,349.198 -315.06,507.098 -64.89,62.9 -134.97,113.5 -207.33,155 v 0 c -8.88,39.6 -17.09,78.6 -25.11,116.7 -31.43,149.2 -61.11,290.2 -114.86,369.3 -72.35,106.5 -250.11,193.2 -438.32,284.9 -96.64,47.1 -201.54,98.2 -306.65,159.4 -195.07,113.6 -390.82,261.9 -535.53,483.3 v 0 c -13.52,20.7 -26.18,41.5 -38.18,62.4 -0.38,0.7 -0.77,1.4 -1.15,2 l 435.25,76.9 -520.99,100.3 c -1.94,4.7 -3.86,9.5 -5.76,14.2 -38.52,96.6 -66.18,189.8 -90.63,272.3 -14.8,49.8 -28.86,97.3 -43.53,139.8 -1.66,4.8 -3.32,9.5 -5,14.2 -113.22,316 -379.18,584.6 -694.1,701 -21.57,7.9 -45.88,16.2 -71.62,25 -113.84,38.7 -255.54,86.9 -395.03,185.6 -35.69,25.2 -68.83,52.1 -99.66,80.1 -10.93,9.9 -21.07,20.3 -30.84,30.9 l 349.18,158.6 -460.19,38.8 c -0.12,0.4 -0.23,0.8 -0.34,1.2 -0.03,0.1 -0.06,0.3 -0.09,0.4 -0.1,0.3 -0.21,0.7 -0.31,1.1 -0.01,0 -0.01,0 -0.02,0.1 -0.11,0.3 -0.22,0.7 -0.33,1.1 -0.03,0.2 -0.06,0.3 -0.09,0.4 -0.09,0.3 -0.17,0.6 -0.27,1 -0.02,0 -0.04,0.1 -0.06,0.2 -0.1,0.4 -0.21,0.8 -0.31,1.1 -0.03,0.2 -0.06,0.3 -0.1,0.4 -0.07,0.3 -0.15,0.6 -0.23,0.9 -0.03,0.1 -0.06,0.2 -0.09,0.3 -0.1,0.4 -0.2,0.8 -0.29,1.1 -0.04,0.2 -0.07,0.3 -0.11,0.5 -0.07,0.2 -0.14,0.5 -0.21,0.8 -0.04,0.1 -0.07,0.2 -0.11,0.4 -0.09,0.3 -0.18,0.7 -0.27,1 -0.04,0.2 -0.08,0.4 -0.13,0.6 -0.06,0.2 -0.11,0.4 -0.16,0.6 -0.05,0.2 -0.09,0.4 -0.14,0.6 -0.07,0.2 -0.14,0.5 -0.21,0.8 -0.06,0.2 -0.13,0.5 -0.19,0.8 -0.05,0.1 -0.09,0.3 -0.13,0.5 -0.05,0.2 -0.1,0.4 -0.16,0.6 -0.04,0.2 -0.08,0.3 -0.12,0.5 -0.09,0.4 -0.19,0.8 -0.29,1.2 -0.03,0.1 -0.05,0.2 -0.08,0.3 -0.06,0.3 -0.12,0.6 -0.19,0.8 -0.01,0.1 -0.02,0.1 -0.03,0.2 -0.13,0.5 -0.26,1.1 -0.39,1.6 -0.01,0.1 -0.02,0.1 -0.03,0.1 -35.3,150.6 2.02,313.1 101.75,434 411.37,-54.9 925.93,-292.2 1420.5,-983.2 991.03,-1384.7 639.34,-1203.1 1668.84,-1950.3 168.98,-122.7 289.85,-267.4 382.13,-423.7 -8.21,-158 -1.2,-325.4 40.48,-501.1 34.88,-147 90.06,-279.8 154.54,-400.7 -8.81,-40.7 -13.45,-83 -13.45,-126.401 v -13.597 0 -69.602 h 140.3 c 60.36,-89.898 122.48,-172.102 179.82,-248.098 49.33,-65.3 96.68,-128 137.51,-188" /><path
         id="path226"
         style="fill:#74bdc1;fill-opacity:1;fill-rule:nonzero;stroke:none"
         d="m 5210.7,5051 c -9.96,-165.7 -21.97,-367.3 15.17,-581.9 267.7,-150.7 790.48,-445.3 730.89,-413.6 -55.86,29.8 -441.32,119.2 -667.11,170.1 134.48,-379.8 401.81,-656.2 621.78,-883.6 169.99,-175.7 330.58,-341.6 367.52,-487.4 27.44,-108.3 3.83,-274.9 -21.18,-451.2 -37.23,-262.6 -79.42,-560.2 -2,-886.6 85.65,-361 293.88,-636.8 461.21,-858.398 68.16,-90.203 132.53,-175.5 181.16,-255.402 8.93,-14.699 17.42,-29.598 25.7,-44.699 h 1257.62 c -57.9,231.301 -149.78,454.301 -274.35,658.899 -79.34,130.3 -168.66,248.6 -247.48,353 -116.3,154 -226.14,299.5 -254.56,419.2 -25.86,109.1 -2.5,273.8 22.22,448.2 36.22,255.4 81.27,573.3 -3.34,907.1 -114.24,450.9 -418.84,765.7 -663.62,1018.7 -171.23,176.9 -332.96,344.1 -367.1,489.6 -18.39,78.4 -11.13,199.2 -3.45,327.2 4.85,80.7 9.86,164.1 10.26,254 3.05,694.5 -290.99,1377.7 -792.62,1855.9 l -230.85,-101.8 113.96,206.4 c -28.87,24.2 -56.52,46.5 -83.29,68 -47.48,38.1 -461.8,426.8 -686.67,415.6 -422.7,-21 -686.85,-473.4 -489.79,-847.9 22.65,-43.1 48.33,-85.8 77.44,-127.7 113.79,-163.9 250.09,-273.3 359.6,-361.2 24.74,-19.9 48.13,-38.6 68.62,-56 299.28,-253.2 484.12,-654.1 482.41,-1046.1 -0.25,-57.1 -4.09,-120.9 -8.15,-188.4" /><path
         id="path228"
         style="fill:#cfeced;fill-opacity:1;fill-rule:nonzero;stroke:none"
         d="m 6280.62,2847.7 v 0 c -0.54,2.3 -1.09,4.6 -1.67,6.9 -36.95,145.8 -197.53,311.7 -367.52,487.4 -219.97,227.4 -487.3,503.8 -621.78,883.6 v 0 c 134.48,-379.8 401.81,-656.2 621.78,-883.6 169.99,-175.7 330.58,-341.6 367.52,-487.4 0.58,-2.3 1.13,-4.6 1.67,-6.9 m -323.6,1207.7 c -0.09,0 -0.17,0.1 -0.26,0.1 0.09,0 0.17,-0.1 0.26,-0.1 m -721.17,408.1 c -0.13,0 -0.3,0.1 -0.44,0.2 0.14,-0.1 0.31,-0.2 0.44,-0.2 m -2.92,1.6 c -0.15,0.1 -0.28,0.2 -0.43,0.2 0.15,0 0.28,-0.1 0.43,-0.2 m -2.2,1.2 c -0.28,0.2 -0.57,0.4 -0.85,0.5 0.28,-0.1 0.57,-0.3 0.85,-0.5 m -1.47,0.9 c -0.77,0.4 -1.52,0.8 -2.29,1.3 0.77,-0.5 1.52,-0.9 2.29,-1.3 M 5210.7,5051 c 4.03,67 7.84,130.3 8.14,187.1 -0.3,-56.8 -4.11,-120.1 -8.14,-187.1 m -980.53,1780.5 c -0.06,0.1 -0.12,0.3 -0.18,0.4 0.06,-0.2 0.12,-0.3 0.18,-0.4 m -0.62,1.2 c -0.06,0.1 -0.13,0.3 -0.19,0.4 0.06,-0.1 0.13,-0.3 0.19,-0.4 m -0.61,1.2 c -0.07,0.1 -0.13,0.2 -0.21,0.4 0.07,-0.2 0.14,-0.3 0.21,-0.4 m -0.61,1.2 c -0.07,0.1 -0.13,0.2 -0.2,0.4 0.07,-0.2 0.13,-0.3 0.2,-0.4 m -0.61,1.1 c -0.07,0.2 -0.13,0.3 -0.2,0.4 0.07,-0.1 0.13,-0.2 0.2,-0.4 m -0.61,1.2 c -0.06,0.2 -0.13,0.3 -0.19,0.4 0.07,-0.1 0.12,-0.2 0.19,-0.4 m -0.63,1.3 c -0.05,0.1 -0.1,0.2 -0.15,0.3 0.06,-0.1 0.09,-0.2 0.15,-0.3 m -0.72,1.4 c -0.01,0 -0.01,0 -0.01,0 h 0.01 m -1.82,3.7 c -0.03,0 -0.06,0.1 -0.09,0.1 0.03,0 0.07,-0.1 0.09,-0.1 m -0.59,1.2 c -0.03,0 -0.07,0.1 -0.1,0.2 0.03,-0.1 0.06,-0.2 0.1,-0.2 m -0.59,1.2 c -0.03,0 -0.07,0.1 -0.11,0.2 0.03,-0.1 0.08,-0.2 0.11,-0.2 m -0.59,1.2 c -0.03,0 -0.07,0.1 -0.1,0.2 0.03,-0.1 0.07,-0.2 0.1,-0.2 m -0.61,1.2 c -0.02,0.1 -0.04,0.1 -0.06,0.2 0.01,-0.1 0.05,-0.1 0.06,-0.2" /><path
         id="path230"
         style="fill:#7fc5cc;fill-opacity:1;fill-rule:nonzero;stroke:none"
         d="m 6215.29,2017.9 v 0 c 5.2,100 16.49,196.3 28.96,288.6 -12.47,-92.3 -23.76,-188.6 -28.96,-288.6" /><path
         id="path232"
         style="fill:#71bbc2;fill-opacity:1;fill-rule:nonzero;stroke:none"
         d="m 6854.49,470.402 v 0 c -40.83,60 -88.18,122.7 -137.51,188 -57.34,75.996 -119.46,158.2 -179.82,248.098 v 0 c 60.36,-89.898 122.48,-172.102 179.82,-248.098 49.33,-65.3 96.68,-128 137.51,-188 M 6410.31,1116.1 c -64.48,120.9 -119.66,253.7 -154.54,400.7 -41.68,175.7 -48.69,343.1 -40.48,501.1 v 0 c -8.21,-158 -1.2,-325.4 40.48,-501.1 34.88,-147 90.06,-279.8 154.54,-400.7 v 0" /><path
         id="path234"
         style="fill:#67b3b8;fill-opacity:1;fill-rule:nonzero;stroke:none"
         d="M 7501.98,358.301 H 7068.4 c -37.57,23.402 -76,45.601 -115.56,65.801 -32.79,16.699 -65.77,32 -98.35,46.3 -40.83,60 -88.18,122.7 -137.51,188 -57.34,75.996 -119.46,158.2 -179.82,248.098 h 642.63 C 7275.33,722 7386.52,536.102 7501.98,358.301 M 6410.31,1116.1 c -64.48,120.9 -119.66,253.7 -154.54,400.7 -41.68,175.7 -48.69,343.1 -40.48,501.1 5.2,100 16.49,196.3 28.96,288.6 4.43,32.8 9.01,65.1 13.52,96.9 17.05,120.2 33.44,235.9 33.46,331.6 0.01,41.8 -3.09,79.7 -10.61,112.7 -0.54,2.3 -1.09,4.6 -1.67,6.9 -36.94,145.8 -197.53,311.7 -367.52,487.4 -219.97,227.4 -487.3,503.8 -621.78,883.6 225.79,-50.9 611.25,-140.3 667.11,-170.1 v 0 c 0.09,0 0.17,-0.1 0.26,-0.1 2.83,-1.5 4.27,-2.2 4.42,-2.2 2.81,0 -468.92,265.8 -725.59,410.3 -0.13,0 -0.3,0.1 -0.44,0.2 -0.83,0.5 -1.65,0.9 -2.48,1.4 -0.15,0.1 -0.28,0.2 -0.43,0.2 -0.58,0.4 -1.19,0.7 -1.77,1 -0.28,0.2 -0.57,0.4 -0.85,0.5 -0.21,0.1 -0.41,0.2 -0.62,0.4 -0.77,0.4 -1.52,0.8 -2.29,1.3 -0.36,0.2 -0.74,0.4 -1.1,0.6 v 0 c -19.15,110.7 -25.23,217.9 -25.27,318.5 -0.03,94.5 5.28,183.1 10.1,263.4 v 0 c 4.03,67 7.84,130.3 8.14,187.1 0,0.4 0.01,0.9 0.01,1.3 1.72,392.1 -183.12,792.9 -482.41,1046.1 v 0 c -20.49,17.4 -43.88,36.1 -68.62,56 -109.51,87.9 -245.81,197.3 -359.6,361.2 -29.11,41.9 -54.79,84.6 -77.44,127.7 v 0 c -0.21,0.4 -0.41,0.7 -0.61,1.1 -0.06,0.1 -0.12,0.2 -0.18,0.4 -0.15,0.3 -0.29,0.5 -0.44,0.8 -0.06,0.1 -0.13,0.3 -0.19,0.4 -0.14,0.2 -0.28,0.5 -0.42,0.8 -0.07,0.1 -0.14,0.2 -0.21,0.4 -0.13,0.2 -0.27,0.5 -0.4,0.8 -0.07,0.1 -0.13,0.2 -0.2,0.4 -0.13,0.2 -0.28,0.5 -0.41,0.7 -0.07,0.2 -0.13,0.3 -0.2,0.4 -0.13,0.3 -0.28,0.6 -0.41,0.8 -0.07,0.2 -0.12,0.3 -0.19,0.4 -0.15,0.3 -0.29,0.6 -0.44,0.9 -0.06,0.1 -0.09,0.2 -0.15,0.3 -0.19,0.4 -0.38,0.7 -0.57,1.1 h -0.01 c -0.61,1.3 -1.21,2.5 -1.81,3.7 -0.02,0 -0.06,0.1 -0.09,0.1 -0.17,0.4 -0.33,0.7 -0.5,1.1 -0.04,0 -0.07,0.1 -0.1,0.2 -0.16,0.3 -0.32,0.6 -0.49,1 -0.03,0 -0.08,0.1 -0.11,0.2 -0.16,0.3 -0.32,0.6 -0.48,1 -0.03,0 -0.07,0.1 -0.1,0.2 -0.17,0.3 -0.34,0.7 -0.51,1 -0.01,0.1 -0.05,0.1 -0.06,0.2 -98.21,203.3 -63.63,426.8 56.15,590.7 513.89,-245.2 1175.26,-716.7 1446.79,-1579.4 472.8,-1502 34.36,-1417.6 591.29,-2228.1 556.94,-810.5 733.1,-743 577.47,-1654.8 -20.2,-118.3 -10.1,-252.9 22.79,-397.5 -200.6,-30.1 -369.27,-157.8 -456.1,-333.2 h -5.03 c -19.62,-41.1 -34.69,-84.7 -44.55,-130.4" /><path
         id="path236"
         style="fill:#9cdedc;fill-opacity:1;fill-rule:nonzero;stroke:none"
         d="m 5406.3,891.301 c 52.77,-51.199 97.04,-152.699 143.92,-260.102 38.03,-87.097 78.94,-180.597 133.45,-272.898 H 7068.4 c -37.57,23.402 -76,45.601 -115.56,65.801 -89.45,45.597 -180.34,81 -260.53,112.3 -118.33,46.098 -230.1,89.7 -287.35,147 -52.15,52.098 -95.94,152.5 -142.3,258.7 -67.88,155.598 -152.39,349.198 -315.06,507.098 -219.65,213.1 -499.02,284.3 -723.49,341.5 -157.03,40 -305.34,77.8 -374.7,147.6 -37.37,37.5 -75.03,107.7 -114.91,182.1 -25.14,46.9 -51.13,95.3 -81.96,145.8 -254.7,417.4 -695.38,710.2 -1178.82,783.2 -27.42,4.2 -52.99,7.4 -77.72,10.5 -39.76,4.9 -406.08,79.6 -528.2,-4.3 -229.57,-157.7 -221.35,-502.3 18.36,-644.1 27.57,-16.3 56.68,-31.4 87.46,-44.8 120.33,-52.5 234.47,-66.8 326.17,-78.2 20.72,-2.6 40.31,-5 57.78,-7.7 255.1,-38.5 497.04,-199.3 631.44,-419.5 19.56,-32 39.44,-69.1 60.48,-108.3 6.63,-12.4 13.48,-25.1 20.52,-38.1 l 342.15,-11.5 -247.03,-148.8 c 37.32,-55.7 80.79,-111.9 133.2,-164.6 220.6,-221.7 505.15,-294.3 733.79,-352.5 155.9,-39.801 303.16,-77.301 374.18,-146.199" /><path
         id="path238"
         style="fill:#e3f2f3;fill-opacity:1;fill-rule:nonzero;stroke:none"
         d="m 6188.17,358.301 h -504.5 c -54.51,92.301 -95.42,185.801 -133.45,272.898 -46.88,107.403 -91.15,208.903 -143.92,260.102 -71.02,68.898 -218.28,106.398 -374.18,146.199 -228.64,58.2 -513.19,130.8 -733.79,352.5 v 0 0 c 220.6,-221.7 505.15,-294.3 733.79,-352.5 155.9,-39.801 303.16,-77.301 374.18,-146.199 52.77,-51.199 97.04,-152.699 143.92,-260.102 38.03,-87.097 78.94,-180.597 133.45,-272.898 h 504.5 v 0 M 4412.16,1703.4 4070,1714.9 c -1.76,3.2 -3.5,6.5 -5.24,9.7 1.74,-3.2 3.49,-6.5 5.25,-9.7 l 342.15,-11.5" /><path
         id="path240"
         style="fill:#e3f2f3;fill-opacity:1;fill-rule:nonzero;stroke:none"
         d="m 2885.43,2411.9 c -0.08,0.1 -0.14,0.1 -0.22,0.1 0.08,0 0.14,0 0.22,-0.1 m -0.74,0.5 c -0.09,0 -0.18,0.1 -0.26,0.1 0.08,0 0.17,-0.1 0.26,-0.1 m -0.74,0.4 c -0.09,0 -0.17,0.1 -0.26,0.1 0.09,0 0.17,-0.1 0.26,-0.1 m -0.75,0.4 c -0.08,0.1 -0.15,0.1 -0.23,0.2 0.08,-0.1 0.16,-0.1 0.23,-0.2 m -0.76,0.5 c -0.06,0 -0.13,0.1 -0.19,0.1 0.07,0 0.12,-0.1 0.19,-0.1 m -0.76,0.5 c -0.06,0 -0.1,0 -0.15,0.1 0.04,-0.1 0.1,-0.1 0.15,-0.1 m -0.79,0.5 c -0.03,0 -0.06,0 -0.08,0 0.03,0 0.05,0 0.08,0" /><path
         id="path242"
         style="fill:#8bd3d1;fill-opacity:1;fill-rule:nonzero;stroke:none"
         d="m 6188.17,358.301 h -504.5 c -54.51,92.301 -95.42,185.801 -133.45,272.898 -46.88,107.403 -91.15,208.903 -143.92,260.102 -71.02,68.898 -218.28,106.398 -374.18,146.199 -228.64,58.2 -513.19,130.8 -733.79,352.5 v 0 c -51.18,51.5 -93.84,106.3 -130.56,160.7 -0.88,1.3 -1.76,2.6 -2.64,3.9 l 247.03,148.8 -342.15,11.5 c -1.76,3.2 -3.51,6.5 -5.25,9.7 -5.2,9.6 -10.3,19.1 -15.27,28.4 v 0 c -21.04,39.2 -40.92,76.3 -60.48,108.3 -15.49,25.4 -32.41,50 -50.61,73.7 -139.73,182 -355.13,311.7 -580.83,345.8 -16.11,2.5 -34.01,4.7 -52.94,7.1 -1.61,0.2 -3.22,0.4 -4.84,0.6 -91.7,11.4 -205.84,25.7 -326.17,78.2 -0.48,0.2 -0.96,0.4 -1.44,0.6 -30.25,13.3 -58.88,28.1 -86.02,44.2 v 0 0 c -0.24,0.1 -0.49,0.3 -0.73,0.4 -0.08,0.1 -0.14,0.1 -0.22,0.1 -0.17,0.1 -0.34,0.2 -0.52,0.4 -0.09,0 -0.18,0.1 -0.26,0.1 -0.16,0.1 -0.32,0.2 -0.48,0.3 -0.09,0 -0.17,0.1 -0.26,0.1 -0.16,0.1 -0.33,0.3 -0.49,0.3 -0.07,0.1 -0.15,0.1 -0.23,0.2 -0.17,0.1 -0.36,0.2 -0.53,0.3 -0.07,0 -0.12,0.1 -0.19,0.1 -0.19,0.1 -0.38,0.3 -0.57,0.4 -0.05,0 -0.11,0 -0.15,0.1 -0.22,0.1 -0.43,0.2 -0.64,0.4 -0.03,0 -0.05,0 -0.08,0 -127.18,78 -187.09,213.9 -179.07,346.9 451.96,-17.2 998.37,-122.8 1397.46,-472 810.51,-709.2 910.18,-834.8 1355.07,-1043.1 314.81,-147.4 596.23,-622.801 733.9,-888.199" /><path
         id="path244"
         style="fill:#eaf5f9;fill-opacity:1;fill-rule:nonzero;stroke:none"
         d="m 12768.5,10317.4 620.8,43.3 -620.8,43.4 z" /><path
         id="path246"
         style="fill:#02ccc0;fill-opacity:1;fill-rule:nonzero;stroke:none"
         d="m 13271.4,10360.7 c 0,-34.2 27.7,-61.9 61.9,-61.9 34.2,0 61.9,27.7 61.9,61.9 0,34.2 -27.7,62 -61.9,62 -34.2,0 -61.9,-27.8 -61.9,-62" /><path
         id="path248"
         style="fill:#294a5c;fill-opacity:1;fill-rule:nonzero;stroke:none"
         d="m 12838.4,10189.8 h 17.9 c 87.2,0 157.9,70.7 157.9,157.9 v 35.9 c 0,87.2 -70.7,157.8 -157.9,157.8 h -17.9 v -351.6" /><path
         id="path250"
         style="fill:#294a5c;fill-opacity:1;fill-rule:nonzero;stroke:none"
         d="m 10917.1,10317.4 -620.8,43.3 620.8,43.4 z" /><path
         id="path252"
         style="fill:#02ccc0;fill-opacity:1;fill-rule:nonzero;stroke:none"
         d="m 10414.2,10360.7 c 0,-34.2 -27.7,-61.9 -61.9,-61.9 -34.2,0 -61.9,27.7 -61.9,61.9 0,34.2 27.7,62 61.9,62 34.2,0 61.9,-27.8 61.9,-62" /><path
         id="path254"
         style="fill:#294a5c;fill-opacity:1;fill-rule:nonzero;stroke:none"
         d="m 10847.2,10189.8 h -17.9 c -87.2,0 -157.9,70.7 -157.9,157.9 v 35.9 c 0,87.2 70.7,157.8 157.9,157.8 h 17.9 v -351.6" /><path
         id="path256"
         style="fill:#294a5c;fill-opacity:1;fill-rule:nonzero;stroke:none"
         d="m 12768.5,10317.4 620.8,43.3 -620.8,43.4 z" /><path
         id="path258"
         style="fill:#02ccc0;fill-opacity:1;fill-rule:nonzero;stroke:none"
         d="m 13271.4,10360.7 c 0,-34.2 27.7,-61.9 61.9,-61.9 34.2,0 61.9,27.7 61.9,61.9 0,34.2 -27.7,62 -61.9,62 -34.2,0 -61.9,-27.8 -61.9,-62" /><path
         id="path260"
         style="fill:#294a5c;fill-opacity:1;fill-rule:nonzero;stroke:none"
         d="m 12838.4,10189.8 h 17.9 c 87.2,0 157.9,70.7 157.9,157.9 v 35.9 c 0,87.2 -70.7,157.8 -157.9,157.8 h -17.9 v -351.6" /><path
         id="path262"
         style="fill:#294a5c;fill-opacity:1;fill-rule:nonzero;stroke:none"
         d="m 12737.7,8671.6 -34.3,205.3 c 560.6,93.6 987.1,554.3 1037.3,1120.3 l 18.6,209.7 207.3,-18.3 -18.6,-209.7 c -58.5,-660.6 -556.3,-1198.1 -1210.3,-1307.3" /><path
         id="path264"
         style="fill:#02ccc0;fill-opacity:1;fill-rule:nonzero;stroke:none"
         d="m 14107.9,10347.4 c 0,54 -23.9,103.4 -63.3,141.2 v 190.2 c 0,23.9 -19.3,43.2 -43.1,43.2 -23.9,0 -43.2,-19.3 -43.2,-43.2 V 10543 c -33.3,12.9 -70.3,20.2 -109.5,20.2 -39.5,0 -76.9,-7.4 -110.5,-20.6 v 136.2 c 0,23.9 -19.3,43.2 -43.1,43.2 -23.9,0 -43.2,-19.3 -43.2,-43.2 v -191.2 c -38.7,-37.7 -62.2,-86.6 -62.2,-140.2 0,-62.3 31.8,-118.4 82.5,-157.8 -12.5,-11.8 -20.3,-28.4 -20.3,-47 0,-35.6 28.9,-64.5 64.6,-64.5 h 263.5 c 35.6,0 64.5,28.9 64.5,64.5 0,18.3 -7.6,34.8 -19.8,46.6 51,39.4 83.1,95.7 83.1,158.2" /><path
         id="path266"
         style="fill:#294a5c;fill-opacity:1;fill-rule:nonzero;stroke:none"
         d="m 11007.7,8671.6 34.3,205.3 c -560.5,93.6 -987.1,554.3 -1037.3,1120.3 l -18.6,209.7 -207.32,-18.3 18.6,-209.7 c 58.6,-660.6 556.32,-1198.1 1210.32,-1307.3" /><path
         id="path268"
         style="fill:#02ccc0;fill-opacity:1;fill-rule:nonzero;stroke:none"
         d="m 9637.58,10347.4 c 0,54 23.87,103.4 63.22,141.2 v 190.2 c 0,23.9 19.32,43.2 43.16,43.2 23.85,0 43.17,-19.3 43.17,-43.2 V 10543 c 33.26,12.9 70.34,20.2 109.47,20.2 39.53,0 76.97,-7.4 110.5,-20.6 v 136.2 c 0,23.9 19.3,43.2 43.2,43.2 23.8,0 43.1,-19.3 43.1,-43.2 v -191.2 c 38.8,-37.7 62.2,-86.6 62.2,-140.2 0,-62.3 -31.8,-118.4 -82.5,-157.8 12.5,-11.8 20.3,-28.4 20.3,-47 0,-35.6 -28.9,-64.5 -64.6,-64.5 h -263.42 c -35.67,0 -64.58,28.9 -64.58,64.5 0,18.3 7.64,34.8 19.86,46.6 -51.08,39.4 -83.08,95.7 -83.08,158.2" /><path
         id="path270"
         style="fill:#294a5c;fill-opacity:1;fill-rule:nonzero;stroke:none"
         d="m 12359.4,5739.6 h -232.6 v 1301.2 h 232.6 V 5739.6" /><path
         id="path272"
         style="fill:#02ccc0;fill-opacity:1;fill-rule:nonzero;stroke:none"
         d="m 12233.1,6040.1 c -149.3,0 -277.3,-90.9 -331.8,-220.4 -27.9,-66.3 21.8,-139.5 93.7,-139.5 h 476.3 c 71.9,0 121.6,73.2 93.7,139.5 -54.5,129.5 -182.6,220.4 -331.9,220.4" /><path
         id="path274"
         style="fill:#02ccc0;fill-opacity:1;fill-rule:nonzero;stroke:none"
         d="m 12428.1,6534.1 c 0,-102.2 -82.8,-185 -185,-185 -102.2,0 -185,82.8 -185,185 0,102.2 82.8,185 185,185 102.2,0 185,-82.8 185,-185" /><path
         id="path276"
         style="fill:#294a5c;fill-opacity:1;fill-rule:nonzero;stroke:none"
         d="m 11500.5,5739.6 h -232.6 v 1301.2 h 232.6 V 5739.6" /><path
         id="path278"
         style="fill:#294a5c;fill-opacity:1;fill-rule:nonzero;stroke:none"
         d="m 12283.5,9532.3 c 0,24.4 -19.8,44.2 -44.2,44.2 24.4,0 44.2,19.8 44.2,44.2 0,24.4 -19.8,44.2 -44.2,44.2 h -799.7 c -24.4,0 -44.2,-19.8 -44.2,-44.2 0,-24.4 19.8,-44.2 44.2,-44.2 -24.4,0 -44.2,-19.8 -44.2,-44.2 0,-24.4 19.8,-44.2 44.2,-44.2 -24.4,0 -44.2,-19.8 -44.2,-44.2 0,-24.4 19.8,-44.2 44.2,-44.2 h 799.7 c 24.4,0 44.2,19.8 44.2,44.2 0,24.4 -19.8,44.2 -44.2,44.2 24.4,0 44.2,19.8 44.2,44.2" /><path
         id="path280"
         style="fill:#294a5c;fill-opacity:1;fill-rule:nonzero;stroke:none"
         d="m 11252.2,10866.9 80.8,1157.7 80.9,-1157.7 z" /><path
         id="path282"
         style="fill:#294a5c;fill-opacity:1;fill-rule:nonzero;stroke:none"
         d="m 12271.8,10866.9 80.9,1157.7 80.8,-1157.7 z" /><path
         id="path284"
         style="fill:#294a5c;fill-opacity:1;fill-rule:nonzero;stroke:none"
         d="m 12574.4,10757.5 h -1469.9 v 150.7 c 0,151.8 123,274.8 274.8,274.8 h 920.3 c 151.7,0 274.8,-123 274.8,-274.8 v -150.7" /><path
         id="path286"
         style="fill:#294a5c;fill-opacity:1;fill-rule:nonzero;stroke:none"
         d="m 10846.4,8558 h -33.5 c -162.4,0 -294.1,131.7 -294.1,294.2 v 67 c 0,162.5 131.7,294.1 294.1,294.1 h 33.5 V 8558" /><path
         id="path288"
         style="fill:#294a5c;fill-opacity:1;fill-rule:nonzero;stroke:none"
         d="m 12838.4,8558 h 33.5 c 162.4,0 294.1,131.7 294.1,294.2 v 67 c 0,162.5 -131.7,294.1 -294.1,294.1 h -33.5 V 8558" /><path
         id="path290"
         style="fill:#02ccc0;fill-opacity:1;fill-rule:nonzero;stroke:none"
         d="m 12562.6,9637.1 h -1440.4 c -152.3,0 -275.8,123.5 -275.8,275.8 v 854.6 c 0,152.3 123.5,275.7 275.8,275.7 h 1440.4 c 152.3,0 275.8,-123.4 275.8,-275.7 v -854.6 c 0,-152.3 -123.5,-275.8 -275.8,-275.8" /><path
         id="path292"
         style="fill:#eaf5f9;fill-opacity:1;fill-rule:nonzero;stroke:none"
         d="m 11378.8,10494.2 c 0,-102.8 -83.3,-186.2 -186.1,-186.2 -102.8,0 -186.1,83.4 -186.1,186.2 0,102.7 83.3,186.1 186.1,186.1 102.8,0 186.1,-83.4 186.1,-186.1" /><path
         id="path294"
         style="fill:#eaf5f9;fill-opacity:1;fill-rule:nonzero;stroke:none"
         d="m 12678.2,10494.2 c 0,-102.8 -83.3,-186.2 -186.1,-186.2 -102.8,0 -186.1,83.4 -186.1,186.2 0,102.7 83.3,186.1 186.1,186.1 102.8,0 186.1,-83.4 186.1,-186.1" /><path
         id="path296"
         style="fill:#eaf5f9;fill-opacity:1;fill-rule:nonzero;stroke:none"
         d="m 11842.4,10025.1 c -200.6,0 -301.7,98.7 -351.2,181.4 -18.6,31.2 -31.2,62.1 -39.7,89.3 -14.3,45.7 18.6,92.4 66.3,94.6 v 0 c 33.4,1.5 63.2,-19.8 73.2,-51.7 5.8,-18.7 14.7,-40.3 27.9,-61.4 44.1,-70.6 119.3,-106.3 223.5,-106.3 104.1,0 179.3,35.7 223.5,106.3 13.2,21.1 22,42.7 27.9,61.4 10,31.9 39.8,53.2 73.1,51.7 h 0.1 c 47.7,-2.2 80.5,-48.9 66.3,-94.6 -8.5,-27.2 -21.1,-58.1 -39.7,-89.3 -49.5,-82.7 -150.6,-181.4 -351.2,-181.4" /><path
         id="path298"
         style="fill:#294a5c;fill-opacity:1;fill-rule:nonzero;stroke:none"
         d="m 11842.4,10080.9 c -93.7,0 -171.6,24 -231.3,71.4 -39.8,31.6 -70.8,72.7 -92.3,122.5 -3.9,9 0.5,19.4 9.6,22.9 8.6,3.2 18.2,-0.8 21.8,-9.2 35.7,-82.4 115.2,-173.3 292.2,-173.3 176.9,0 256.5,90.9 292.2,173.3 3.6,8.4 13.2,12.4 21.7,9.2 9.2,-3.5 13.6,-13.9 9.7,-22.9 -21.5,-49.8 -52.6,-90.9 -92.4,-122.5 -59.7,-47.4 -137.5,-71.4 -231.2,-71.4" /><path
         id="path300"
         style="fill:#294a5c;fill-opacity:1;fill-rule:nonzero;stroke:none"
         d="m 11326.1,10494.2 c 0,-73.7 -59.7,-133.5 -133.4,-133.5 -73.7,0 -133.4,59.8 -133.4,133.5 0,73.6 59.7,133.4 133.4,133.4 73.7,0 133.4,-59.8 133.4,-133.4" /><path
         id="path302"
         style="fill:#294a5c;fill-opacity:1;fill-rule:nonzero;stroke:none"
         d="m 12625.5,10494.2 c 0,-73.7 -59.7,-133.5 -133.4,-133.5 -73.7,0 -133.4,59.8 -133.4,133.5 0,73.6 59.7,133.4 133.4,133.4 73.7,0 133.4,-59.8 133.4,-133.4" /><path
         id="path304"
         style="fill:#e3eef4;fill-opacity:1;fill-rule:nonzero;stroke:none"
         d="m 12565.3,10583.6 c 28.6,-24.5 35.7,-63.3 15.8,-86.6 -20,-23.3 -59.4,-22.3 -88,2.3 -28.7,24.5 -35.7,63.3 -15.8,86.6 19.9,23.2 59.3,22.2 88,-2.3" /><path
         id="path306"
         style="fill:#e3eef4;fill-opacity:1;fill-rule:nonzero;stroke:none"
         d="m 11271.2,10583.6 c 28.7,-24.5 35.8,-63.3 15.8,-86.6 -19.9,-23.3 -59.3,-22.3 -88,2.3 -28.6,24.5 -35.7,63.3 -15.7,86.6 19.9,23.2 59.3,22.2 87.9,-2.3" /><path
         id="path308"
         style="fill:#06bfad;fill-opacity:1;fill-rule:nonzero;stroke:none"
         d="m 12604,9791.1 h -1523.2 c -129.5,0 -234.4,104.9 -234.4,234.4 v -154 c 0,-129.4 104.9,-234.4 234.4,-234.4 H 12604 c 129.4,0 234.4,105 234.4,234.4 v 154 c 0,-129.5 -105,-234.4 -234.4,-234.4" /><path
         id="path310"
         style="fill:#02ccc0;fill-opacity:1;fill-rule:nonzero;stroke:none"
         d="m 12598.9,6997.2 h -1513 c -132.3,0 -239.5,107.2 -239.5,239.5 v 1963.6 c 0,132.3 107.2,239.5 239.5,239.5 h 1513 c 132.3,0 239.5,-107.2 239.5,-239.5 V 7236.7 c 0,-132.3 -107.2,-239.5 -239.5,-239.5" /><path
         id="path312"
         style="fill:#06bfad;fill-opacity:1;fill-rule:nonzero;stroke:none"
         d="m 12604,7151.2 h -1523.2 c -129.5,0 -234.4,104.9 -234.4,234.3 v -154 c 0,-129.4 104.9,-234.3 234.4,-234.3 H 12604 c 129.4,0 234.4,104.9 234.4,234.3 v 154 c 0,-129.4 -105,-234.3 -234.4,-234.3" /><path
         id="path314"
         style="fill:#0ea5a2;fill-opacity:1;fill-rule:nonzero;stroke:none"
         d="m 11672.3,7742.6 h -458.6 c -114.4,0 -207.1,92.7 -207.1,207.1 v 930.2 c 0,114.4 92.7,207.1 207.1,207.1 h 458.6 c 114.4,0 207.1,-92.7 207.1,-207.1 v -930.2 c 0,-114.4 -92.7,-207.1 -207.1,-207.1" /><path
         id="path316"
         style="fill:#0ea5a2;fill-opacity:1;fill-rule:nonzero;stroke:none"
         d="m 12520.3,7742.6 h -335.2 c -114.4,0 -207.2,92.7 -207.2,207.1 v 930.2 c 0,114.4 92.8,207.1 207.2,207.1 h 335.2 c 114.4,0 207.1,-92.7 207.1,-207.1 v -930.2 c 0,-114.4 -92.7,-207.1 -207.1,-207.1 M 12352.7,8967 c -172.9,0 -313.1,-144.2 -313.1,-322 h 626.1 c 0,177.8 -140.2,322 -313,322" /><path
         id="path318"
         style="fill:#294a5c;fill-opacity:1;fill-rule:nonzero;stroke:none"
         d="m 11750.6,7914.6 h -7.6 c -18.3,0 -33.2,14.9 -33.2,33.3 v 933.9 c 0,18.3 14.9,33.2 33.2,33.2 h 7.6 c 18.3,0 33.2,-14.9 33.2,-33.2 v -933.9 c 0,-18.4 -14.9,-33.3 -33.2,-33.3" /><path
         id="path320"
         style="fill:#294a5c;fill-opacity:1;fill-rule:nonzero;stroke:none"
         d="m 12352.7,8967 c -172.9,0 -313.1,-144.2 -313.1,-322 h 626.1 c 0,177.8 -140.2,322 -313,322" /><path
         id="path322"
         style="fill:#eaf5f9;fill-opacity:1;fill-rule:nonzero;stroke:none"
         d="m 12352.7,8921.8 c -132.2,0 -239.3,-103.1 -239.3,-230.3 h 478.6 c 0,127.2 -107.2,230.3 -239.3,230.3" /><path
         id="path324"
         style="fill:#294a5c;fill-opacity:1;fill-rule:nonzero;stroke:none"
         d="m 12164.6,8352.9 c 0,-28.2 -22.8,-50.9 -50.9,-50.9 -28.1,0 -50.8,22.7 -50.8,50.9 0,28 22.7,50.8 50.8,50.8 28.1,0 50.9,-22.8 50.9,-50.8" /><path
         id="path326"
         style="fill:#294a5c;fill-opacity:1;fill-rule:nonzero;stroke:none"
         d="m 12662.1,8352.9 c 0,-28.2 -22.8,-50.9 -50.9,-50.9 -28.1,0 -50.9,22.7 -50.9,50.9 0,28 22.8,50.8 50.9,50.8 28.1,0 50.9,-22.8 50.9,-50.8" /><path
         id="path328"
         style="fill:#294a5c;fill-opacity:1;fill-rule:nonzero;stroke:none"
         d="m 12164.6,7872.9 c 0,-28.2 -22.8,-50.9 -50.9,-50.9 -28.1,0 -50.8,22.7 -50.8,50.9 0,28 22.7,50.8 50.8,50.8 28.1,0 50.9,-22.8 50.9,-50.8" /><path
         id="path330"
         style="fill:#294a5c;fill-opacity:1;fill-rule:nonzero;stroke:none"
         d="m 12662.1,7872.9 c 0,-28.2 -22.8,-50.9 -50.9,-50.9 -28.1,0 -50.9,22.7 -50.9,50.9 0,28 22.8,50.8 50.9,50.8 28.1,0 50.9,-22.8 50.9,-50.8" /><path
         id="path332"
         style="fill:#294a5c;fill-opacity:1;fill-rule:nonzero;stroke:none"
         d="m 12687.1,7472 h -1627.7 c -22.3,0 -40.3,18 -40.3,40.3 v 9.2 c 0,22.2 18,40.2 40.3,40.2 h 1627.7 c 22.3,0 40.3,-18 40.3,-40.2 v -9.2 c 0,-22.3 -18,-40.3 -40.3,-40.3" /><path
         id="path334"
         style="fill:#294a5c;fill-opacity:1;fill-rule:nonzero;stroke:none"
         d="m 12687.1,7295.8 h -1627.7 c -22.3,0 -40.3,18 -40.3,40.3 v 9.2 c 0,22.2 18,40.2 40.3,40.2 h 1627.7 c 22.3,0 40.3,-18 40.3,-40.2 v -9.2 c 0,-22.3 -18,-40.3 -40.3,-40.3" /><path
         id="path336"
         style="fill:#b0c1ca;fill-opacity:1;fill-rule:nonzero;stroke:none"
         d="m 12379.8,8716.1 -41.4,4.5 92.2,168.8 -50.8,-173.3" /><path
         id="path338"
         style="fill:#02ccc0;fill-opacity:1;fill-rule:nonzero;stroke:none"
         d="m 12398.8,8691.5 c 0,1 0.1,1.9 0.1,2.8 0,25.6 -20.7,46.3 -46.2,46.3 -25.6,0 -46.3,-20.7 -46.3,-46.3 0,-0.9 0.1,-1.8 0.2,-2.8 h 92.2" /><path
         id="path340"
         style="fill:#02ccc0;fill-opacity:1;fill-rule:nonzero;stroke:none"
         d="m 11374.2,6040.1 c -149.3,0 -277.4,-90.9 -331.9,-220.4 -27.9,-66.3 21.8,-139.5 93.7,-139.5 h 476.3 c 72,0 121.6,73.2 93.7,139.5 -54.5,129.5 -182.5,220.4 -331.8,220.4" /><path
         id="path342"
         style="fill:#02ccc0;fill-opacity:1;fill-rule:nonzero;stroke:none"
         d="m 11569.2,6534.1 c 0,-102.2 -82.8,-185 -185,-185 -102.2,0 -185,82.8 -185,185 0,102.2 82.8,185 185,185 102.2,0 185,-82.8 185,-185" /><path
         id="path344"
         style="fill:#02ccc0;fill-opacity:1;fill-rule:nonzero;stroke:none"
         d="m 11430.7,11944.4 c 0,-53.9 -43.7,-97.6 -97.7,-97.6 -53.9,0 -97.6,43.7 -97.6,97.6 0,53.9 43.7,97.6 97.6,97.6 54,0 97.7,-43.7 97.7,-97.6" /><path
         id="path346"
         style="fill:#02ccc0;fill-opacity:1;fill-rule:nonzero;stroke:none"
         d="m 12450.3,11944.4 c 0,-53.9 -43.7,-97.6 -97.6,-97.6 -53.9,0 -97.7,43.7 -97.7,97.6 0,53.9 43.8,97.6 97.7,97.6 53.9,0 97.6,-43.7 97.6,-97.6" /><path
         id="path348"
         style="fill:#ffd103;fill-opacity:1;fill-rule:nonzero;stroke:none"
         d="m 9052.71,14713.2 c -87.76,-184.3 -324.68,-565.6 -774.04,-549.7 224.74,162 364.1,442.2 444.37,663.5 l 325.31,-103.7 c 0.78,-0.3 3.16,-1.1 4.47,-4.1 1.32,-3 0.24,-5.3 -0.11,-6 m -2169.87,615.7 c 0.09,0.8 0.36,3.3 3.06,5.1 2.7,1.9 5.12,1.3 5.92,1.1 l 330.91,-82.4 c -47.96,-230.5 -76.49,-542 29.6,-797.8 -390.26,222.5 -391.57,671.2 -369.49,874 m 2300.07,-553.3 c -17.11,39.5 -50.44,69.6 -91.46,82.7 l -324.04,103.4 c 34.36,115.4 48.46,193.9 48.46,193.9 l -749.8,212.7 -749.81,212.8 c 0,0 -29.2,-74.2 -60.58,-190.5 l -329.61,82.1 c -41.77,10.4 -85.98,2.2 -121.29,-22.4 -35.3,-24.6 -58.22,-63.3 -62.87,-106.1 -12.76,-117.2 -21.52,-347.3 63.23,-570.7 47.43,-125 118.08,-232.4 209.97,-319.4 99.34,-94.1 224.18,-164.6 371.5,-210 75.24,-80.4 175.13,-146.8 306.2,-191.3 134.93,-30.9 254.77,-26.9 361.01,1.9 149.42,-38.7 292.84,-44.3 426.9,-16.5 123.88,25.8 240.45,80.2 346.45,161.6 189.44,145.6 302.81,346 353.52,452.5 18.51,38.8 19.32,83.8 2.22,123.3" /><path
         id="path350"
         style="fill:#ffd103;fill-opacity:1;fill-rule:nonzero;stroke:none"
         d="m 7546.9,12824.8 235.15,1338.7 -90.09,-113.7 0.85,3 -16.95,144.1 -502.97,-1262.8 374.01,-109.3" /><path
         id="path352"
         style="fill:#ffd103;fill-opacity:1;fill-rule:nonzero;stroke:none"
         d="m 7821.69,14016.2 c -20.19,-71.2 -94.27,-112.5 -165.45,-92.3 -71.18,20.2 -112.51,94.3 -92.32,165.5 20.2,71.1 94.28,112.5 165.46,92.3 71.17,-20.2 112.51,-94.3 92.31,-165.5" /><path
         id="path354"
         style="fill:#ffd103;fill-opacity:1;fill-rule:nonzero;stroke:none"
         d="m 7673.97,13451.7 -280.8,79.7 c -25.97,7.4 -41.05,34.4 -33.68,60.4 l 3.04,10.7 c 7.37,25.9 34.39,41 60.37,33.7 l 280.79,-79.7 c 25.97,-7.4 41.05,-34.4 33.69,-60.4 l -3.05,-10.7 c -7.36,-26 -34.39,-41.1 -60.36,-33.7" /><path
         id="path356"
         style="fill:#ffd103;fill-opacity:1;fill-rule:nonzero;stroke:none"
         d="m 7552.72,12726.1 -437.45,124.1 c -30.25,8.6 -47.8,40 -39.22,70.3 l 3.54,12.5 c 8.57,30.2 40.04,47.8 70.28,39.2 l 437.46,-124.1 c 30.23,-8.6 47.79,-40.1 39.21,-70.3 l -3.54,-12.5 c -8.58,-30.2 -40.04,-47.8 -70.28,-39.2" /><path
         id="path358"
         style="fill:#f3d7a0;fill-opacity:1;fill-rule:nonzero;stroke:none"
         d="m 7382.09,13459.3 v 0 l 26.91,67.6 v 0 l -26.91,-67.6" /><path
         id="path360"
         style="fill:#feb202;fill-opacity:1;fill-rule:nonzero;stroke:none"
         d="m 7645.05,13383.6 -262.96,75.7 26.91,67.6 248.83,-70.6 -12.78,-72.7" /><path
         id="path362"
         style="fill:#feb202;fill-opacity:1;fill-rule:nonzero;stroke:none"
         d="m 7657.83,13456.3 -248.83,70.6 v 0 l 248.83,-70.6" /><path
         id="path364"
         style="fill:#e7d59e;fill-opacity:1;fill-rule:nonzero;stroke:none"
         d="m 7573.73,12722.1 c -4.43,0 -8.93,0.6 -13.4,1.8 l -7.31,2.1 c 5.09,-1.4 10.22,-2.1 15.27,-2.1 24.7,0 47.41,16.2 54.62,41.1 l -2.06,-7.3 c -6.13,-21.6 -25.76,-35.6 -47.12,-35.6 m 52.84,55.8 c 2.26,8 2.68,16.1 1.52,23.8 l 2.39,-0.6 c 0.24,-5.2 -0.3,-10.5 -1.78,-15.7 l -2.13,-7.5" /><path
         id="path366"
         style="fill:#f3d7a0;fill-opacity:1;fill-rule:nonzero;stroke:none"
         d="m 7333.99,12788.1 -226.33,64.3 c -26.04,7.4 -41.16,34.4 -33.78,60.5 l 7.86,27.7 c 1.49,5.2 3.8,10 6.72,14.2 l 2.38,-0.6 c -5.07,-6 -8.97,-13.2 -11.25,-21.2 l -3.54,-12.5 c -8.58,-30.3 8.97,-61.7 39.22,-70.3 l 218.72,-62.1" /><path
         id="path368"
         style="fill:#feb202;fill-opacity:1;fill-rule:nonzero;stroke:none"
         d="m 7568.29,12723.9 c -5.05,0 -10.18,0.7 -15.27,2.1 l -219.03,62.1 -218.72,62.1 c -30.25,8.6 -47.8,40 -39.22,70.3 l 3.54,12.5 c 2.28,8 6.18,15.2 11.25,21.2 l 537.25,-152.5 c 1.16,-7.7 0.74,-15.8 -1.52,-23.8 l -3.66,-12.9 c -7.21,-24.9 -29.92,-41.1 -54.62,-41.1" /><path
         id="path370"
         style="fill:#ffd103;fill-opacity:1;fill-rule:nonzero;stroke:none"
         d="m 7611.9,12591.2 -617.82,175.3 c -41.18,11.7 -65.1,54.6 -53.41,95.8 l 4.82,17 c 11.68,41.1 54.54,65.1 95.73,53.4 l 617.82,-175.3 c 41.18,-11.7 65.1,-54.6 53.41,-95.8 l -4.82,-16.9 c -11.68,-41.2 -54.54,-65.1 -95.73,-53.5" /><path
         id="path372"
         style="fill:#e8e3c2;fill-opacity:1;fill-rule:nonzero;stroke:none"
         d="m 8688.83,14738.5 v 0 c 12.43,30.2 23.81,59.9 34.21,88.5 v 0 c -10.38,-28.6 -21.78,-58.3 -34.21,-88.5 m 78.58,223.2 v 0 c 32.18,108.1 46.59,183.8 48.29,192.9 -1.7,-9.1 -16.1,-84.8 -48.28,-192.9 m 48.29,193 c 0.02,0.1 0.05,0.2 0.07,0.4 -0.02,-0.2 -0.05,-0.3 -0.07,-0.4 m 0.07,0.4 c 0.01,0 0.01,0 0.02,0.1 -0.01,-0.1 -0.01,-0.1 -0.02,-0.1 m 0.04,0.2 c 0,0 0.01,0 0.01,0 0,0 -0.01,0 -0.01,0 m 0.01,0.1 c 0,0 0.01,0 0.01,0 0,0 -0.01,0 -0.01,0 m 0.01,0 c 0,0 0,0 0.01,0 -0.01,0 -0.01,0 -0.01,0 m 0.01,0 c 0.01,0.1 0.02,0.2 0.02,0.2 v 0 c 0,0 -0.01,-0.1 -0.02,-0.2" /><path
         id="path374"
         style="fill:#f4e6c5;fill-opacity:1;fill-rule:nonzero;stroke:none"
         d="m 7875.31,14031.3 c -16.42,0 -33.04,0.5 -49.99,1.6 v 0.1 c 16.88,-1.2 33.48,-1.7 49.83,-1.7 63.45,0 122.92,8.3 178.67,23.4 0.03,0 0.07,0 0.11,0 -55.71,-15.1 -115.22,-23.4 -178.62,-23.4 m 403.42,132.2 c -0.03,0 -0.03,0 -0.06,0 195.65,141 326.58,371.6 410.16,575 v 0 c -83.57,-203.4 -214.46,-434 -410.1,-575" /><path
         id="path376"
         style="fill:#ffbf02;fill-opacity:1;fill-rule:nonzero;stroke:none"
         d="m 7875.15,14031.3 c -16.35,0 -32.95,0.5 -49.83,1.7 6.98,46.2 -10.87,91.7 -44.9,121.2 l 1.63,9.3 v 0 0 c 0,0 -99.61,73.6 -199.74,228.3 32.71,-4.1 64.4,-6.1 95.22,-6.1 83.14,0 159.5,14.3 229.51,39.6 l 115.3,-109.7 18.78,175.5 c 84.19,53 157.23,122.6 220.26,200.5 l 20.47,11.1 -8.59,3.8 c 82.86,105.9 147.92,225.8 198.11,340.1 l -1161.97,497.6 c 0,0 806.18,-219.8 1227.05,-331.1 2.32,6.7 4.58,13.3 6.78,19.8 l 272.64,-77.3 c 0,0 -0.01,-0.1 -0.02,-0.2 0,0 0,0 0,0 -0.01,0 -0.01,0 -0.01,0 v 0 c 0,0 -0.01,0 -0.01,0 0,0 0,-0.1 0,-0.1 0,0 -0.01,0 -0.01,0 -0.01,0 -0.01,-0.1 -0.02,-0.1 -0.01,-0.1 -0.01,-0.1 -0.02,-0.1 0,0 0,0 0,0 -0.02,-0.2 -0.05,-0.3 -0.07,-0.4 0,0 -0.01,0 -0.01,-0.1 -1.7,-9.1 -16.11,-84.8 -48.29,-192.9 v 0 c -12.16,-40.9 -26.85,-86.4 -44.36,-134.7 h -0.01 c -10.4,-28.6 -21.78,-58.3 -34.21,-88.5 -83.58,-203.4 -214.51,-434 -410.16,-575 0.03,0 0.03,0 0.06,0 -67.1,-48.4 -141.78,-86.2 -224.8,-108.8 -0.04,0 -0.08,0 -0.11,0 -55.75,-15.1 -115.22,-23.4 -178.67,-23.4" /><path
         id="path378"
         style="fill:#f4e6c5;fill-opacity:1;fill-rule:nonzero;stroke:none"
         d="m 7569.63,14105.5 c -73.04,38.6 -133.45,85.5 -183.1,138.6 0.03,0 0.06,0 0.08,0 49.65,-53.1 110.03,-100 183.02,-138.6 v 0 m -317.3,349.4 v 0 c -16.01,38.5 -28.95,78.4 -39.21,119 h 0.01 c 10.27,-40.6 23.2,-80.5 39.2,-119" /><path
         id="path380"
         style="fill:#ffbf02;fill-opacity:1;fill-rule:nonzero;stroke:none"
         d="m 7569.63,14105.5 c -72.99,38.6 -133.37,85.5 -183.02,138.6 -0.02,0 -0.05,0 -0.08,0 -58.82,62.8 -102.53,134.3 -134.22,210.8 0.02,0 0.02,0 0.02,0 -16,38.5 -28.93,78.4 -39.2,119 51.63,-49.7 113.69,-93.2 187.9,-128.6 63.54,-108.7 165.32,-202.7 322.9,-262.2 -10.43,2.5 -20.88,3.7 -31.19,3.7 -5.24,0 -10.45,-0.3 -15.59,-0.9 l -1.29,11 -4.72,-11.9 c -44.27,-7.3 -83.22,-36.6 -101.51,-79.5 m 207.34,51.6 c -7.72,6.2 -16.19,11.6 -25.35,16.1 9.94,-3.4 20.07,-6.6 30.43,-9.7 l -5.08,-6.4" /><path
         id="path382"
         style="fill:#ffbf02;fill-opacity:1;fill-rule:nonzero;stroke:none"
         d="m 7780.42,14154.2 c -1.13,1 -2.28,1.9 -3.45,2.9 l 5.08,6.4 v 0 l -1.63,-9.3 m -109.28,30.8 4.72,11.9 1.29,-11 c -2.02,-0.3 -4.01,-0.5 -6.01,-0.9" /><path
         id="path384"
         style="fill:#ffbf02;fill-opacity:1;fill-rule:nonzero;stroke:none"
         d="m 7825.32,14032.9 c -42.44,2.9 -86.64,9.4 -132.51,19.9 -44.57,15.1 -85.56,32.8 -123.18,52.7 v 0 c 18.29,42.9 57.24,72.2 101.51,79.5 2,0.4 3.99,0.6 6.01,0.9 5.14,0.6 10.35,0.9 15.59,0.9 10.31,0 20.76,-1.2 31.19,-3.7 9.04,-3.4 18.27,-6.7 27.69,-9.9 9.16,-4.5 17.63,-9.9 25.35,-16.1 1.17,-1 2.32,-1.9 3.45,-2.9 34.03,-29.5 51.88,-75 44.9,-121.2 v -0.1" /><path
         id="path386"
         style="fill:#ffe55a;fill-opacity:1;fill-rule:nonzero;stroke:none"
         d="m 8794.76,15029.4 -1526.81,433.2 c -54.26,15.4 -85.77,71.8 -70.37,126.1 l 6.35,22.4 c 15.4,54.2 71.86,85.8 126.12,70.4 l 1526.81,-433.2 c 54.26,-15.4 85.77,-71.9 70.38,-126.2 l -6.36,-22.4 c -15.39,-54.2 -71.86,-85.7 -126.12,-70.3" /><path
         id="path388"
         style="fill:#ffdc26;fill-opacity:1;fill-rule:nonzero;stroke:none"
         d="m 7582.31,14391.8 c -28.36,3.5 -57.46,8.6 -87.28,15.5 -33.32,11.3 -64.61,24 -94,38 -205.62,352 -10.84,859.3 -10.84,859.3 -47.57,-428.2 72.63,-728.2 192.12,-912.8" /><path
         id="path390"
         style="fill:#ffce25;fill-opacity:1;fill-rule:nonzero;stroke:none"
         d="m 7782.05,14163.5 c -10.36,3.1 -20.49,6.3 -30.43,9.7 -7.03,3.4 -14.46,6.3 -22.24,8.5 -1.82,0.5 -3.63,1 -5.45,1.4 -157.58,59.5 -259.36,153.5 -322.9,262.2 29.39,-14 60.68,-26.7 94,-38 29.82,-6.9 58.92,-12 87.28,-15.5 100.13,-154.7 199.74,-228.3 199.74,-228.3 v 0" /><path
         id="path392"
         style="fill:#ffce25;fill-opacity:1;fill-rule:nonzero;stroke:none"
         d="m 7751.62,14173.2 c -9.42,3.2 -18.65,6.5 -27.69,9.9 1.82,-0.4 3.63,-0.9 5.45,-1.4 7.78,-2.2 15.21,-5.1 22.24,-8.5" /><path
         id="path394"
         style="fill:#ffbf02;fill-opacity:1;fill-rule:nonzero;stroke:none"
         d="m 7907.04,14425.3 -75.42,71.7 -257.59,-54.2 113.63,237.4 -131.19,228.3 260.94,-34.7 176.52,195.3 47.64,-258.9 231.69,-103.7 c -3.92,-5 -7.88,-10 -11.88,-14.9 l -211.03,-114.3 -9.23,-86.2 c -41.88,-26.4 -86.51,-48.6 -134.08,-65.8" /><path
         id="path396"
         style="fill:#ffae02;fill-opacity:1;fill-rule:nonzero;stroke:none"
         d="m 8022.34,14315.6 -115.3,109.7 c 47.57,17.2 92.2,39.4 134.08,65.8 l -18.78,-175.5 m 239.04,376 c 4,4.9 7.96,9.9 11.88,14.9 l 8.59,-3.8 -20.47,-11.1" /><path
         id="path398"
         style="fill:#ffe55a;fill-opacity:1;fill-rule:nonzero;stroke:none"
         d="m 7980.94,15111.6 47.64,-258.9 240.28,-107.5 -231.5,-125.4 -28.01,-261.7 -190.72,181.5 -257.59,-54.3 113.63,237.5 -131.18,228.2 260.94,-34.7 176.51,195.3" /><path
         id="path400"
         style="fill:#ffc0bb;fill-opacity:1;fill-rule:nonzero;stroke:none"
         d="m 9887.33,11990.4 c -1181.99,11.3 -2415.35,1308.6 -2496.61,1385.7 -81.26,77 -97.09,166.7 -78.09,180.4 18.99,13.8 72.81,-15.8 72.81,-15.8 0,0 -33.38,115.7 -8.44,139.7 35.18,33.8 115.04,-9.9 115.04,-9.9 0,0 -14.78,114 32.71,129.8 47.49,15.9 96.04,-74.9 96.04,-74.9 40.1,47.5 69.65,49.6 69.65,49.6 85.48,-6.3 72.82,-174.1 72.82,-174.1 l 54.88,13.7 c 83.37,16.9 26.03,-177.7 26.03,-177.7 0,0 135.09,-208.2 866.8,-562.8 731.71,-354.6 1232.65,-270.2 1232.65,-270.2 l -56.29,-613.5" /><path
         id="path402"
         style="fill:#e03268;fill-opacity:1;fill-rule:nonzero;stroke:none"
         d="m 9819.79,12677.1 c 0,0 637.51,35.8 806.61,20.6 229,-20.6 296.6,-313.3 99.6,-499 -185.4,-174.9 -906.21,-315.2 -906.21,-315.2 v 793.6" /><path
         id="path404"
         style="fill:#eaf5f9;fill-opacity:1;fill-rule:nonzero;stroke:none"
         d="m 10533.6,12097.1 c -37.6,-17.2 -76,-32.9 -114.8,-47.4 -38.8,-14.5 -78,-28 -117.6,-40.3 -78.8,-25.5 -158.8,-47.5 -239.4,-66.8 -40.3,-9.7 -80.8,-18.7 -121.41,-26.9 -37.11,-7.6 -74.34,-15.1 -111.54,-21.4 l -0.72,187.6 c -0.06,66.1 -0.83,132.2 -1.66,198.4 l -2.53,198.4 c -1.35,66.1 -2.27,132.2 -4.15,198.4 -1.88,-66.2 -2.8,-132.3 -4.15,-198.4 l -2.53,-198.4 c -0.83,-66.2 -1.6,-132.3 -1.65,-198.4 l -0.77,-198.4 -0.04,-10.7 10.54,1.7 c 82.57,13.1 163.91,30.7 244.81,50.7 80.8,20.1 161.1,42.6 240.2,69.2 39.4,13.3 78.5,27.8 117.2,43.3 38.7,15.4 77,32.2 114.5,50.4 37.5,18.1 74.2,38.1 109.5,60.2 35.4,22 69.5,46 101,73.2 -66.1,-50.5 -139.1,-90.7 -214.8,-124.4" /><path
         id="path406"
         style="fill:#fee4cb;fill-opacity:1;fill-rule:nonzero;stroke:none"
         d="M 13017.1,5680.2 H 7606.28 L 6849.87,906.5 h 6923.63 l -756.4,4773.7" /><path
         id="path408"
         style="fill:#74b3ad;fill-opacity:1;fill-rule:nonzero;stroke:none"
         d="m 6957.29,1584.5 50.62,319.4 -50.62,-319.4 v 0" /><path
         id="path410"
         style="fill:#fdd8b6;fill-opacity:1;fill-rule:nonzero;stroke:none"
         d="m 13671.6,1550 c -65.1,23.6 -135.3,36.5 -208.5,36.5 H 7007.31 c -16.83,0 -33.53,-0.7 -50.02,-2 l 50.62,319.4 h 6607.59 l 56.1,-353.9" /><path
         id="path412"
         style="fill:#fee4cb;fill-opacity:1;fill-rule:nonzero;stroke:none"
         d="M 14073.5,906.5 H 6396.86 v 69.602 c 0,337.098 273.31,610.398 610.45,610.398 h 6455.79 c 337.1,0 610.4,-273.3 610.4,-610.398 V 906.5" /><path
         id="path414"
         style="fill:#f2d0b3;fill-opacity:1;fill-rule:nonzero;stroke:none"
         d="M 13108.6,5253 H 7499.86 c -105.9,0 -191.74,85.9 -191.74,191.8 v 43.7 c 0,105.9 85.84,191.7 191.74,191.7 h 5608.74 c 105.9,0 191.7,-85.8 191.7,-191.7 v -43.7 c 0,-105.9 -85.8,-191.8 -191.7,-191.8" /><path
         id="path416"
         style="fill:#f2d0b3;fill-opacity:1;fill-rule:nonzero;stroke:none"
         d="M 12472.9,3952.8 H 7964.48 v 304 h 4508.42 v -304" /><path
         id="path418"
         style="fill:#f2d0b3;fill-opacity:1;fill-rule:nonzero;stroke:none"
         d="M 12472.9,3328.1 H 7964.48 V 3632 h 4508.42 v -303.9" /><path
         id="path420"
         style="fill:#f2d0b3;fill-opacity:1;fill-rule:nonzero;stroke:none"
         d="M 11873.3,2703.3 H 8564.18 v 303.9 h 3309.12 v -303.9" /><path
         id="path422"
         style="fill:#7fbab7;fill-opacity:1;fill-rule:nonzero;stroke:none"
         d="m 14073.5,906.5 h -51.6 v 0 h 51.6 v 69.602 c 0,3.296 0,6.699 -0.1,10 0.1,0.097 0.1,0.097 0.1,0.199 V 906.5" /><path
         id="path424"
         style="fill:#67a9a5;fill-opacity:1;fill-rule:nonzero;stroke:none"
         d="m 14021.9,906.5 h -642.7 v 0 h 642.7 v 0 m 51.5,79.602 c -1.5,93.398 -23.9,181.698 -62.9,260.398 h 5 c 37.2,-77.8 58,-164.9 58,-256.801 v -3.398 c 0,-0.102 0,-0.102 -0.1,-0.199" /><path
         id="path426"
         style="fill:#7fbab7;fill-opacity:1;fill-rule:nonzero;stroke:none"
         d="m 6396.86,976.102 v 13.597 c 0,43.401 4.64,85.701 13.45,126.401 0.62,-1.1 1.26,-2.3 1.88,-3.5 -10.03,-43.9 -15.33,-89.6 -15.33,-136.498" /><path
         id="path428"
         style="fill:#71b1ae;fill-opacity:1;fill-rule:nonzero;stroke:none"
         d="m 6412.19,1112.6 c -0.62,1.2 -1.26,2.4 -1.88,3.5 v 0 c 0.62,-1.1 1.26,-2.3 1.88,-3.5 v 0" /><path
         id="path430"
         style="fill:#67a9a5;fill-opacity:1;fill-rule:nonzero;stroke:none"
         d="m 6412.19,1112.6 c -0.62,1.2 -1.26,2.4 -1.88,3.5 9.86,45.7 24.93,89.3 44.55,130.4 h 5.03 c -20.85,-42.1 -36.97,-86.9 -47.7,-133.9" /><path
         id="path432"
         style="fill:#fdd8b6;fill-opacity:1;fill-rule:nonzero;stroke:none"
         d="M 14073.5,906.5 H 6396.86 v 69.602 c 0,46.898 5.3,92.598 15.33,136.498 v 0 c 10.73,47 26.85,91.8 47.7,133.9 h 7550.61 c 39,-78.7 61.4,-167 62.9,-260.398 v 0 c 0.1,-3.301 0.1,-6.704 0.1,-10 V 906.5" /><path
         id="path434"
         style="fill:#fee4cb;fill-opacity:1;fill-rule:nonzero;stroke:none"
         d="M 14862.3,358.301 H 5608.13 v 69.5 c 0,337.101 273.3,610.399 610.44,610.399 h 8033.23 c 337.2,0 610.5,-273.298 610.5,-610.399 v -69.5" /><path
         id="path436"
         style="fill:#294a5c;fill-opacity:1;fill-rule:nonzero;stroke:none"
         d="m 8256.59,5679 1026.45,-1.9 c 17.66,0 32.01,14.3 32.04,32 l 0.08,45.7 c 0.03,17.7 -14.26,32 -31.92,32.1 l -1026.44,1.9 c -17.67,0 -32.01,-14.3 -32.04,-31.9 l -0.08,-45.8 c -0.04,-17.7 14.25,-32 31.91,-32.1" /><path
         id="path438"
         style="fill:#ff5b7e;fill-opacity:1;fill-rule:nonzero;stroke:none"
         d="m 9265.92,6120.3 35.57,-305.3 c 4.38,-37.6 -16.74,-71.8 -44.39,-71.7 l -960.88,1.8 c -24.96,0 -49.6,15.7 -62.66,45 -13.38,30 -15.98,75.3 27.14,136 85.36,120.2 363.16,150 503.08,250.9 2.86,2.1 6.22,3.2 9.75,3.2 l 442.17,-0.8 c 24.99,-0.1 46.26,-25.1 50.22,-59.1" /><path
         id="path440"
         style="fill:#294a5c;fill-opacity:1;fill-rule:nonzero;stroke:none"
         d="m 8835.73,6002.9 v 0 c 6.95,4.2 9.51,15.9 5.51,24.8 -18.79,41.9 -77.57,143.8 -197.6,123.1 -6.94,-1.2 -11.65,-10.4 -10.49,-19.9 l 0.04,-0.3 c 1.13,-9.2 7.36,-15.2 14.07,-14.1 107.57,18.2 157.54,-71.7 172.74,-106.7 3.24,-7.5 9.95,-10.5 15.73,-6.9" /><path
         id="path442"
         style="fill:#294a5c;fill-opacity:1;fill-rule:nonzero;stroke:none"
         d="m 8735.86,5963.8 v 0 c 6.96,4.2 9.52,15.9 5.51,24.8 -18.78,41.9 -77.57,143.8 -197.6,123.1 -6.93,-1.2 -11.65,-10.4 -10.48,-19.9 l 0.04,-0.3 c 1.12,-9.2 7.35,-15.2 14.06,-14.1 107.57,18.2 157.54,-71.7 172.74,-106.7 3.24,-7.5 9.95,-10.5 15.73,-6.9" /><path
         id="path444"
         style="fill:#294a5c;fill-opacity:1;fill-rule:nonzero;stroke:none"
         d="m 8642.98,5927.3 v 0 c 6.96,4.3 9.51,15.9 5.51,24.9 -18.79,41.8 -77.57,143.7 -197.6,123 -6.93,-1.2 -11.65,-10.4 -10.48,-19.9 l 0.03,-0.3 c 1.13,-9.2 7.36,-15.2 14.07,-14.1 107.57,18.2 157.54,-71.6 172.74,-106.7 3.24,-7.5 9.95,-10.5 15.73,-6.9" /><path
         id="path446"
         style="fill:#294a5c;fill-opacity:1;fill-rule:nonzero;stroke:none"
         d="m 9856.59,5679 1026.41,-1.9 c 17.7,0 32,14.3 32.1,32 l 0.1,45.7 c 0,17.7 -14.3,32 -32,32.1 l -1026.4,1.9 c -17.67,0 -32.01,-14.3 -32.04,-31.9 l -0.09,-45.8 c -0.03,-17.7 14.26,-32 31.92,-32.1" /><path
         id="path448"
         style="fill:#ff5b7e;fill-opacity:1;fill-rule:nonzero;stroke:none"
         d="m 10865.9,6120.3 35.6,-305.3 c 4.4,-37.6 -16.8,-71.8 -44.4,-71.7 l -960.88,1.8 c -24.96,0 -49.6,15.7 -62.66,45 -13.38,30 -15.98,75.3 27.14,136 85.36,120.2 363.2,150 503.1,250.9 2.8,2.1 6.2,3.2 9.7,3.2 l 442.2,-0.8 c 25,-0.1 46.3,-25.1 50.2,-59.1" /><path
         id="path450"
         style="fill:#294a5c;fill-opacity:1;fill-rule:nonzero;stroke:none"
         d="m 10435.7,6002.9 v 0 c 7,4.2 9.5,15.9 5.5,24.8 -18.7,41.9 -77.5,143.8 -197.6,123.1 -6.9,-1.2 -11.6,-10.4 -10.4,-19.9 v -0.3 c 1.1,-9.2 7.3,-15.2 14.1,-14.1 107.5,18.2 157.5,-71.7 172.7,-106.7 3.2,-7.5 9.9,-10.5 15.7,-6.9" /><path
         id="path452"
         style="fill:#294a5c;fill-opacity:1;fill-rule:nonzero;stroke:none"
         d="m 10335.9,5963.8 v 0 c 6.9,4.2 9.5,15.9 5.5,24.8 -18.8,41.9 -77.6,143.8 -197.6,123.1 -7,-1.2 -11.7,-10.4 -10.5,-19.9 v -0.3 c 1.2,-9.2 7.4,-15.2 14.1,-14.1 107.6,18.2 157.5,-71.7 172.7,-106.7 3.3,-7.5 10,-10.5 15.8,-6.9" /><path
         id="path454"
         style="fill:#294a5c;fill-opacity:1;fill-rule:nonzero;stroke:none"
         d="m 10243,5927.3 v 0 c 6.9,4.3 9.5,15.9 5.5,24.9 -18.8,41.8 -77.6,143.7 -197.6,123 -6.9,-1.2 -11.7,-10.4 -10.5,-19.9 v -0.3 c 1.2,-9.2 7.4,-15.2 14.1,-14.1 107.6,18.2 157.6,-71.6 172.7,-106.7 3.3,-7.5 10,-10.5 15.8,-6.9" /><path
         id="path456"
         style="fill:#e8c9d3;fill-opacity:1;fill-rule:nonzero;stroke:none"
         d="m 9301.28,5793.6 c 0.94,6.9 1.06,14.1 0.21,21.4 0.85,-7.3 0.73,-14.5 -0.21,-21.4 m 0.21,21.4 -30.35,260.5 v 0 l 30.35,-260.5" /><path
         id="path458"
         style="fill:#ff496b;fill-opacity:1;fill-rule:nonzero;stroke:none"
         d="m 9257.17,5743.3 c -0.02,0 -0.05,0 -0.07,0 l -244.25,0.4 -184.53,0.4 c 98.18,195.9 274.38,288.9 442.82,331.4 l 30.35,-260.5 v 0 c 0.85,-7.3 0.73,-14.5 -0.21,-21.4 -3.9,-28.2 -21.89,-50.3 -44.11,-50.3" /></g></g></svg>